<?xml version="1.0" standalone="no"?>
<!DOCTYPE svg PUBLIC "-//W3C//DTD SVG 1.1//EN" "http://www.w3.org/Graphics/SVG/1.1/DTD/svg11.dtd" >
<svg xmlns="http://www.w3.org/2000/svg" xmlns:xlink="http://www.w3.org/1999/xlink" version="1.1">
<metadata>
Created by FontForge 20200314 at Fri Nov  6 07:17:06 2015
 By Unknown
Copyright (c) 2015 Veneta Rangelova. Copyright 2015. All rights reserved.
</metadata>
<defs>
<font id="HelloHeadlineW00-Regular" horiz-adv-x="587" >
  <font-face 
    font-family="HelloHeadlineW00-Regular"
    font-weight="400"
    font-stretch="normal"
    units-per-em="1000"
    panose-1="3 8 0 0 0 0 0 0 0 0"
    ascent="800"
    descent="-200"
    x-height="681"
    cap-height="695"
    bbox="-29 -272 1020 927"
    underline-thickness="50"
    underline-position="-125"
    unicode-range="U+000D-FB02"
  />
<missing-glyph horiz-adv-x="146" 
 />
    <glyph glyph-name=".notdef" horiz-adv-x="146" 
 />
    <glyph glyph-name="glyph1" horiz-adv-x="0" 
 />
    <glyph glyph-name="glyph1" horiz-adv-x="0" 
 />
    <glyph glyph-name="uni000D" unicode="&#xd;" horiz-adv-x="146" 
 />
    <glyph glyph-name="space" unicode=" " horiz-adv-x="146" 
 />
    <glyph glyph-name="exclam" unicode="!" horiz-adv-x="411" 
d="M160 139q20 9 42 9q32 0 55.5 -18.5t23.5 -48.5q0 -20 -11 -40.5t-37 -32.5t-56 -12q-25 0 -48 19t-23 47q0 26 15.5 46.5t38.5 30.5zM92 689q8 17 27.5 25t44.5 8q23 0 49 -6t41 -15q49 -23 67 -86q10 -34 10 -83q0 -77 -22 -166.5t-45 -126.5q-35 -56 -76 -56
q-22 0 -36 10q-28 19 -45 65.5t-17 159.5l2 154l-2 42l-1 39v10q0 14 3 26z" />
    <glyph glyph-name="quotedbl" unicode="&#x22;" horiz-adv-x="383" 
d="M109 443q-21 0 -35 6.5t-24 38.5q-4 17 -9 67t-5 61v14q0 29 19 43t48 14q67 0 67 -55l-2 -45q-1 -9 -4.5 -41.5t-7.5 -50t-10 -28.5t-14.5 -17.5t-22.5 -6.5zM277 443q-21 0 -35 6.5t-24 38.5q-4 17 -9 67t-5 61v14q0 29 19 43t48 14q67 0 67 -55l-2 -45
q-1 -9 -4.5 -41.5t-7.5 -50t-10 -28.5t-14.5 -17.5t-22.5 -6.5z" />
    <glyph glyph-name="numbersign" unicode="#" horiz-adv-x="863" 
d="M696 506l32 -1h39q48 0 63 -5.5t15 -17.5v-6q0 -46 -31.5 -66.5t-112.5 -20.5l-47 1q-9 -10 -25 -44t-18 -37l21 -1l83 2l26 -1q13 -1 20.5 -7.5t7.5 -21.5l-1 -15q-6 -30 -24.5 -48.5t-44 -26.5t-50.5 -8h-89q-8 -14 -40.5 -88t-77.5 -88q-15 -4 -31 -4
q-19 0 -34.5 12.5t-15.5 30.5l4 17q5 15 24.5 59.5t25.5 62.5q-33 2 -110 2q-14 -28 -39.5 -88t-45.5 -77q-6 -6 -16 -11.5t-37 -5.5q-17 0 -34 3t-23 7q-8 6 -8 20v4q1 17 15 58t35 90q-6 1 -36.5 3t-48 8t-26.5 14t-15.5 24t-6.5 29q0 14 5.5 25.5t16.5 17.5l73 1l81 -3
q13 17 28 70h-63q-57 0 -82.5 24t-25.5 61q0 21 19 30q45 13 118 13h89q11 27 40.5 85t38.5 81q8 11 30 20t43 9q18 0 34 -6.5t23 -18.5t7 -24q0 -16 -7 -38t-25.5 -57t-22.5 -45h100q12 28 36 77.5t33 69.5q10 18 28 30t56 12q29 0 46.5 -6t17.5 -29q0 -6 -4 -25t-27.5 -67
t-28.5 -65zM388 378q-5 -8 -18 -36.5t-17 -35.5h108q3 6 12 25.5t13 29.5t5 16q-3 2 -45 2z" />
    <glyph glyph-name="dollar" unicode="$" horiz-adv-x="507" 
d="M73 215q3 2 15 2q16 0 70.5 -14.5t75.5 -14.5h4q43 0 43 27q0 14 -11.5 24t-45 28.5t-56.5 33.5t-46 34q-14 12 -29.5 33t-26 51t-11.5 62v6q0 54 25 98q19 33 56.5 61.5t80.5 40.5q-4 16 -6 34l-1 15q0 21 14 31t45 10q46 0 55 -18q4 -9 4 -27q0 -13 -4 -41
q61 -11 101 -46.5t40 -84.5q0 -28 -18 -45.5t-49 -18.5h-5l-96 7h-5q-15 0 -26.5 -6.5t-11.5 -17.5q0 -8 7 -15q14 -17 77 -58t93 -68.5t46.5 -57.5t16.5 -62q0 -88 -45.5 -141t-125.5 -72l3 -47q0 -24 -13 -35t-43 -11q-34 0 -47.5 10.5t-13.5 44.5l1 30q-54 2 -103.5 18
t-69.5 42q-10 12 -16 30.5t-6 34.5q0 32 14.5 57t43.5 36z" />
    <glyph glyph-name="percent" unicode="%" horiz-adv-x="721" 
d="M223 686q2 -2 6 -2q16 -5 34 -22t29.5 -47t11.5 -60q0 -28 -12 -61t-43 -57t-73 -24q-41 0 -69 24t-38.5 54.5t-10.5 55.5q0 31 15.5 66t45 56t61.5 21t43 -4zM148 552l-1 -6q0 -11 11 -23t20 -12q15 0 26 12.5t11 34.5q0 18 -8.5 28.5t-23.5 10.5q-14 0 -24.5 -13
t-10.5 -32zM530 299q29 -1 56.5 -16t45.5 -51.5t18 -77.5v-8q-1 -31 -16 -62t-50 -50.5t-74 -19.5q-38 0 -68 23t-41.5 55t-11.5 59q0 29 14.5 62t48.5 59.5t78 26.5zM525 201h-1q-17 0 -28.5 -14t-11.5 -38q0 -19 9.5 -31.5t25.5 -12.5t26 12.5t10 36.5v3q-2 44 -30 44z
M586 682q14 -4 22.5 -15.5t8.5 -26.5v-5q0 -6 -2 -8q-107 -163 -221 -321.5t-204 -269.5q-15 -19 -30 -27q-8 -5 -29 -11l-24 -1q-13 0 -25 6t-19 18q-5 9 -5 20q0 9 8 30t15 30l383 521q33 43 56 58q13 8 29 8q8 0 21.5 -3t15.5 -3z" />
    <glyph glyph-name="ampersand" unicode="&#x26;" horiz-adv-x="738" 
d="M353 371q6 -7 19.5 -20t62.5 -54q9 13 20 53.5t29 55.5q19 16 47 16q22 0 41 -10t28 -29q0 -110 -38 -168q5 -4 19.5 -13t39 -15.5t85.5 -18.5q20 -31 20 -65q0 -30 -15 -57t-37.5 -38t-42.5 -11q-30 0 -71 16t-85 51q-93 -89 -219 -91q-72 0 -125.5 25t-82.5 67.5
t-29 102.5q0 32 11.5 70.5t41 73.5t68.5 60l6 4q-26 28 -42 70t-16 80q0 32 9.5 65.5t32.5 61t62 45.5t94 18q39 0 71.5 -13.5t55.5 -37.5t35 -55.5t12 -66.5q0 -27 -10.5 -56.5t-35.5 -61.5t-61 -54zM344 156q-17 13 -49 43.5t-50 49.5q-12 -10 -19.5 -25t-7.5 -29
q0 -26 19 -45t50 -19q17 0 34 8.5t23 16.5zM238 540q0 -20 10 -43t25 -37l3 3q43 47 43 80q0 19 -10 30.5t-28 11.5q-19 0 -30 -13t-13 -32z" />
    <glyph glyph-name="quotesingle" unicode="'" horiz-adv-x="202" 
d="M109 443q-21 0 -35 6.5t-24 38.5q-4 17 -9 67t-5 61v14q0 29 19 43t48 14q67 0 67 -55l-2 -45q-1 -9 -4.5 -41.5t-7.5 -50t-10 -28.5t-14.5 -17.5t-22.5 -6.5z" />
    <glyph glyph-name="parenleft" unicode="(" horiz-adv-x="330" 
d="M247 572q-20 -44 -33 -110.5t-13 -116.5v-3q0 -41 7 -90.5t19 -92.5t21 -69.5t24 -63.5l1 -6q0 -20 -27 -49q-11 -10 -26 -10q-16 0 -38 12q-29 17 -53 47.5t-44.5 75t-36 115t-15.5 141.5q0 53 20 132.5t63.5 146t99.5 93.5l10 2q20 -2 40.5 -14.5t20.5 -24.5l-5 -23
q-1 -4 -4.5 -15t-16.5 -42.5t-14 -34.5z" />
    <glyph glyph-name="parenright" unicode=")" horiz-adv-x="314" 
d="M80 572q-1 3 -15.5 38.5t-19.5 53.5l-5 23q0 12 20.5 24.5t40.5 14.5l10 -2q56 -27 99.5 -93.5t63.5 -146t20 -132.5q0 -71 -15.5 -141.5t-36 -115t-44.5 -75t-53 -47.5q-22 -12 -38 -12q-15 0 -26 10q-27 29 -27 49l1 6q15 37 24 63.5t19 62.5t19 86.5t9 106.5
q0 50 -13 116.5t-33 110.5z" />
    <glyph glyph-name="asterisk" unicode="*" horiz-adv-x="409" 
d="M216 700q44 0 44 -49l-1 -33q38 21 53 26q8 3 14 3q29 0 44 -27q5 -8 5 -17q0 -14 -11 -25q-10 -11 -57 -49q2 -2 16 -15.5t24 -25.5t16 -25t6 -26q0 -14 -13.5 -25.5t-24.5 -11.5q-5 0 -17 3t-30.5 22t-30.5 23v-13l-2 -43q-1 -7 -6 -15t-17 -11.5t-17 -3.5
q-14 0 -29.5 7.5t-19.5 19.5l2 64q-21 -23 -41.5 -38t-41.5 -15q-16 0 -29 12.5t-13 29.5q0 11 10.5 24.5t39 34.5t36.5 28q-7 7 -30 19.5t-32 19.5q-14 11 -14 27q0 17 14 31.5t30 14.5q3 0 13 -1.5t35.5 -13t31.5 -13.5l-1 19l2 46q-1 6 13.5 14t28.5 8z" />
    <glyph glyph-name="plus" unicode="+" horiz-adv-x="641" 
d="M566 273q-4 -3 -11.5 -5.5t-21 -4.5t-16.5 -3l-108 -1q-2 -138 -14 -159l-2 -4q-3 -12 -19 -20.5t-27 -8.5q-49 0 -69 34q-3 4 -5.5 11.5t-4.5 21t-3 16.5l-1 109h-37l-32 -1q-67 0 -97 18q-12 7 -19 21t-7 43v4q4 32 28 45t74 13l90 2v36l-1 32q0 67 18 97q7 12 21 19
t43 7h4q32 -4 45 -28t13 -74l2 -89q137 -2 158 -14l4 -2q12 -3 20.5 -19t8.5 -27q0 -49 -34 -69z" />
    <glyph glyph-name="comma" unicode="," horiz-adv-x="272" 
d="M135 -95q-18 -11 -27 -12q-29 0 -42 11q-16 9 -16 29l1 8q7 21 16.5 45t11.5 34l-2 5q-22 11 -35.5 32t-13.5 46q0 54 32 79.5t81 25.5q26 0 49 -11.5t36.5 -34.5t13.5 -45q0 -81 -71 -177l-5 -5q-20 -28 -29 -30z" />
    <glyph glyph-name="hyphen" unicode="-" horiz-adv-x="624" 
d="M530 279q-4 -3 -11.5 -5.5t-21 -4.5t-16.5 -3l-262 -1l-32 -1q-58 0 -86 17q-37 21 -37 67v4q2 15 15.5 29t38.5 21.5t48 7.5q29 0 70 1.5t101 1.5q159 0 185 -15l4 -2q11 -3 24.5 -18.5t13.5 -27.5q0 -51 -34 -71z" />
    <glyph glyph-name="period" unicode="." horiz-adv-x="324" 
d="M121 180q21 10 49 10q27 0 51.5 -13.5t35 -33t10.5 -36.5q0 -48 -34 -74t-82 -26q-21 0 -44.5 12.5t-34.5 31t-11 34.5q0 31 17 57t43 38z" />
    <glyph glyph-name="slash" unicode="/" horiz-adv-x="577" 
d="M472 719l14 2q16 0 35 -7.5t27.5 -19.5t7.5 -24l-1 -8q0 -40 -40 -107l-316 -526q-30 -48 -54 -65q-22 -15 -49 -15q-17 0 -34 7t-25 17q-5 4 -10 12t-5 13q0 9 6.5 29.5t24.5 49.5q86 138 198.5 330t172.5 281q7 11 22 20.5t26 10.5z" />
    <glyph glyph-name="zero" unicode="0" horiz-adv-x="520" 
d="M266 699q116 0 175.5 -87.5t59.5 -248.5q0 -44 -7.5 -99.5t-27 -104.5t-47 -83t-69 -54t-92.5 -20q-110 0 -170 96t-60 291q0 62 14.5 118.5t44 99.5t75 67.5t104.5 24.5zM273 513q-29 0 -45 -40.5t-16 -108.5q0 -56 7.5 -93.5t20.5 -50.5t25 -13q35 0 48 38.5t13 129.5
q0 44 -7 77t-19.5 47t-26.5 14z" />
    <glyph glyph-name="one" unicode="1" horiz-adv-x="406" 
d="M294 7q-16 -2 -42 -2q-37 0 -62 11t-27 46v2l-1 106q0 110 6 176q-23 -16 -53 -16q-28 0 -51.5 10t-37.5 28q-3 4 -6.5 12t2.5 27q19 46 64.5 116.5t109.5 139.5q28 30 57 31l20 1q42 0 62.5 -19t27.5 -60v-235q0 -152 -13 -284q-4 -38 -19 -63t-37 -27z" />
    <glyph glyph-name="two" unicode="2" horiz-adv-x="497" 
d="M486 114q0 -27 -11 -53.5t-27 -39t-30 -14.5q-96 -9 -195 -4q-3 0 -33.5 1t-54 4t-40.5 9.5t-25 13t-10 9.5q-25 29 -25 90q0 24 14 52.5t40.5 56.5t70.5 68q53 47 87 94.5t34 73.5q0 13 -8 21t-19 8q-31 0 -59 -36.5t-37.5 -44t-20.5 -12.5t-27 -5q-22 0 -36 6
q-50 26 -50 77q0 13 3 26q8 34 29 66.5t52.5 58t70 40t78.5 14.5q102 0 157.5 -51t55.5 -137q0 -152 -235 -338q2 0 63 5t87 5q36 0 57 -4.5t33 -18.5t11 -41z" />
    <glyph glyph-name="three" unicode="3" horiz-adv-x="493" 
d="M351 421q62 -28 95.5 -77.5t33.5 -113.5q-3 -47 -20 -88t-48.5 -72t-79.5 -48.5t-108 -17.5q-33 0 -80 11.5t-83.5 45.5t-38.5 87v7q3 41 16.5 58.5t32.5 24.5q15 5 27 5q10 0 23 -3t27 -9t26 -13.5t13 -7.5q29 -14 52 -15q14 1 26 7.5t17.5 18.5t6.5 24v8
q0 24 -12.5 40.5t-50 34.5t-47.5 31q-3 6 -3 11l1 6q-5 20 5.5 44.5t27.5 51t21 34.5l-4 2h-5q-22 0 -60 -7.5t-57 -7.5h-5q-18 2 -35 12.5t-26 32.5t-9 48q0 21 15 43t54 37q72 29 147 29q86 -3 128 -41.5t42 -96.5q0 -26 -9 -55t-26.5 -51.5t-29.5 -29.5z" />
    <glyph glyph-name="four" unicode="4" horiz-adv-x="583" 
d="M260 616q-8 -50 -18.5 -94t-41.5 -142q4 -12 12.5 -17t25.5 -5h56q2 46 8 102.5t15 95.5q7 20 25 32t42 12h5q39 -2 56.5 -40t17.5 -97v-67l-1 -26q52 -1 75 -5t31 -16.5t8 -28.5q-3 -46 -31.5 -78t-82.5 -32q-1 -43 -3.5 -105.5t-2.5 -74.5q-9 -31 -85 -31
q-21 0 -40.5 6.5t-26.5 14t-9 10.5q-9 28 -9 86l1 82q-16 1 -74.5 2t-92 7t-54.5 17.5t-34 31.5t-13 54q0 71 54.5 214t56.5 150q7 8 22.5 14.5t34.5 6.5q18 -2 33 -8t23 -17t11 -20.5t4.5 -21t1.5 -12.5z" />
    <glyph glyph-name="five" unicode="5" horiz-adv-x="513" 
d="M291 263q0 46 -31.5 71.5t-122.5 25.5q-31 1 -47 35.5t-16 100.5v4q1 59 10 107.5t18 55.5q11 9 64.5 18t102.5 9h6q58 -1 108.5 -5.5t64.5 -13.5q3 -30 3 -53v-9q0 -18 -2 -24q-22 -50 -172 -50h-30q-2 -7 -2 -19q0 -31 7 -37l27 2h10q29 0 64 -12t67 -37t53 -66t22 -96
v-17q-3 -50 -23 -96.5t-55.5 -81.5t-85.5 -55t-108 -20h-5q-41 1 -74 8.5t-60 21.5t-48.5 40.5t-25.5 63.5q0 35 17.5 56t46.5 21q23 0 52 -19t42.5 -23t20.5 -4h9q18 0 40.5 12t37.5 33.5t15 52.5z" />
    <glyph glyph-name="six" unicode="6" horiz-adv-x="543" 
d="M301 437q19 6 49 6q26 0 54.5 -11.5t55 -38.5t45 -66.5t18.5 -84.5v-2q0 -44 -13 -88t-44.5 -78t-82.5 -55t-124 -21q-103 0 -169 62.5t-67 158.5q0 38 8.5 86.5t40.5 121.5t132 231q11 16 28.5 28t35.5 12t32.5 -4.5t34.5 -16.5q40 -20 40 -73q0 -20 -8.5 -45t-33.5 -66
t-32 -56zM252 293l-6 -5q-12 -10 -20.5 -32.5t-8.5 -42.5q0 -23 13.5 -41t37.5 -18q18 0 35.5 9t26.5 31t9 51v9q0 22 -15 37t-34 15q-22 0 -38 -13z" />
    <glyph glyph-name="seven" unicode="7" horiz-adv-x="521" 
d="M298 479l3 13q-19 2 -106.5 3t-120 10t-46.5 20q-19 38 -19 67q0 44 13.5 61t36.5 23q57 14 226 14q124 0 188 -17q10 -3 20 -13t13 -19q6 -25 6 -54v-14q-1 -27 -14.5 -81t-54 -152.5t-92 -197.5t-65.5 -112q-5 -8 -26.5 -14t-47.5 -6q-34 0 -58 13t-30 41l-2 17
q0 30 13 60q36 85 87 192.5t70 136.5l3 4z" />
    <glyph glyph-name="eight" unicode="8" horiz-adv-x="523" 
d="M403 422q55 -37 79 -86.5t24 -121.5q0 -38 -15 -77t-46.5 -71.5t-81 -52t-112.5 -19.5q-45 0 -89 14.5t-76.5 45.5t-51.5 74.5t-19 90.5q0 46 17 89t41.5 71t46.5 43q-23 26 -34 57.5t-11 61.5q0 23 13.5 55.5t37.5 55t58.5 35.5t80.5 13q30 0 64 -10t61 -29t43.5 -48
t16.5 -64q0 -36 -11.5 -71t-35.5 -56zM264 575q-19 0 -30 -12t-11 -35q0 -15 9 -29.5t25 -14.5t28 11t12 37q0 14 -9.5 28.5t-23.5 14.5zM325 232q0 33 -19 54t-48 21q-22 0 -43 -21t-21 -56q0 -31 17 -53t43 -22h8q27 0 45 19t18 58z" />
    <glyph glyph-name="nine" unicode="9" horiz-adv-x="535" 
d="M234 254q-9 -3 -16 -3q-49 0 -97 26t-74.5 75t-26.5 102q0 59 19.5 105t55 77t84 46.5t105.5 15.5q103 0 169 -62.5t67 -158.5q0 -51 -11.5 -100.5t-41 -115t-128.5 -223.5q-8 -13 -25.5 -24t-38.5 -14l-21 -1q-37 0 -68 16t-32 48q0 20 9.5 49.5t37.5 80t33 61.5z
M293 408l6 5q12 10 20.5 32.5t8.5 42.5q0 23 -13.5 41t-37.5 18q-18 0 -35.5 -9t-26.5 -31t-9 -51v-9q0 -22 15 -37t34 -15q22 0 38 13z" />
    <glyph glyph-name="colon" unicode=":" horiz-adv-x="304" 
d="M112 529q21 10 49 10q27 0 51.5 -13.5t35 -33t10.5 -36.5q0 -48 -34 -74t-82 -26q-21 0 -44.5 12.5t-34.5 31t-11 34.5q0 31 17 57t43 38zM111 189q21 10 49 10q27 0 51.5 -13.5t35 -33t10.5 -36.5q0 -48 -34 -74t-82 -26q-21 0 -44.5 12.5t-34.5 31t-11 34.5q0 31 17 57
t43 38z" />
    <glyph glyph-name="semicolon" unicode=";" horiz-adv-x="296" 
d="M112 529q21 10 49 10q27 0 51.5 -13.5t35 -33t10.5 -36.5q0 -48 -34 -74t-82 -26q-21 0 -44.5 12.5t-34.5 31t-11 34.5q0 31 17 57t43 38zM152 -95q-18 -11 -27 -12q-29 0 -42 11q-16 9 -16 29l1 8q7 21 16.5 45t11.5 34l-2 5q-22 11 -35.5 32t-13.5 46q0 54 32 79.5
t81 25.5q26 0 49 -11.5t36.5 -34.5t13.5 -45q0 -81 -71 -177l-5 -5q-20 -28 -29 -30z" />
    <glyph glyph-name="less" unicode="&#x3c;" horiz-adv-x="531" 
d="M392 602q15 5 36 5q69 0 67 -55q-1 -30 -26 -64t-82 -79t-68.5 -55t-17.5 -18l-14 -17q0 -2 1 -4t11 -12q17 -16 74 -56t82.5 -62.5t33.5 -39.5q4 -11 4 -24q0 -21 -9 -41.5t-23.5 -29.5t-28.5 -9l-20 2q-18 4 -57 25t-95.5 61.5t-108 79t-56.5 42.5q-12 9 -22.5 25.5
t-10.5 31.5q0 9 4.5 19.5t12.5 16.5q163 146 205 180.5t69 54t39 23.5z" />
    <glyph glyph-name="equal" unicode="=" horiz-adv-x="696" 
d="M586 363q-4 -3 -11.5 -5.5t-21 -4.5t-16.5 -3l-290 -1l-32 -1q-67 0 -97 18q-12 7 -19 21t-7 43v4q4 32 28 45t74 13q29 0 70 1.5t101 1.5q74 0 141 -3.5t81 -11.5l4 -2q12 -3 20.5 -19t8.5 -27q0 -49 -34 -69zM586 143q-4 -3 -11.5 -5.5t-21 -4.5t-16.5 -3l-290 -1
l-32 -1q-67 0 -97 18q-12 7 -19 21t-7 43v4q4 32 28 45t74 13q29 0 70 1.5t101 1.5q74 0 141 -3.5t81 -11.5l4 -2q12 -3 20.5 -19t8.5 -27q0 -49 -34 -69z" />
    <glyph glyph-name="greater" unicode="&#x3e;" horiz-adv-x="503" 
d="M139 602q20 -7 71 -48t99 -84t88 -79t49 -44q8 -6 13 -17t5 -20q0 -12 -8 -27t-26 -29q-9 -7 -58 -45t-96.5 -73t-90 -61.5t-66.5 -31.5l-20 -2q-14 0 -28.5 9t-23.5 29.5t-9 41.5q0 13 4 24q8 17 33.5 39.5t82.5 62.5t74 56q1 1 6.5 6t5.5 10l-14 17q-3 3 -12 12.5
t-55.5 46t-72 61.5t-39.5 49.5t-15 46.5q-1 55 66 55q17 0 37 -5z" />
    <glyph glyph-name="question" unicode="?" horiz-adv-x="593" 
d="M253 139q20 9 42 9q32 0 55.5 -18.5t23.5 -48.5q0 -20 -11 -40.5t-37 -32.5t-56 -12q-25 0 -48 19t-23 47q0 26 15.5 46.5t38.5 30.5zM305 560q-16 0 -26.5 -3.5t-19.5 -9t-44 -40.5l-4 -4q-16 -16 -39 -27.5t-43 -11.5q-28 0 -47.5 20.5t-19.5 51.5q0 19 7 39
q55 153 249 153q41 0 80.5 -14t70 -40t48.5 -62t18 -77q0 -52 -21.5 -92.5t-69 -82t-59 -58t-14.5 -29.5l-8 -31l-5 -16q-3 -9 -14.5 -19t-33.5 -14l-14 -1q-27 0 -50 9.5t-34 26.5q-8 12 -8 24v6q0 42 18 83.5t77 99.5l13 13q15 15 26.5 34t11.5 34q0 16 -12 27t-33 11z
" />
    <glyph glyph-name="at" unicode="@" horiz-adv-x="754" 
d="M379 519q18 5 36 5q37 1 62.5 -11.5t25.5 -31.5q0 -21 -11.5 -32.5t-59.5 -11.5q-13 0 -31.5 -6.5t-34 -23t-15.5 -34.5q0 -15 11 -22.5t23 -7.5h6q23 2 44.5 15t34.5 34q4 7 17 21.5t19 17.5q15 5 23 5q15 0 25 -9.5t10 -37.5q0 -30 5 -46q1 -3 5 -9.5t12 -6.5
q4 0 10.5 5t9.5 12q17 39 17 76q0 80 -56 128t-144 48q-51 0 -97.5 -18t-81.5 -51.5t-55 -81.5t-20 -104q0 -37 13.5 -73.5t44 -64.5t77 -45t105.5 -17h15q28 1 72.5 11t143.5 62q6 3 15 3q17 0 36.5 -11t28 -27.5t8.5 -30.5q0 -21 -21 -47t-62 -49.5t-103 -38t-139 -14.5
q-78 0 -147 26.5t-119.5 72.5t-78 105.5t-27.5 121.5q0 56 17.5 119t62 120.5t102 89t109 41.5t93.5 10q30 0 69.5 -6t81.5 -23t82.5 -49.5t67.5 -87t27 -121.5q0 -30 -12 -62t-34 -59t-54.5 -43.5t-70.5 -16.5q-31 0 -52.5 15t-30.5 35q1 -2 -13 -15t-46.5 -28t-69.5 -15
q-25 0 -56 10.5t-53 38.5t-22 65q0 61 45.5 110.5t104.5 65.5z" />
    <glyph glyph-name="A" unicode="A" horiz-adv-x="554" 
d="M521 285q0 -5 6 -59t6 -81q0 -43 -12 -75t-35.5 -49.5t-61.5 -17.5q-28 0 -46.5 17t-29 49t-14 92.5t-6.5 66.5q-5 6 -20.5 10t-31.5 4t-31 -3.5t-17 -10.5q-3 -11 -6.5 -30.5t-5.5 -27.5q-1 -4 -9 -42t-18.5 -63.5t-28 -41.5t-43.5 -16q-28 0 -51.5 19.5t-36 62
t-9.5 78.5q0 31 4.5 79t18 129t13.5 83q22 131 74 185.5t141 54.5q56 0 96.5 -20.5t67.5 -57t48 -99.5t38 -236zM279 537q-19 0 -34.5 -36t-15.5 -74q0 -20 7.5 -32t38.5 -12h5q26 0 36.5 9.5t10.5 35.5q0 34 -13.5 71.5t-34.5 37.5z" />
    <glyph glyph-name="B" unicode="B" horiz-adv-x="669" 
d="M250 702q55 0 107.5 -21t81.5 -63.5t29 -93.5q0 -55 -36 -97q50 -1 91.5 -17.5t70 -44.5t43.5 -66t15 -80q-1 -48 -24.5 -90.5t-65.5 -73.5t-99 -48t-121 -17q-78 0 -141 12t-110 45q-16 12 -24 31t-8 58v289l-1 87q0 52 10 86q6 18 21 39t33 32q25 15 59 24t69 9z
M325 151q22 0 47.5 8t43.5 28.5t18 45.5q0 35 -25 53.5t-69 18.5q-24 0 -51.5 -5.5t-43.5 -17.5v-112q7 -7 29 -13t51 -6zM276 568q-28 0 -42 -19v-91q7 -4 21 -4q25 0 43 21.5t18 46.5q0 20 -11 33t-29 13z" />
    <glyph glyph-name="C" unicode="C" horiz-adv-x="621" 
d="M523 643q54 -42 54 -94q0 -38 -22 -61t-61 -23q-19 0 -46 9q-4 1 -37 14t-59 13q-47 0 -77.5 -21t-45 -56.5t-14.5 -76.5q0 -31 14.5 -64t44 -53.5t64.5 -21.5q54 -2 102.5 30.5t64 36.5t26.5 4l20 -1q20 -4 34 -19.5t14 -40.5q0 -19 -4 -35q-7 -30 -27 -60.5
t-55.5 -55.5t-82 -41t-94.5 -16q-67 0 -124 28t-96.5 76.5t-61 109.5t-21.5 124q0 33 7 75.5t26.5 86.5t49.5 79.5t70.5 60.5t82 34.5t75.5 10.5q32 1 68.5 -6t65 -20t45.5 -26z" />
    <glyph glyph-name="D" unicode="D" horiz-adv-x="591" 
d="M210 697q77 0 144 -27t115.5 -76t75.5 -115t27 -140t-21.5 -136t-63.5 -107t-104.5 -69.5t-140.5 -24.5q-102 0 -143 33t-44 105v485q0 27 19 43q34 29 136 29zM271 504h-7q-3 0 -13 -2.5t-17 -11.5v-265q9 -8 28 -8q23 0 47 15t41.5 51t17.5 79q0 39 -14.5 72.5
t-35.5 51.5t-47 18z" />
    <glyph glyph-name="E" unicode="E" horiz-adv-x="521" 
d="M228 421h47q63 -1 83.5 -6.5t30 -16t9.5 -27.5q0 -25 -9.5 -43t-25 -28.5t-38.5 -17t-58.5 -9.5t-41.5 -4v-13q0 -26 12 -46.5t40 -25.5q15 -3 54 -3q19 0 57.5 4.5t55.5 4.5q27 0 44 -19.5t17 -44.5q0 -45 -30.5 -73t-79 -40t-102.5 -12q-36 0 -79 6t-79 23t-55 41
q-14 18 -27 54t-20.5 92t-7.5 114q0 74 13.5 140.5t36 112t55.5 67.5q30 19 85.5 33t114.5 14q47 0 84 -11t57.5 -33t20.5 -57q0 -20 -2 -25q-2 -7 -9 -16t-22.5 -15.5t-33.5 -9.5t-102 -6.5t-94 -42.5q-3 -12 -3 -33z" />
    <glyph glyph-name="F" unicode="F" horiz-adv-x="520" 
d="M431 505h-9l-125 3q-32 0 -53 -9q-6 -3 -13.5 -12t-10 -24.5t-2.5 -22.5q0 -47 2 -63l82 1q57 0 84.5 -14.5t27.5 -55.5q0 -40 -17.5 -54.5t-64.5 -16.5q-90 -4 -115 -12q-3 -21 -2.5 -70.5t-2.5 -75.5t-9 -43q-6 -14 -22.5 -24t-46.5 -10q-63 0 -85 35q-18 27 -18 77v25
l5 338q0 99 23 140t67 57.5t108 19.5q56 3 90 3q113 0 153.5 -29t40.5 -83q0 -43 -21.5 -60.5t-65.5 -19.5z" />
    <glyph glyph-name="G" unicode="G" horiz-adv-x="615" 
d="M454 471q-6 3 -36 26.5t-74 23.5q-23 0 -46.5 -10t-45 -36.5t-31 -66t-9.5 -73.5q0 -53 17 -87t44.5 -50.5t63.5 -16.5q44 1 69 23.5t25 46.5v6l-46 1q-18 0 -32 7t-18 20t-4 32q0 36 27 55.5t99 19.5q33 0 47 -2q61 -5 81 -60q11 -36 11 -76v-5q0 -60 -24 -109
t-65.5 -81.5t-94 -48.5t-107.5 -15q-57 1 -103.5 20.5t-79 52t-53.5 72.5t-33.5 90t-12.5 105q0 70 22.5 135.5t64.5 116t100.5 79.5t126.5 29q50 0 95.5 -14t79.5 -39t53 -59t19 -72q0 -25 -21 -38t-58 -13q-32 0 -51 11z" />
    <glyph glyph-name="H" unicode="H" horiz-adv-x="594" 
d="M455 6q-79 0 -90 57q-9 45 -9 134q0 39 -7.5 59.5t-49.5 20.5q-43 0 -54.5 -14.5t-11.5 -39.5q0 -21 2.5 -53.5t2.5 -45.5q0 -47 -18 -79.5t-54 -32.5q-27 0 -51 17q-38 27 -59 124q-19 89 -19 210q0 92 9 177q7 72 17 91q5 15 17.5 29t32.5 21t37 7q40 0 60 -22.5
t20 -61.5v-91q0 -54 14.5 -70t38.5 -16q32 0 46 7.5t21 26t7 88.5v21q0 26 9.5 55.5t35 49t60.5 19.5q43 0 66 -23t28 -80q3 -33 3 -92q0 -100 -7.5 -221.5t-19.5 -188.5q-14 -83 -77 -83z" />
    <glyph glyph-name="I" unicode="I" horiz-adv-x="349" 
d="M264 525l-1 -93v-98l-4 -157q0 -21 14 -28q28 -14 36.5 -26t8.5 -43q0 -34 -13 -50.5t-30 -20.5q-25 -6 -124 -6q-69 0 -95.5 12.5t-26.5 60.5q0 47 22 59q37 20 38 36l1 219l2 75q0 43 -6 60q-6 18 -31 27q-14 5 -20.5 21.5t-6.5 36.5q0 33 10 50q9 16 37 25.5t87 9.5
h23q72 0 104.5 -15t34.5 -54v-11q0 -23 -9 -41.5t-39 -30.5q-10 -4 -12 -18z" />
    <glyph glyph-name="J" unicode="J" horiz-adv-x="559" 
d="M65 211q20 8 39 8q11 0 25.5 -3t37.5 -18t38.5 -19.5t33.5 -4.5q47 0 71.5 42.5t24.5 126.5q0 51 -9 154l-81 -1q-74 0 -108.5 8.5t-49.5 22.5q-13 12 -18.5 38.5t-5.5 45.5t9 35t22 23q15 9 45.5 16.5t127.5 7.5q197 0 239 -79q29 -57 29 -164q0 -89 -11.5 -160
t-23.5 -104q-19 -52 -48 -91.5t-79 -65t-138 -25.5q-55 0 -102.5 15.5t-76.5 41.5q-16 16 -27 38.5t-11 41.5q0 22 12 41.5t35 28.5z" />
    <glyph glyph-name="K" unicode="K" horiz-adv-x="612" 
d="M264 292l-4 2l-5 -3q-3 -12 -6 -32.5t-7 -98t-11.5 -105.5t-19 -41t-29.5 -13q-65 0 -92 32.5t-32 101.5q-3 30 -6.5 96.5t-6 225.5t-5.5 208q0 9 6.5 18.5t17.5 11.5q29 6 57 6q36 -1 58.5 -7.5t39.5 -27.5q38 -46 38 -134q0 -26 -3 -53q22 20 67.5 69t56.5 60
q32 31 67.5 49.5t64.5 18.5q28 0 49.5 -22t21.5 -50q0 -14 -9.5 -37t-40.5 -56t-83 -77t-65 -58q22 -48 91 -128t78 -91l3 -3q43 -53 43 -84q0 -19 -14 -34t-41 -21.5t-53 -6.5q-40 0 -67 10q-30 11 -54.5 40.5t-54.5 106.5l-5 13q-27 75 -45 114z" />
    <glyph glyph-name="L" unicode="L" horiz-adv-x="482" 
d="M54 636q3 16 16 30.5t33 21t37 6.5q62 0 83.5 -21.5t24.5 -64.5l1 -24q0 -2 -0.5 -11t-5 -114t-4.5 -175q0 -50 5 -63q27 -6 87.5 -7t93.5 -12q24 -8 35 -24.5t11 -45.5q0 -34 -7 -58t-20 -38.5t-38.5 -24t-107.5 -9.5l-39 1q-46 1 -82 9t-63.5 24.5t-44.5 44.5t-23 68
q-13 94 -13 193q0 123 21 294z" />
    <glyph glyph-name="M" unicode="M" horiz-adv-x="737" 
d="M515 111l-9 181q-2 0 -7.5 -4t-30 -56t-41 -74t-31.5 -31t-28 -9h-4q-20 0 -37.5 11t-34 33.5t-37.5 65.5t-28 53q-4 -8 -7.5 -25.5t-3.5 -78.5q0 -76 -7 -104q-7 -25 -20 -38q-26 -26 -81 -26q-38 0 -56 20t-18 68v6q8 221 14 286.5t15 116t20 86.5q9 32 24.5 55.5
t34.5 33t35 9.5q31 0 62 -23q10 -7 23 -26t25.5 -49.5t40 -110.5t45.5 -80q8 0 17 12t30 69.5t32 81t23 42t29.5 36.5t41.5 25q12 3 23 3q23 0 44 -12.5t34 -31.5q10 -15 18 -34.5t13.5 -47t9 -76t4.5 -54.5q13 -159 13 -239q0 -44 -5 -106q-13 -30 -41.5 -46t-61.5 -16
q-18 0 -36 10t-29.5 35t-16.5 59z" />
    <glyph glyph-name="N" unicode="N" horiz-adv-x="665" 
d="M232 340l-1 -41q-5 -172 -16 -236q-2 -11 -12.5 -25.5t-30.5 -25.5t-37 -11l-6 1q-90 12 -90 315v42q0 89 15 213q5 38 24 64t39.5 34.5t34.5 8.5q78 0 137 -82q18 -25 81 -133.5t79 -132.5v12l-4 75q0 104 10.5 156.5t35 77.5t60.5 25q15 0 32 -10.5t23 -27.5
q20 -36 20 -219v-20q0 -101 -14.5 -192.5t-42.5 -155.5q-12 -20 -35.5 -32.5t-47.5 -12.5q-27 1 -55 22.5t-59 64t-78.5 133.5t-61.5 113z" />
    <glyph glyph-name="O" unicode="O" horiz-adv-x="654" 
d="M573 563q48 -77 48 -216q0 -66 -17.5 -128t-53 -111t-92 -77.5t-129.5 -28.5q-78 0 -135.5 26.5t-92.5 74t-51 111.5t-16 139q0 70 19.5 133t57.5 110t94.5 73.5t125.5 26.5q37 0 83.5 -12t89 -44.5t69.5 -76.5zM431 353q1 33 -5 70.5t-28.5 62t-64.5 24.5
q-27 0 -50.5 -16t-36 -56t-12.5 -88q0 -39 11.5 -75.5t32 -58t51.5 -21.5q14 0 33 6t34 25t24.5 51t10.5 76z" />
    <glyph glyph-name="P" unicode="P" horiz-adv-x="582" 
d="M267 175h-12q-9 -92 -11.5 -107l-4.5 -27q-8 -20 -36 -32t-57 -12q-30 0 -54 14t-27 37q-12 104 -12 276q0 129 13 317q21 25 72 39.5t110 14.5t106.5 -11.5t83 -30.5t62.5 -48.5t42.5 -71.5t15.5 -94q0 -29 -7.5 -65t-28 -70t-50.5 -59.5t-67.5 -42t-73.5 -22t-64 -5.5z
M249 521v-167q3 -4 12 -7t16 -3q22 0 46 10.5t40.5 35.5t16.5 54q0 28 -13.5 50t-33.5 31t-38 9q-11 0 -25.5 -3.5t-20.5 -9.5z" />
    <glyph glyph-name="Q" unicode="Q" horiz-adv-x="660" 
d="M616 418q5 -38 5 -71q0 -57 -13.5 -112t-36.5 -94t-45 -62q24 -34 67 -49l47 -13l15 -6q4 -3 7.5 -13t-2.5 -29q-7 -24 -28.5 -44.5t-58.5 -28t-65 -0.5q-42 11 -72 40.5t-43 71.5q-30 -6 -64 -6q-78 0 -135.5 26.5t-92.5 74t-51 111.5t-16 139q0 70 19.5 133t57.5 110
t94.5 73.5t125.5 26.5q60 0 111.5 -21.5t89.5 -59.5t59.5 -89t24.5 -108zM431 353q2 85 -23.5 121t-74.5 36q-27 0 -50.5 -16t-36 -56t-12.5 -88q0 -39 11.5 -75.5t32 -58t51.5 -21.5q14 0 33 6t34 25t24.5 51t10.5 76z" />
    <glyph glyph-name="R" unicode="R" horiz-adv-x="562" 
d="M473 0h-4q-26 0 -55.5 16t-57.5 46t-66.5 81.5t-54.5 66.5q4 -23 4 -59q0 -50 -4 -79t-14 -45t-33 -25t-49 -9q-89 0 -92 79q-8 211 -8 295l1 75v28q4 73 18 103.5t27 49.5q53 75 195 75q59 0 106 -13t80.5 -39.5t52 -66.5t21.5 -92v-15q0 -52 -20 -91t-50 -62.5
t-57 -28.5q-1 0 -6.5 -1.5t-7.5 -2.5t-2 -2l4 -6l37 -47q13 -18 44.5 -56t41.5 -54q11 -17 17 -36t6 -32q0 -23 -19.5 -37.5t-54.5 -15.5zM353 491q0 26 -20.5 43t-45.5 17q-36 0 -52 -16v-118q20 -4 27 -4q40 0 65.5 20t25.5 58z" />
    <glyph glyph-name="S" unicode="S" horiz-adv-x="507" 
d="M88 217q16 0 70.5 -14.5t75.5 -14.5h4q43 0 43 27q0 14 -11.5 24t-45 28.5t-56.5 33.5t-46 34q-33 28 -50 70t-17 85q0 30 11.5 64.5t42 69.5t76 53t89.5 18q80 0 135.5 -37.5t55.5 -97.5q0 -28 -18 -45.5t-49 -18.5h-5l-96 7h-5q-15 -1 -26.5 -7t-11.5 -17q0 -5 5.5 -13
t10.5 -12q14 -13 53.5 -38.5t60.5 -40t42.5 -33.5t35 -36.5t23 -39t9.5 -48.5q0 -68 -28 -115.5t-82.5 -75.5t-136.5 -31h-15q-42 0 -86 8.5t-71 23.5t-38 29q-10 12 -16 30.5t-6 34.5q0 25 9 47t27 35q17 13 37 13z" />
    <glyph glyph-name="T" unicode="T" horiz-adv-x="596" 
d="M23 594q0 22 7.5 45t26.5 37t44 14h127l203 -2q79 0 113.5 -29t34.5 -87q0 -22 -11 -38.5t-32 -27t-46 -16t-57 -10t-43 -6.5v-14q0 -62 6 -210q4 -98 4 -148l-1 -49q-17 -25 -46.5 -40.5t-65.5 -15.5q-27 0 -53.5 10.5t-38.5 29.5q-6 47 -6 142q0 62 3 123l8 166
q-2 0 -30 2t-41.5 3t-17.5 2q-36 4 -56 19q-12 6 -22 32.5t-10 67.5z" />
    <glyph glyph-name="U" unicode="U" 
d="M254 312q-1 -41 11.5 -65t30.5 -24q21 0 37.5 23.5t23.5 97.5q2 17 6 107t10 116q10 41 29.5 61t59.5 20q29 0 46.5 -16t30.5 -45q26 -59 26 -230q0 -54 -13 -111.5t-35 -97.5q-41 -72 -99.5 -111t-129.5 -39q-44 0 -87 15.5t-76 50t-54.5 84t-29.5 113.5q-11 82 -11 212
q0 79 7 123q3 23 19 46.5t47 38t65 14.5l26 -2q18 -4 34 -19t24 -45t8 -66q0 -21 -3.5 -108.5t-2.5 -142.5z" />
    <glyph glyph-name="V" unicode="V" horiz-adv-x="645" 
d="M297 314q3 -9 8 -16t9 -7q12 0 33 49.5t31 87.5l48 143q34 110 112 110q93 0 94 -81q0 -34 -13 -83.5t-49 -133.5l-3 -7q-9 -20 -31.5 -75t-41.5 -98t-45 -89.5t-60.5 -78t-75.5 -31.5h-10q-28 0 -57.5 10t-54.5 41t-59 122l-5 14q-27 71 -62 200.5t-49 227.5q0 16 9 31
t29 23t42 8q34 0 64 -13.5t44 -36.5q12 -23 28 -89.5t21 -83.5z" />
    <glyph glyph-name="W" unicode="W" horiz-adv-x="822" 
d="M433 464q27 0 54 -23t70 -115l5 -10q2 5 6.5 21.5t30.5 157t65 170.5q9 7 24.5 12t29.5 5q34 0 58 -23.5t24 -71.5v-5q-4 -101 -25.5 -203.5t-70.5 -233.5q-21 -56 -45.5 -86.5t-43.5 -39t-35 -8.5q-33 0 -65 25.5t-55.5 79.5t-32.5 104q-4 -5 -21.5 -43.5t-35.5 -70
t-39.5 -55.5t-43.5 -35t-40 -12h-6q-32 0 -61 17t-55 68q-41 101 -69.5 256t-28.5 282q0 29 5 39q30 24 75 24q21 0 43 -6t35 -16q29 -21 42 -57.5t18.5 -82t7.5 -56.5q1 -4 2.5 -15.5t7.5 -95t18 -84.5q2 0 8.5 4.5t29 59t41 79.5t37.5 34.5t36 9.5z" />
    <glyph glyph-name="X" unicode="X" horiz-adv-x="659" 
d="M315 193q-10 -1 -41 -43t-47 -61.5t-28 -31.5t-17 -16q-15 -14 -37.5 -23t-41.5 -9q-17 0 -35 8t-30 28q-10 15 -10 31v6q0 19 10 47t32 61q1 1 4.5 6.5t51 74.5t47.5 75l-24 37q-68 105 -91 152t-24 85v9q2 31 24 46.5t57 16.5h5q41 0 76.5 -20t66.5 -76q49 -92 61 -111
t17 -19q2 0 8 4t19.5 25.5t14.5 22.5q14 24 26 45t20.5 34.5t19 27t13.5 17.5q15 20 39.5 32.5t49.5 12.5q23 0 43 -9t28.5 -24.5t8.5 -31.5v-4q0 -38 -30 -92q-13 -22 -31 -51.5t-36.5 -57.5t-35.5 -49.5t-20 -25.5q3 -9 25.5 -45.5t25.5 -42.5q8 -15 43.5 -76t35.5 -87
q0 -17 -8.5 -35t-30 -29t-45.5 -11h-8q-43 0 -67 14q-8 4 -21.5 18.5t-46 66.5t-45 65t-21.5 13z" />
    <glyph glyph-name="Y" unicode="Y" horiz-adv-x="628" 
d="M27 596l-2 25q0 54 48 67q23 6 49 6q28 0 52.5 -10t39.5 -29q14 -19 29 -46.5t40.5 -81.5t38.5 -73l58 98q2 3 28.5 51.5t56.5 68.5t75 20q81 0 81 -61q0 -44 -20 -91q-7 -16 -21 -44.5t-66 -121.5q-16 -28 -55 -97.5t-66 -114.5q-1 -2 -28 -47t-49 -70.5t-48 -37
t-56 -11.5q-17 0 -34.5 9.5t-27.5 31t-10 44.5v10q1 18 11.5 45t35.5 75.5t30 64.5l-89 122q-54 75 -74.5 118t-26.5 80z" />
    <glyph glyph-name="Z" unicode="Z" horiz-adv-x="552" 
d="M235 193l23 -1q33 0 97 8.5t84 10.5q28 4 42 4q20 0 29 -8q8 -7 13 -23t5 -32q0 -32 -17.5 -63.5t-47 -51.5t-72.5 -26q-58 -8 -116 -8q-118 0 -178 28q-72 35 -72 120q0 34 15.5 70t64.5 88q28 29 107.5 103t106.5 103q-14 -2 -56.5 -8.5t-69 -8.5t-47.5 -2h-14
q-51 1 -78.5 37.5t-27.5 79.5q0 29 13 44q2 6 32.5 15t95 17t111.5 8h38q94 0 140.5 -14t63.5 -37q21 -29 21 -67q0 -23 -10.5 -55t-34.5 -68.5t-53 -65.5q-150 -155 -208 -197z" />
    <glyph glyph-name="bracketleft" unicode="[" horiz-adv-x="355" 
d="M85 704q5 1 41 3t44 2h72q48 0 64 -19q5 -6 9.5 -21.5t5.5 -29.5q0 -28 -17 -42q-7 -5 -35 -10.5t-59 -5.5q-10 0 -11 -2q-4 -3 -4 -23v-12l-2 -174v-16l-1 -147v-72q4 0 23 -0.5t29 -1.5t16 -2q9 -2 21 -7t17 -10q11 -27 11 -46l-1 -21q-3 -13 -10 -26t-17 -16
q-4 -1 -46.5 -3.5t-76.5 -3.5h-21q-68 2 -77 12q-27 23 -27 81v177l1 139q2 136 9.5 203.5t22.5 81.5q12 10 19 12z" />
    <glyph glyph-name="backslash" unicode="\" horiz-adv-x="554" 
d="M79 721l14 -2q11 -1 26 -10.5t22 -20.5q57 -84 162 -273.5t198 -338.5q10 -16 20.5 -39.5t10.5 -39.5q0 -5 -5 -13t-10 -12q-8 -10 -25 -17t-34 -7q-26 0 -49 15q-24 17 -54 65l-305 527q-40 67 -40 107l-1 8q-1 12 7.5 24t27.5 19.5t35 7.5z" />
    <glyph glyph-name="bracketright" unicode="]" horiz-adv-x="350" 
d="M271 3q-7 -2 -23 -2l-83 -1l-37 -1q-61 0 -78 20q-5 7 -9.5 22.5t-4.5 29.5q0 28 17 41q7 6 38 11t61 5q5 0 6 2q5 4 5 22v13q0 48 3.5 190t3.5 198v20q-6 1 -32 2t-35 3t-21 7t-17 10q-11 27 -11 46l2 21q3 13 10 26.5t17 16.5q4 1 46 2.5t77 1.5q85 0 98 -12
q27 -25 27 -82q-1 -26 -3 -183.5t-6.5 -237t-12 -124t-19.5 -55.5q-9 -9 -19 -12z" />
    <glyph glyph-name="asciicircum" unicode="^" horiz-adv-x="579" 
d="M243 677q29 8 43 8q18 0 36.5 -7.5t30.5 -20.5q91 -113 147 -210.5t56 -147.5q0 -30 -9.5 -45t-25.5 -19.5t-43 -4.5q-18 0 -39 17.5t-65 87.5t-62 96q-8 12 -12.5 18.5t-9.5 6.5l-8 -5q-14 -14 -50 -75t-52 -85.5t-32 -42.5q-10 -15 -44 -15q-74 0 -79 43q-2 8 -2 23
q0 22 12 59t24 55q66 117 111 182t73 82z" />
    <glyph glyph-name="underscore" unicode="_" horiz-adv-x="711" 
d="M654 -11q-4 -3 -11.5 -5.5t-21 -4.5t-16.5 -3l-415 -1l-32 -1q-58 0 -86 17q-14 8 -25.5 26t-11.5 46v4q2 15 15.5 29.5t39 23.5t47.5 9q29 0 86.5 1.5t117.5 1.5q106 0 199.5 -4t105.5 -11l4 -2q12 -3 25 -20.5t13 -29.5q0 -27 -9 -47t-25 -29z" />
    <glyph glyph-name="grave" unicode="`" horiz-adv-x="176" 
d="M53 683h10q26 0 38 -12q14 -14 31.5 -46.5t32.5 -72.5q4 -10 4 -19q0 -11 -9 -19t-24 -9l-13 1q-10 2 -36 28t-53.5 63.5t-29.5 57.5q0 15 12 21q12 7 37 7z" />
    <glyph glyph-name="a" unicode="a" horiz-adv-x="588" 
d="M420 22q-10 6 -24.5 20.5t-18.5 24.5q-55 -39 -87 -51t-78 -12q-37 0 -72 14t-61 39.5t-41 60t-15 72.5q0 32 10 69t35.5 69.5t66.5 58.5t97 40t111 14q-1 53 -16.5 70t-42.5 17q-26 0 -73.5 -19.5t-67.5 -19.5q-29 0 -45.5 19.5t-16.5 57.5q0 25 14.5 46t43 38.5
t78.5 30.5t95 13q78 0 134 -40t75 -108q16 -53 16 -140l-2 -53q-3 -54 -3 -117q0 -81 29 -151q2 -4 9 -18.5t7 -20.5q0 -19 -25.5 -31.5t-59.5 -12.5q-19 0 -39 5.5t-33 14.5zM302 298q-29 0 -55.5 -12t-38 -31t-11.5 -37q0 -20 15 -33.5t34 -13.5q29 0 53.5 13t39.5 37v67
q-8 10 -37 10z" />
    <glyph glyph-name="b" unicode="b" horiz-adv-x="582" 
d="M46 94q-13 103 -13 315l1 74q2 46 14 86t36.5 70t61.5 47t86 17h6q89 -2 142.5 -47t53.5 -124v-4q-1 -33 -11.5 -60.5t-23.5 -44.5q73 -8 122 -59.5t49 -122.5v-5q-1 -50 -19 -96t-63 -82t-108.5 -50t-127.5 -14t-116 9q-84 15 -90 91zM212 290l-1 -121q6 -3 23.5 -5
t24.5 -2h4q25 0 48 9t34 27t11 37q0 17 -8 34t-28.5 26t-45.5 9q-35 0 -62 -14zM237 569q-23 0 -35 -12v-87q14 -3 25 -3q25 0 43 17.5t18 40.5q0 17 -13.5 30.5t-37.5 13.5z" />
    <glyph glyph-name="c" unicode="c" horiz-adv-x="554" 
d="M491 506q-6 -5 -20.5 -7.5t-68 -3t-74.5 -4.5q-22 -4 -46 -21t-40 -48.5t-16 -62.5q0 -124 94 -137l30 -2l108 5h8q19 -1 37 -11.5t26 -28t8 -35.5q-1 -89 -90 -117q-51 -17 -118 -17q-78 0 -141 21q-31 10 -60.5 32t-53.5 62t-33.5 92t-9.5 96q0 108 30 188.5t92 126.5
q79 59 209 59q31 0 75 -11.5t66 -35.5t22 -54q0 -32 -9.5 -56t-24.5 -30z" />
    <glyph glyph-name="d" unicode="d" horiz-adv-x="540" 
d="M88 664q41 27 121 27q64 0 121.5 -24.5t100 -68t66 -101t23.5 -120.5q0 -94 -25 -166t-71 -118.5t-109.5 -69t-139.5 -21.5q-48 1 -77.5 15.5t-36.5 38.5q-14 47 -14 196q0 247 5 311q7 82 36 101zM219 491l1 -258q1 -2 8.5 -4t13.5 -2q20 0 42 14t38 52t16 85
q0 51 -25.5 85.5t-74.5 34.5q-15 0 -19 -7z" />
    <glyph glyph-name="e" unicode="e" horiz-adv-x="551" 
d="M249 234q0 -19 19 -35q12 -10 30.5 -16t33.5 -6q57 0 130 27q9 3 17 3q13 0 24 -12t18 -26q8 -16 8 -31q0 -24 -14 -47q-21 -35 -64 -56.5t-85 -27.5t-71 -5q-31 1 -68 11t-72 35t-65 66.5t-47.5 101.5t-17.5 124q0 59 14 116t40 101q16 27 47.5 58.5t80.5 52.5t100 21
q34 0 72 -9.5t76 -35.5t57.5 -67.5t19.5 -84.5q0 -29 -9 -64t-26 -59q-16 -22 -48.5 -48t-82.5 -45t-101 -24q-7 -1 -11.5 -6t-4.5 -12zM359 489q0 38 -34 38q-19 0 -38.5 -10t-31.5 -22q-18 -18 -27 -44t-9 -50l1 -15q28 1 62.5 18t55.5 39t21 46z" />
    <glyph glyph-name="f" unicode="f" horiz-adv-x="493" 
d="M214 372l49 3l68 3q22 1 43.5 -5.5t32 -23.5t11.5 -39q0 -41 -25 -67t-63 -26l-116 -4v-27l1 -68q-1 -57 -17.5 -87t-72.5 -31q-22 0 -48.5 10t-37.5 28l-2 33q-5 81 -5 263v17q0 57 4 107.5t18 88.5q9 25 29 52t50.5 49.5t70.5 36t87 14.5q74 2 118 -8q38 -8 57.5 -31
t20.5 -64v-4q0 -56 -45 -79q-7 -4 -28.5 -12t-65.5 -11t-58 -5q-47 -5 -64 -26q-13 -17 -13 -62z" />
    <glyph glyph-name="g" unicode="g" horiz-adv-x="660" 
d="M335 -4h-18q-65 0 -119 23.5t-92.5 67.5t-60 105t-22.5 133v11q0 71 23.5 135.5t67.5 114t105.5 77.5t132.5 28q85 0 138.5 -26t54.5 -78q-1 -29 -12 -52t-30.5 -32t-37.5 -9l-40 4q-27 3 -66 3q-46 0 -79.5 -20t-54 -59t-20.5 -97v-7q2 -36 18.5 -68.5t35.5 -47
t34 -18.5t28 -4q37 0 62.5 17.5t25.5 42.5q-49 0 -72.5 18t-24.5 58q0 27 19 46q9 9 26 15.5t30 7.5q54 6 121 8h19q64 0 94.5 -19t30.5 -62q0 -16 -9 -31t-24 -22q-7 -4 -25 -11t-21 -8v-17q0 -43 -19.5 -84.5t-53 -73.5t-77 -50.5t-88.5 -18.5z" />
    <glyph glyph-name="h" unicode="h" horiz-adv-x="572" 
d="M450 2h-7q-27 0 -44.5 6t-27.5 23q-25 39 -25 143v57l-115 -8q-1 -11 -2.5 -81.5t-11.5 -99.5q-9 -26 -28.5 -35t-45.5 -9q-48 0 -65.5 18t-23.5 47q-11 55 -17 185t-6 289v11q0 52 6.5 79.5t28 42.5t63.5 15q37 0 62 -22q30 -29 30 -99l3 -132v-29l121 -1l1 47
q0 84 1 103.5t3 30.5q6 41 17 62.5t32 32.5t59 11q31 0 48 -15.5t24 -49.5q10 -47 10 -139v-202q0 -209 -29 -250q-9 -13 -27 -21.5t-34 -9.5z" />
    <glyph glyph-name="i" unicode="i" horiz-adv-x="279" 
d="M243 529v-32q0 -58 -6 -190q-9 -184 -9 -237v-37q-15 -14 -40 -21.5t-51 -7.5q-25 0 -47.5 9t-33.5 25.5t-12 33.5q-3 41 -3 84q0 24 5 161q4 106 4 159l-2 157v39q34 20 79 20q35 0 62 -14t39 -39q13 -28 15 -110z" />
    <glyph glyph-name="j" unicode="j" horiz-adv-x="525" 
d="M210 194q85 0 85 216q0 36 -2.5 87.5t-2.5 59.5q0 62 9 88.5t31.5 37t66.5 10.5q36 0 55 -14.5t27 -50.5q5 -23 11 -75t6 -124q0 -73 -10.5 -141t-30.5 -116q-40 -94 -97.5 -132.5t-131.5 -38.5q-40 0 -78.5 11t-68.5 32.5t-48 53.5t-18 72l1 22q2 29 21.5 49.5
t49.5 20.5q29 0 60 -30t43.5 -34t21.5 -4z" />
    <glyph glyph-name="k" unicode="k" horiz-adv-x="647" 
d="M387 270q8 -17 45 -51.5t48 -48.5q30 -36 42 -60t12 -43l-1 -9q-4 -27 -28.5 -41t-59.5 -14q-21 0 -45 6.5t-41 16.5q-21 13 -39 33t-32 42t-55 102q-3 -9 -14 -68t-31.5 -91t-53.5 -32q-10 0 -25.5 4t-24.5 9q-23 13 -35.5 92t-12.5 202q0 29 3 176l3 130q2 24 4.5 36
t12.5 18t23 6q39 0 71 -13t50.5 -44.5t26 -75t11.5 -133.5l1 -25q26 1 53.5 20.5t61.5 75.5q12 20 40 73.5t45 74.5q20 26 51 40.5t62 14.5q24 0 43.5 -11.5t27.5 -32t8 -41.5q0 -50 -26 -106.5t-85 -119.5t-136 -112z" />
    <glyph glyph-name="l" unicode="l" horiz-adv-x="517" 
d="M85 687q15 3 30 3q58 0 94.5 -36.5t37.5 -97.5v-26l2 -286q0 -51 56 -51q24 1 54.5 9.5t40.5 10.5q17 3 35 3q22 0 41.5 -10.5t28.5 -27.5q7 -13 7 -33q0 -72 -58.5 -107t-180.5 -35q-73 0 -125.5 26t-81.5 75.5t-29 123.5l1 29l2 112l-5 250q0 26 10 43.5t40 24.5z" />
    <glyph glyph-name="m" unicode="m" horiz-adv-x="900" 
d="M759 11q-44 0 -67.5 27.5t-23.5 69.5l6 147v32q0 40 -4.5 68t-15.5 45.5t-32 17.5q-16 0 -29 -10t-21 -36t-8 -110v-55q0 -59 -5 -99t-23 -60q-21 -27 -64 -27q-49 0 -69.5 24.5t-24.5 73.5q-3 48 -3 83l1 90q0 84 -14.5 111.5t-44.5 27.5q-33 0 -49.5 -27.5
t-16.5 -108.5l3 -130q0 -46 -7 -76t-18 -45.5t-26.5 -23.5t-36.5 -8l-18 1q-35 5 -51.5 16t-24.5 28q-16 33 -17.5 80.5t-1.5 50.5q-5 88 -5 103q-1 58 -11.5 199.5t-12.5 147.5q16 20 42 31t52 11q39 0 69 -25.5t36 -68.5q59 69 151 69q25 0 54.5 -9.5t54 -31t31.5 -41.5
q38 50 77.5 72t89.5 22l26 -1q32 -3 63.5 -19.5t58 -54.5t38 -92.5t11.5 -107.5q0 -206 -44 -321q-12 -32 -27.5 -46t-47.5 -14z" />
    <glyph glyph-name="n" unicode="n" horiz-adv-x="638" 
d="M487 7q-37 0 -58.5 17.5t-28 42.5t-6.5 47l5 149q0 99 -18.5 137.5t-56.5 38.5q-26 0 -47 -18t-27 -53q-5 -29 -5 -70l1 -124q0 -54 -7 -83q-8 -37 -23 -55q-25 -29 -73 -29q-15 0 -30.5 6t-24.5 15q-12 12 -19.5 32t-10.5 64q-8 123 -17 284.5t-17 243.5q14 9 32.5 18
t56.5 9t68 -25t42 -70q27 36 78 57t98 21q71 0 116.5 -31t68.5 -87.5t23 -139.5v-9q-3 -216 -34 -302t-86 -86z" />
    <glyph glyph-name="o" unicode="o" 
d="M523 556q35 -78 35 -209q0 -79 -22.5 -146t-60 -112.5t-87 -66t-100.5 -20.5q-40 0 -66 6q-71 18 -112 61t-63 107q-7 22 -14.5 67.5t-7.5 100.5q0 120 26.5 183t74.5 105q31 27 74 43t89 17h4q89 0 143.5 -34t86.5 -102zM300 522q-40 0 -61 -44t-21 -107
q0 -90 20 -133.5t55 -43.5q20 0 39 17.5t29.5 64.5t10.5 106q0 53 -18 96.5t-54 43.5z" />
    <glyph glyph-name="p" unicode="p" horiz-adv-x="540" 
d="M244 257v-10l-1 -43q0 -50 -3 -98q-3 -38 -12 -62t-27 -34t-43 -10q-32 0 -56.5 9.5t-35.5 28.5q-26 46 -26 178l-2 137l-1 115q0 42 2 72q3 48 28 89t72 55q48 14 126 14q82 0 140 -24t89.5 -69.5t31.5 -114.5q0 -113 -61.5 -173.5t-178.5 -60.5zM283 420q31 0 49.5 19
t18.5 47t-16.5 45.5t-39.5 17.5q-18 0 -36 -6.5t-26 -16.5v-96q22 -10 50 -10z" />
    <glyph glyph-name="q" unicode="q" horiz-adv-x="604" 
d="M517 555q36 -80 36 -206q0 -36 -7 -77t-20 -76l-16 -38q107 -58 107 -104q0 -16 -17 -37.5t-36 -36.5q-14 -11 -31 -11q-19 0 -46.5 17t-60.5 58q-58 -42 -141 -42q-36 0 -62 6q-71 18 -112 61t-63 107q-20 60 -20 151q0 127 26 195.5t73 109.5q31 28 72.5 43.5
t86.5 16.5h4q88 0 141 -34t86 -103zM297 520q-41 0 -59.5 -37.5t-18.5 -111.5q0 -99 17 -139t54 -40q41 0 57.5 48.5t16.5 148.5q0 131 -67 131z" />
    <glyph glyph-name="r" unicode="r" horiz-adv-x="559" 
d="M229 227l-1 -40q0 -8 -0.5 -45.5t-2 -60t-4.5 -34.5q-4 -21 -21 -32t-63 -11q-31 0 -51 12.5t-31 38.5q-8 19 -8 67v395l1 54q0 28 12.5 50.5t36.5 39.5t68 28.5t96 11.5h10q54 0 101.5 -13t83.5 -39.5t56 -67t20 -92.5q0 -57 -22.5 -111t-55.5 -79q30 -24 49.5 -63
t25.5 -77t6 -67t-10.5 -51.5t-33.5 -32.5t-49 -10q-41 0 -61.5 17t-20.5 59q-3 34 -11 73q-5 25 -23.5 49t-41 34.5t-41.5 10.5q-5 0 -9.5 -4t-4.5 -10zM237 533v-116q19 -10 41 -10q28 0 46.5 22.5t18.5 54.5q0 27 -18.5 46t-45.5 19q-29 0 -42 -16z" />
    <glyph glyph-name="s" unicode="s" horiz-adv-x="522" 
d="M239 476q2 -4 10.5 -11.5t25.5 -19t34.5 -22.5t20.5 -13l17 -11q57 -36 87 -62t48 -58t18 -74q0 -207 -294 -207q-43 0 -93.5 13t-73.5 35.5t-23 47.5q0 30 12.5 49t38.5 30t96.5 17.5t99.5 13.5q15 3 15 14q0 2 -2 5.5t-5 5.5l-62 34q-97 57 -136 110t-39 119
q0 96 81.5 152.5t226.5 56.5q42 0 79.5 -10.5t55 -35.5t17.5 -53t-21.5 -49.5t-62 -32.5t-100.5 -18t-67 -10q-2 -1 -4 -4t-2 -5z" />
    <glyph glyph-name="t" unicode="t" horiz-adv-x="619" 
d="M210 64q-6 22 -6 74v29l1 112v204l-58 4q-89 6 -113.5 31.5t-24.5 61.5t13.5 57.5t42 33.5t111.5 13h298q67 0 100 -20t34 -63q0 -33 -12.5 -55t-42.5 -36q-31 -15 -106 -22l-37 -3v-111l1 -51v-119q0 -102 -11 -147q-14 -55 -96 -55q-36 0 -61.5 15.5t-32.5 46.5z" />
    <glyph glyph-name="u" unicode="u" horiz-adv-x="656" 
d="M618 610v-1l3 -134v-22q0 -76 -7 -132q-37 -309 -284 -309q-84 0 -149 32.5t-98 103.5q-20 44 -34.5 103t-14.5 159q0 128 6 182q3 27 17 48.5t40 31t51 9.5q57 -1 80 -29t24 -85l4 -183q2 -94 8.5 -124t19.5 -44q17 -17 39 -17q14 0 28 10t22 26q6 13 11.5 35t10 58
t6.5 73.5t2 72v35.5q2 105 34 138t90 34h5q26 0 46 -7t29 -21.5t10 -30.5z" />
    <glyph glyph-name="v" unicode="v" horiz-adv-x="605" 
d="M26 657q7 6 22.5 13.5t38 10t32.5 2.5q48 0 75.5 -25.5t38.5 -78.5q16 -73 38 -163.5t37 -142.5q4 -10 12 -10q11 1 28.5 26.5t32.5 68.5q22 62 23 88v4q0 25 -15.5 76.5t-15.5 76.5l1 17q6 36 33 53.5t70 17.5q39 0 67.5 -26.5t38.5 -70.5q8 -32 8 -75
q0 -48 -12.5 -114.5t-36.5 -126.5q-12 -30 -33.5 -71t-44.5 -75q-40 -60 -70 -84.5t-55.5 -31.5t-47.5 -7q-26 0 -54.5 14t-54 44t-39.5 63l-5 12q-30 80 -52.5 155t-37.5 144.5t-23 125.5q-7 49 -7 61q0 21 8 29z" />
    <glyph glyph-name="w" unicode="w" horiz-adv-x="804" 
d="M400 128q-14 -32 -45.5 -60t-66.5 -42.5t-67 -12.5q-60 4 -104 40.5t-67 110.5t-23 192q0 101 20 190.5t53 115.5q16 12 42.5 20.5t48.5 8.5q29 0 46 -15.5t22 -39t5 -43.5q0 -36 -14 -124q-1 -3 -7.5 -39.5t-10 -65t-3.5 -52.5q0 -18 4.5 -35t14.5 -17l5 1q9 2 18.5 13
t25 51.5t23.5 58.5t18.5 33t24.5 25t34 10l16 -1q32 -4 54 -36q10 -17 28.5 -72t29.5 -74t24 -19q9 0 16.5 7t10 24t2 37.5t-0.5 22.5q0 31 -11.5 102.5t-11.5 101.5q0 54 28 81t104 27q20 0 31 -6.5t16 -22.5q15 -49 29 -127t17 -155v-14q0 -68 -14.5 -125.5t-43 -99.5
t-70.5 -64.5t-95 -22.5q-23 0 -53.5 11t-59 39t-43.5 62z" />
    <glyph glyph-name="x" unicode="x" horiz-adv-x="612" 
d="M433 356q29 -45 129 -181q15 -16 23 -35.5t8 -36.5q0 -38 -34.5 -70.5t-79.5 -32.5q-17 0 -34 9.5t-29 22.5q-41 48 -110 145q-85 -116 -114 -148q-11 -13 -27.5 -22.5t-32.5 -9.5q-18 0 -44 10.5t-48 36t-22 53.5q0 20 10 37q23 40 78.5 115t73.5 102q-6 11 -19.5 30
t-41 52t-35.5 43q-54 70 -54 115q0 19 12.5 41.5t40 38.5t53.5 16q25 0 44 -12q10 -5 61 -70.5t69 -84.5q12 15 59 79t59 72q17 13 47 13q17 0 42.5 -10t47 -34t21.5 -50q0 -23 -17 -56t-65 -88q-6 -7 -24.5 -27.5t-30 -36t-16.5 -26.5z" />
    <glyph glyph-name="y" unicode="y" horiz-adv-x="572" 
d="M336 276q-22 -13 -62 -13q-50 0 -95 18t-72.5 47t-41.5 56q-42 83 -42 218q0 22 3 35q7 31 35 46.5t66 15.5q33 0 61 -9q21 -19 29 -90t11 -86t6.5 -28t9.5 -23.5t15 -18t24 -7.5q28 0 43 24t28 91.5t21 96.5q17 37 50 39h17q35 0 59 -22t36 -63t12 -96q0 -25 -4 -73
l-1 -10q-13 -139 -43 -216.5t-68 -121.5t-95 -66t-127 -22q-47 0 -80 25.5t-33 71.5v7q0 28 24 47.5t59 23.5q59 6 98.5 23t52.5 59z" />
    <glyph glyph-name="z" unicode="z" horiz-adv-x="589" 
d="M271 477l-31 3q-98 14 -139 26.5t-61 34.5t-19 51q0 12 3 25q17 71 130 71q70 0 148 -13t132 -34q30 -11 54.5 -30.5t34.5 -43t10 -43.5q0 -37 -29 -79l-108 -130q-30 -31 -68 -79t-44 -55q55 22 136 40q35 8 66 8q70 0 88 -53q3 -12 3 -24q0 -90 -186 -133l-4 -1
q-75 -15 -139 -15q-79 0 -113 26q-32 25 -56 63t-24 69v4q0 3 1.5 10.5t10.5 30.5t39 66t61.5 82t65 78t38.5 45z" />
    <glyph glyph-name="braceleft" unicode="{" horiz-adv-x="365" 
d="M45 390q2 1 19.5 10t25.5 17q23 23 23 74q-1 13 -4.5 40.5t-3.5 39.5q0 34 16 59q9 20 27 39.5t39 25.5q22 7 50 7h64q7 -2 12 -7.5t5 -12.5l2 -21q-1 -10 -6.5 -18.5t-22 -16t-20.5 -9.5q-24 -11 -24 -40v-4q0 -12 5.5 -56t5.5 -65q0 -25 -10 -48.5t-46 -54.5l-3 -3
l3 -4q28 -22 41 -46q6 -9 12 -33q3 -13 3 -30q0 -9 -3 -27t-3 -20q-1 -9 -4 -61l-1 -13q0 -5 2.5 -15.5t21.5 -20.5q47 -17 49 -37l2 -27q0 -8 -4 -16.5t-10 -10.5l-18 -4l-37 -1q-40 0 -66 11q-18 9 -38 28t-28 37q-14 24 -14 58q0 12 2.5 36t2.5 32l1 19q0 45 -23 68
q-7 8 -45 27q-6 6 -10.5 20t-4.5 29q0 12 4 25t11 20z" />
    <glyph glyph-name="bar" unicode="|" horiz-adv-x="290" 
d="M171 711l11 -8q9 -7 17 -22.5t9 -29.5q4 -71 4 -122q0 -35 -2.5 -134t-2.5 -186l1 -145v-8q0 -23 -8.5 -43t-23.5 -27.5t-30 -7.5q-25 1 -38 8.5t-22 28.5q-4 9 -7 24.5t-3 59.5v485q0 67 9.5 104t41.5 37q23 0 44 -14z" />
    <glyph glyph-name="braceright" unicode="}" horiz-adv-x="353" 
d="M325 390q7 -7 11 -20t4 -25q0 -15 -4.5 -29t-10.5 -20q-2 -1 -19.5 -10t-25.5 -17q-23 -23 -23 -68l1 -19q0 -8 2.5 -32t2.5 -36q0 -34 -14 -58q-8 -18 -28 -37t-38 -28q-26 -11 -66 -11l-37 1l-18 4q-6 2 -10 10.5t-4 16.5v28q1 9 7 16t22.5 12.5t21.5 7.5q5 3 14.5 10
t9.5 26l-1 13q-3 52 -4 61q0 2 -3 20t-3 27q0 17 3 30q6 24 12 33q13 24 41 46l3 4l-3 3q-29 25 -42.5 47.5t-13.5 55.5q0 21 5.5 65t5.5 56v4q0 29 -24 40q-5 3 -19.5 9t-21.5 14t-8 21l2 21q0 7 5 12.5t12 7.5h64q28 0 50 -7q15 -4 34 -20.5t32 -44.5q16 -25 16 -59
q0 -12 -3.5 -39.5t-4.5 -40.5q0 -51 23 -74q7 -8 45 -27z" />
    <glyph glyph-name="asciitilde" unicode="~" horiz-adv-x="652" 
d="M403 358q19 0 39 6.5t53 31.5t49 25q18 0 32 -11.5t14 -26.5q0 -16 -9.5 -39t-19.5 -37q-21 -26 -50.5 -48t-57.5 -31t-48 -9q-38 0 -90 28t-71.5 32.5t-32.5 4.5t-29.5 -5t-49 -24t-45.5 -19q-17 0 -25 12.5t-8 31.5q0 17 12.5 46t34.5 54.5t54 38.5t66 13
q23 0 51.5 -11t73 -37t57.5 -26z" />
    <glyph glyph-name="exclamdown" unicode="&#xa1;" horiz-adv-x="364" 
d="M211 366q-19 -9 -42 -9q-32 0 -55.5 18.5t-23.5 48.5q0 20 11 40.5t37 32.5t56 12q25 0 48 -19t23 -47q0 -26 -15.5 -46.5t-38.5 -30.5zM279 -184q-8 -17 -27.5 -25t-44.5 -8q-23 0 -49 6t-41 15q-49 23 -67 86q-10 34 -10 83q0 77 22 166.5t45 126.5q35 56 76 56
q22 0 36 -10q28 -19 45 -65.5t17 -159.5l-2 -154l2 -42l1 -39v-10q0 -14 -3 -26z" />
    <glyph glyph-name="cent" unicode="&#xa2;" horiz-adv-x="569" 
d="M365 773l8 -10q9 -10 11 -66v-4q63 -3 109.5 -28.5t46.5 -72.5q0 -32 -9.5 -56t-24.5 -30q-8 -7 -28.5 -9t-51 -2h-39.5q0 -22 -1.5 -84t-2 -106.5t-0.5 -84.5l90 5h8q19 -1 37 -11.5t26 -28t8 -35.5q-1 -60 -41.5 -92.5t-126.5 -38.5v-7q0 -52 -8.5 -72.5t-37.5 -20.5
q-24 0 -34.5 15t-12 36.5t-1.5 46.5q-58 3 -106.5 27.5t-82.5 66t-52 95.5t-18 113q0 68 17 130t50.5 111t82 81.5t109.5 44.5q0 6 0.5 20.5t3.5 40t27 33.5q9 3 23.5 1t20.5 -8zM223 359q0 -39 17 -72t50 -51v232q-29 -20 -48 -50.5t-19 -58.5z" />
    <glyph glyph-name="sterling" unicode="&#xa3;" horiz-adv-x="582" 
d="M310 425q0 -4 48 -4h20q15 0 30.5 -5t25.5 -13q6 -5 10.5 -13.5t7.5 -35.5v-11q0 -49 -84 -51h-60q0 -22 -3.5 -49.5t-22.5 -64.5q25 -4 57 -4q30 0 81 5t59 5h6q38 -2 62 -23t24 -59q0 -34 -22.5 -60t-56.5 -34q-37 -9 -102 -9h-7q-171 0 -227 12q-9 2 -27.5 7t-35.5 23
q-7 7 -15.5 34.5t-8.5 40.5q0 21 10 33q25 41 33 60.5t11.5 41t4.5 30.5h-40q-49 2 -63 25q-8 11 -8 38q0 15 5 31.5t13 24.5q7 7 38 12.5t52 5.5l12 -2q0 3 6.5 64.5t14.5 93.5q6 31 27 60t63.5 47t90.5 18t92.5 -27t44.5 -71q0 -32 -15.5 -55.5t-43.5 -23.5q-15 0 -24.5 3
t-22 11.5t-24.5 8.5q-38 0 -38 -67v-7z" />
    <glyph glyph-name="currency" unicode="&#xa4;" horiz-adv-x="573" 
d="M44 541q31 44 68 44q16 0 31 -9.5t36 -41.5l18 -26q38 20 82 23q54 -2 96 -24q27 43 33 50t12 12.5t13 8.5q13 10 32.5 8t31.5 -10q19 -14 33 -34q10 -13 10 -27q0 -30 -56 -76l-4 -4l-19 -13q16 -34 16 -68l-1 -22q-5 -41 -21 -77l26 -18l5 -5q22 -19 38.5 -38t16.5 -38
q0 -13 -10 -26q-18 -23 -33 -32q-17 -11 -34 -11q-19 0 -36.5 15t-27.5 31l-3 4l-20 27q-36 -21 -82 -21l-18 1q-39 3 -79 21l-2 -3l-19 -27q-27 -34 -30 -37t-7 -6q-11 -6 -30 -6q-21 0 -35 10q-14 8 -33 32q-10 13 -10 27q0 10 8 26.5t49 50.5l3 3l14 11q-22 39 -22 82v10
q3 48 24 85l-14 11q-33 27 -46.5 46t-13.5 34q0 14 10 27zM282 276h5q45 0 53 58l1 10q0 58 -57 58h-5q-51 -4 -56 -57l1 -9q8 -64 58 -60z" />
    <glyph glyph-name="yen" unicode="&#xa5;" horiz-adv-x="554" 
d="M283 495l4 -6l4 3q2 2 7 10.5t35 66.5t52.5 87t37 38.5t25.5 9.5h9q31 0 51.5 -9.5t20.5 -35.5q0 -18 -11 -42q-34 -69 -138 -227h5l52 1q43 0 60 -7q16 -6 28 -19t12 -29q0 -31 -18 -60q-3 -4 -15 -8.5t-41.5 -7t-100.5 -3.5v-36h10l61 2q48 0 64 -8q16 -6 22 -41l1 -9
q0 -14 -8 -27.5t-20 -21.5q-11 -6 -31.5 -9t-57.5 -3.5t-47 -1.5l-3 -55l-1 -8q-1 -18 -15.5 -28.5t-50.5 -10.5h-14q-17 0 -35.5 4.5t-26.5 11.5q-7 6 -11.5 19.5t-5 38t-1.5 29.5q-16 -3 -38 -3l-62 1q-31 0 -51 4q-23 22 -23 49q0 22 5 40q1 9 18.5 15t77.5 7.5t73 1.5
q3 3 3 7v26h-15q-19 0 -42.5 1t-87.5 9l-9 1q-28 23 -28 62l1 21q0 30 33 31q10 1 32 2.5t40 2t38 0.5h23q-15 38 -60.5 126t-62.5 135q-6 18 -6 29q0 14 10 23.5t43 12.5h13q19 0 37 -4.5t28 -12.5q22 -26 61 -109.5t40 -85.5z" />
    <glyph glyph-name="brokenbar" unicode="&#xa6;" horiz-adv-x="293" 
d="M99 402q-4 4 -7.5 11t-6 19.5t-3.5 15.5l1 171q0 51 19 77q8 11 17.5 16t29.5 5h4q26 0 39 -15.5t16.5 -33t5.5 -54.5q2 -25 0.5 -74t-5.5 -86t-12 -48q-5 -7 -13 -15t-38 -10q-12 -1 -25.5 5.5t-21.5 15.5zM99 1q-4 4 -7.5 11.5t-6 21t-3.5 16.5l1 169q0 60 17 83
q12 17 59 17h5q24 -1 34 -14.5t12.5 -27.5t3 -32t0.5 -22l3 -148q-1 -50 -25 -72.5t-44 -22.5q-13 0 -27 6t-22 15z" />
    <glyph glyph-name="section" unicode="&#xa7;" horiz-adv-x="447" 
d="M377 664q7 -13 7 -36q0 -18 -6.5 -36t-18 -26t-22.5 -8q-12 0 -29.5 9t-28.5 9q-9 0 -14.5 -6t-5.5 -13q0 -3 3 -8q12 -20 67.5 -79t72.5 -94.5t21 -62.5l1 -13q0 -23 -7 -49.5t-24 -50.5t-33 -35q6 -26 6 -53q0 -43 -24 -74t-65.5 -48t-84.5 -17q-45 0 -92 19t-69 54
q-8 13 -8 36q0 26 21 47.5t47 21.5q3 0 8.5 -1.5t31.5 -13.5q20 -10 32 -10q18 0 18 26q-1 1 -4.5 4t-38 32t-55 53.5t-33 50.5t-12.5 56q0 54 25 96.5t27 46.5q-31 46 -31 86q0 66 48.5 105.5t124.5 39.5q27 0 61.5 -9t55.5 -23t28 -26zM263 263q9 9 9 25q0 18 -8.5 40
t-24.5 41t-44 47q-3 -7 -5.5 -19.5t-2.5 -20.5q0 -25 11 -45q14 -25 65 -68z" />
    <glyph glyph-name="dieresis" unicode="&#xa8;" horiz-adv-x="308" 
d="M36 487q12 4 28 4q28 0 46.5 -15t18.5 -46q0 -24 -15.5 -40.5t-49.5 -16.5q-30 0 -45.5 16t-15.5 36q0 47 33 62zM209 487q16 4 29 4q28 0 46 -15t18 -46q0 -24 -15.5 -40.5t-49.5 -16.5q-30 0 -45.5 16t-15.5 36q0 46 33 62z" />
    <glyph glyph-name="copyright" unicode="&#xa9;" horiz-adv-x="811" 
d="M393 2q-94 0 -160 31t-107.5 83t-61 117.5t-19.5 124.5q0 68 24 130.5t70.5 110.5t114.5 75.5t151 27.5q78 0 145 -27t114.5 -73.5t73.5 -105.5t26 -119q0 -67 -22 -137.5t-69.5 -123.5t-106.5 -79q-35 -15 -81 -25t-92 -10zM405 606q-72 0 -122.5 -29.5t-77.5 -72
t-38 -84t-11 -69.5q0 -48 18 -94t50.5 -81.5t78.5 -56.5t98 -21q36 0 77 13.5t82.5 51t63 92t21.5 107.5v10q0 39 -16.5 81t-48 76.5t-76.5 55.5t-99 21zM513 513q13 -10 21.5 -24t8.5 -39q0 -13 -6.5 -20.5t-20.5 -13.5q-10 -3 -20 -3q-13 0 -25 5q-5 1 -17.5 5.5t-22 6.5
t-18.5 2q-21 0 -41 -9.5t-30.5 -31t-10.5 -44.5q0 -21 10.5 -41t27 -28.5t31.5 -9.5h4q30 0 59 18t39 20.5t15 2.5l12 -1q11 -2 19.5 -11t8.5 -22t-2 -19q-5 -23 -26 -45t-58.5 -37t-71.5 -15q-48 0 -87.5 26t-58.5 71.5t-19 91.5q0 59 24 102t62 66t89 25h5q23 0 51.5 -7.5
t47.5 -20.5z" />
    <glyph glyph-name="ordfeminine" unicode="&#xaa;" horiz-adv-x="329" 
d="M220 400q-5 2 -12 8.5t-9 10.5q-20 -14 -37.5 -22t-43.5 -8q-43 0 -69.5 23t-26.5 58q0 31 17.5 57.5t57.5 40.5t84 15q0 18 -5.5 28.5t-22.5 10.5q-12 0 -36 -8.5t-33 -8.5q-14 0 -22.5 9.5t-8.5 26.5t15 31t43.5 21t52.5 7q41 0 71 -19t40 -49q7 -25 7 -62l-1 -24
l-1 -52q0 -36 14 -67q8 -14 8 -17q0 -9 -14 -14t-30 -5q-23 0 -38 9zM160 472q15 11 15 28q0 23 -16 23q-19 0 -34.5 -10t-15.5 -26q0 -8 7.5 -13.5t16.5 -6.5h8q10 0 19 5z" />
    <glyph glyph-name="guillemotleft" unicode="&#xab;" horiz-adv-x="849" 
d="M357 602q27 5 37 5q20 0 36 -6t23 -19.5t7 -27.5q0 -23 -11 -47.5t-33.5 -52t-64.5 -66.5t-52 -52l-12 -17q0 -2 1 -4t11 -12q6 -6 73 -65t82 -93q4 -11 4 -24q0 -36 -27 -68q-11 -12 -34 -12l-20 2q-18 4 -57.5 28t-128.5 99.5t-96 80.5q-32 24 -32 54q0 10 5.5 22
t10.5 17q5 4 18.5 17t121 122t138.5 119zM689 602q27 5 37 5q20 0 36 -6t23 -19.5t7 -27.5q0 -23 -11 -47.5t-33.5 -52t-64.5 -66.5t-52 -52l-12 -17q0 -2 1 -4t11 -12q6 -6 73 -65t82 -93q4 -11 4 -24q0 -36 -27 -68q-11 -12 -34 -12l-20 2q-18 4 -57 29t-126.5 104.5
t-98.5 87.5q-32 24 -32 54q0 10 5.5 22t10.5 17q11 10 105 100t127.5 115.5t45.5 29.5z" />
    <glyph glyph-name="logicalnot" unicode="&#xac;" horiz-adv-x="689" 
d="M70 397q11 7 43 7l199 2q72 0 139 -3l116 -6q37 -6 56 -28t19 -66q0 -119 -16 -158q-12 -20 -23 -30.5t-46 -10.5q-32 0 -59 16q-11 6 -17.5 18t-6.5 36l1 60l-1 18q-7 2 -240 2q-73 0 -108.5 5t-51.5 17t-23.5 32.5t-7.5 39.5q0 21 7.5 35t19.5 14z" />
    <glyph glyph-name="uni00AD" unicode="&#xad;" horiz-adv-x="624" 
d="M537 274q-4 -3 -11.5 -5.5t-21 -4.5t-16.5 -3l-269 -1l-32 -1q-58 0 -86 17q-14 8 -25.5 26t-11.5 46v4q2 15 15.5 29.5t39 23.5t47.5 9q29 0 70 1.5t101 1.5q166 0 192 -15l4 -2q12 -3 25 -20.5t13 -29.5q0 -27 -9 -47t-25 -29z" />
    <glyph glyph-name="registered" unicode="&#xae;" horiz-adv-x="473" 
d="M227 285q-63 0 -109.5 26t-72 77.5t-25.5 108.5q0 41 14.5 78t42 65.5t68 45t89.5 16.5q35 0 72 -11t72 -39.5t52.5 -67.5t17.5 -75q0 -41 -12.5 -82t-42 -73.5t-63.5 -47.5q-49 -21 -103 -21zM236 633q-43 0 -73.5 -17.5t-46.5 -50.5t-16 -72q0 -56 39 -96.5t93 -40.5
q26 0 56 14.5t53 50.5t23 72v10q0 22 -11 52.5t-41.5 54t-75.5 23.5zM269 487l2 -3l3 -3q34 -39 34 -55q0 -13 -8.5 -21.5t-24.5 -8.5l-11 2q-8 6 -17 26.5t-18 25.5l-3 1q-4 0 -5.5 -20t-7.5 -30t-19 -11h-7q-9 0 -15 10t-6 19l-2 55v68q0 23 19 42.5t50 19.5q30 0 49 -15
t19 -42q-4 -44 -32 -60zM214 552l-1 -9q0 -9 2.5 -17t4.5 -9q9 2 19 9t10 17q0 3 -3.5 10t-13.5 7q-4 0 -9.5 -2t-8.5 -6z" />
    <glyph glyph-name="macron" unicode="&#xaf;" horiz-adv-x="340" 
d="M310 533q-5 -3 -17.5 -5t-14.5 -2h-179l-22 -1q-37 0 -57 10q-17 9 -17 42q3 19 22 29.5t38 10.5l115 2q41 1 79.5 -1.5t47.5 -7.5l3 -1q8 -2 16.5 -13t8.5 -17q0 -33 -23 -46z" />
    <glyph glyph-name="degree" unicode="&#xb0;" horiz-adv-x="351" 
d="M187 699q50 -1 88.5 -26t53 -56t14.5 -58l-1 -17q-6 -44 -26.5 -78.5t-49.5 -52.5t-66 -18l-15 1q-22 2 -47.5 11t-48.5 26.5t-39.5 45t-16.5 62.5v8q4 61 49 104t105 48zM193 500q13 0 24 7t15 37l1 8q0 43 -42 43h-4q-17 -2 -28.5 -10t-14.5 -32l1 -8q3 -23 12 -34
t27 -11h9z" />
    <glyph glyph-name="plusminus" unicode="&#xb1;" horiz-adv-x="643" 
d="M539 358q-9 -7 -46 -12l-102 -1q-2 -120 -13 -141l-2 -4q-3 -9 -18 -18t-26 -9q-46 0 -66 32q-3 4 -5 11t-4 20t-3 16l-1 93h-34l-31 -1q-24 0 -50.5 4.5t-40.5 12.5q-12 7 -18.5 20t-6.5 40v4q4 30 26.5 42.5t70.5 12.5l84 2v34l-1 31q0 23 4.5 47t12.5 38
q7 12 20.5 18.5t40.5 6.5h4q30 -4 42.5 -26.5t12.5 -70.5q0 -24 2 -78q128 -2 149 -13l3 -2q12 -3 20 -18t8 -26q0 -46 -32 -65zM522 29q-6 -4 -24 -7t-19 -3l-255 -1l-28 -1q-22 0 -48 4t-39 11q-10 8 -16 19t-6 34v3q4 28 24.5 38.5t65.5 10.5q26 0 61.5 1.5t89.5 1.5
q63 0 123 -3t72 -10l4 -2q9 -2 17 -15t8 -24q0 -38 -30 -57z" />
    <glyph glyph-name="uni00B2" unicode="&#xb2;" horiz-adv-x="285" 
d="M279 442q0 -15 -13 -31t-27 -18q-65 -6 -107 -5h-6q-62 3 -77 19q-11 12 -11 41q0 10 7.5 24t53.5 56q53 48 53 69q0 6 -3.5 10t-8.5 3q-7 -1 -26 -19t-37 -18q-16 0 -22 3q-23 11 -23 35l1 11q6 24 24.5 44t45 28t51.5 8q22 0 47.5 -7.5t43 -28.5t17.5 -48
q0 -30 -17.5 -63t-70.5 -74l68 4q18 0 28 -11t9 -32z" />
    <glyph glyph-name="uni00B3" unicode="&#xb3;" horiz-adv-x="275" 
d="M202 570q64 -27 64 -89q-3 -46 -39 -76t-97 -30q-39 0 -70 18t-32 50q2 40 25 47l14 2q15 0 45 -15q16 -7 26 -7q26 0 27 16v4q0 9 -6 16.5t-26 18t-25 16.5l-2 5l1 3v2q0 8 3.5 17.5t14 23t12.5 16.5l-2 1q-12 0 -35 -5t-33 -5q-35 4 -35 48q0 14 10.5 23.5t24.5 13.5
q38 14 75 14q49 -3 70 -23t21 -41t-11.5 -40t-19.5 -24z" />
    <glyph glyph-name="acute" unicode="&#xb4;" horiz-adv-x="176" 
d="M110 683h10q25 0 37 -7q12 -6 12 -21q-1 -15 -20 -44.5t-52.5 -65.5t-46.5 -39l-13 -1q-15 1 -24 9t-9 19q0 9 4 19q10 28 28 64.5t36 54.5q12 12 38 12z" />
    <glyph glyph-name="uni00B5" unicode="&#xb5;" horiz-adv-x="663" 
d="M437 86q-3 42 -3 89l1 111v13q-2 -15 -21.5 -32.5t-41.5 -25.5t-37 -8q-20 0 -40.5 8t-35 24.5t-19.5 32.5q-10 -337 -12 -375t-3 -56q0 -20 -12.5 -42t-30.5 -32t-34 -10q-105 0 -105 113q-3 49 -3 88v45l1 202q0 135 7 278q0 8 0.5 36.5t3 45t7.5 25.5q10 22 25.5 31
t35.5 13l25 2q19 0 42.5 -9.5t36 -23.5t14.5 -27q17 -92 39.5 -136.5t58.5 -44.5q22 0 38 16.5t25.5 38t32 89t52.5 84.5q28 16 56 16q38 0 57 -22q8 -9 15 -29t7 -90l-2 -355v-7q0 -74 -22.5 -109t-71.5 -35h-6q-24 2 -42.5 10t-27 24t-10.5 34z" />
    <glyph glyph-name="paragraph" unicode="&#xb6;" horiz-adv-x="510" 
d="M396 698q17 -1 33.5 -12t24.5 -35t8 -54q-2 -49 -2 -177q0 -21 -0.5 -82t-1.5 -164.5t-1 -104.5v-3q0 -29 -15.5 -48t-38.5 -19h-11q-27 0 -38.5 19.5t-11.5 87.5l-1 138l-2 312q-1 13 -6 19.5t-13 6.5t-14.5 -6t-6.5 -14q-3 -108 -5 -287.5t-3 -188.5l-1 -23
q0 -30 -12.5 -45t-28.5 -18t-30 -3q-17 0 -28.5 8.5t-14.5 26.5q-1 5 -2 17.5t-1.5 39t-0.5 55.5v66v47q0 70 2 96q0 17 -23 24q-42 13 -70.5 36t-43 53.5t-14.5 71.5v7q1 26 13.5 56.5t36.5 52.5t51.5 31.5t54.5 11.5l79 2z" />
    <glyph glyph-name="periodcentered" unicode="&#xb7;" horiz-adv-x="222" 
d="M69 495q21 10 49 10q27 0 51.5 -13.5t35 -33t10.5 -36.5q0 -48 -34 -74t-82 -26q-21 0 -44.5 12.5t-34.5 31t-11 34.5q0 31 17 57t43 38z" />
    <glyph glyph-name="cedilla" unicode="&#xb8;" horiz-adv-x="272" 
d="M223 79v-4q-3 -6 -19.5 -27.5t-19.5 -25.5q36 -11 59.5 -35t23.5 -77q0 -50 -44.5 -85.5t-118.5 -35.5q-26 0 -51 5.5t-37.5 18t-12.5 28.5q0 14 10 31.5t25 22.5q11 5 23 5l14 -2q9 0 27 -8t27 -8q13 0 21 11.5t8 23.5q0 10 -5 19t-14 13t-33 10.5t-27 7.5q-9 4 -9 15
l1 9q3 17 24.5 49t38.5 48q4 3 19.5 5.5t36.5 1.5t29 -7q4 -3 4 -9z" />
    <glyph glyph-name="uni00B9" unicode="&#xb9;" horiz-adv-x="258" 
d="M180 381l-32 -2q-17 0 -28 7.5t-13 21.5v50q0 50 3 80q-9 -7 -25 -7q-13 0 -27.5 5t-20.5 13q-4 4 -4 9l2 9q12 28 35 63t43 57q11 11 35 14h10q21 0 37.5 -9.5t19.5 -26.5v-110q0 -69 -6 -130q-1 -17 -9.5 -29.5t-19.5 -14.5z" />
    <glyph glyph-name="ordmasculine" unicode="&#xba;" horiz-adv-x="336" 
d="M297 615q4 -13 8 -29t4 -49q0 -64 -40 -107t-105 -43q-69 0 -104.5 41t-35.5 114q0 37 13 69t37 52q17 13 42.5 22.5t51.5 9.5q49 0 81 -21.5t48 -58.5zM184 488q13 6 20.5 22.5t7.5 32.5q0 24 -10.5 40.5t-33.5 16.5q-21 0 -32 -18t-11 -41t9.5 -39.5t27.5 -16.5h4
q9 0 18 3z" />
    <glyph glyph-name="guillemotright" unicode="&#xbb;" horiz-adv-x="809" 
d="M477 602q12 -4 44.5 -30.5t123 -118t110.5 -109.5q5 -5 10.5 -17t5.5 -22q0 -30 -32 -54q-7 -5 -96 -80.5t-128.5 -99.5t-57.5 -28l-20 -2q-23 0 -34 12q-27 32 -27 68q0 13 4 24q15 34 82 93t73 65q1 1 6.5 6t5.5 10l-12 17q-10 13 -52.5 52t-64.5 66t-33 51.5t-11 46.5
q0 55 66 55q10 0 37 -5zM144 602q12 -4 45.5 -29.5t127.5 -115.5t105 -100q5 -5 10.5 -17t5.5 -22q0 -30 -32 -54q-11 -8 -98.5 -87.5t-126.5 -104.5t-57 -29l-20 -2q-23 0 -34 12q-27 32 -27 68q0 13 4 24q15 34 82 93t73 65q1 1 6.5 6t5.5 10l-12 17q-10 13 -52.5 52
t-64.5 66t-33 51.5t-11 46.5q0 55 66 55q10 0 37 -5z" />
    <glyph glyph-name="onequarter" unicode="&#xbc;" horiz-adv-x="1007" 
d="M629 719l14 2q16 0 35 -7.5t27.5 -19.5t7.5 -24l-1 -8q0 -40 -40 -107l-316 -526q-30 -48 -54 -65q-22 -15 -49 -15q-17 0 -34 7t-25 17q-5 4 -10 12t-5 13q0 9 6.5 29.5t24.5 49.5q86 138 198.5 330t172.5 281q7 11 22 20.5t26 10.5zM731 337q-7 -53 -33 -135l-5 -16
q1 -3 4.5 -8.5t19.5 -5.5h28q2 69 14 120q4 12 16 20t27 8q58 0 58 -67v-20l1 -37l-1 -16q35 -1 48 -3.5t19.5 -8.5t6.5 -20q-1 -22 -12 -42t-28 -29t-34 -9l-4 -106q-2 -9 -18.5 -14.5t-43.5 -5.5q-14 0 -28.5 5.5t-20.5 14.5q-5 18 -5 55v43q-7 0 -42 1.5t-63 7t-47 23.5
t-19 53q0 21 8.5 55.5t32.5 95.5t30 78q12 13 36 13q13 -1 24.5 -6t17.5 -13t8 -14t5 -17zM245 268q-11 -2 -38 -2q-26 0 -42.5 19t-16.5 74q0 74 4 113q-12 -9 -35 -9q-18 0 -35.5 6.5t-25.5 17.5q-6 8 -6 14l3 12q18 41 49.5 89t61.5 80q18 20 37 21h19q61 0 70 -51v-156
q0 -87 -8 -170q-2 -24 -12.5 -40.5t-24.5 -17.5z" />
    <glyph glyph-name="onehalf" unicode="&#xbd;" horiz-adv-x="930" 
d="M245 268q-11 -2 -38 -2h-3q-25 0 -40.5 19t-15.5 74q0 74 4 113q-12 -9 -35 -9q-18 0 -35.5 6.5t-25.5 17.5q-6 8 -6 14l3 12q18 41 49.5 89t61.5 80q18 20 37 21h19q61 0 70 -51v-156q0 -87 -8 -170q-2 -24 -12.5 -40.5t-24.5 -17.5zM632 719l14 2q15 0 34 -7
t27.5 -18.5t8.5 -22.5v-3l-1 -8q0 -40 -40 -107l-316 -526q-30 -48 -54 -65q-22 -15 -49 -15q-17 0 -34 7t-25 17q-5 4 -10 12t-5 13q0 9 6.5 29.5t24.5 49.5q86 138 198.5 330t172.5 281q7 11 22 20.5t26 10.5zM874 17q0 -22 -12 -41.5t-29 -22.5q-39 -3 -82 -3l-44 1
q-60 2 -76 8t-23 14q-3 4 -9 16.5t-6 37.5q0 20 15 42.5t61 62.5q65 58 65 92q0 8 -4.5 13t-11.5 5q-3 0 -9.5 -1t-12 -5.5t-21 -24t-37.5 -19.5q-13 0 -21 4q-14 7 -26.5 20.5t-12.5 29.5l1 15q8 31 34.5 58.5t57 38.5t53.5 11q29 0 62.5 -11t56 -40t22.5 -66
q0 -26 -11 -57.5t-39 -64.5t-68 -65l77 1q20 0 34.5 -13t15.5 -36z" />
    <glyph glyph-name="threequarters" unicode="&#xbe;" horiz-adv-x="995" 
d="M644 719l14 2q16 0 35 -7.5t27.5 -19.5t7.5 -24l-1 -8q0 -40 -40 -107l-316 -526q-30 -48 -54 -65q-22 -15 -49 -15q-17 0 -34 7t-25 17q-5 4 -10 12t-5 13q0 9 6.5 29.5t24.5 49.5q86 138 198.5 330t172.5 281q7 11 22 20.5t26 10.5zM731 337q-7 -53 -33 -135l-5 -16
q1 -3 4.5 -8.5t19.5 -5.5h28q2 69 14 120q4 12 16 20t27 8q58 0 58 -67v-20l1 -37l-1 -16q35 -1 48 -3.5t19.5 -8.5t6.5 -20q-1 -22 -12 -42t-28 -29t-34 -9l-4 -106q-2 -9 -18.5 -14.5t-43.5 -5.5q-14 0 -28.5 5.5t-20.5 14.5q-5 18 -5 55v43q-7 0 -42 1.5t-63 7t-47 23.5
t-19 53q0 21 8.5 55.5t32.5 95.5t30 78q12 13 36 13q13 -1 24.5 -6t17.5 -13t8 -14t5 -17zM262 531q79 -36 79 -119q-2 -26 -11 -49.5t-25 -42t-46.5 -33.5t-77.5 -15q-48 0 -86.5 23t-39.5 67v3q2 42 30 52q9 3 17 3q6 0 22.5 -3t32.5 -12q18 -8 32 -8q12 0 18.5 4t7.5 21
v5q0 17 -8.5 28t-31 21.5t-30.5 20.5l-1 7l1 3q0 8 4.5 20t16 32t13.5 23l-3 1h-3q-14 0 -34 -3.5t-32 -3.5h-4q-22 2 -32.5 18.5t-10.5 39.5q0 34 43 50q44 18 91 18q37 0 60.5 -12.5t35 -33t11.5 -41.5q0 -27 -14 -52.5t-25 -31.5z" />
    <glyph glyph-name="questiondown" unicode="&#xbf;" horiz-adv-x="574" 
d="M336 366q-19 -9 -42 -9q-32 0 -55.5 18.5t-23.5 48.5q0 20 11 40.5t37 32.5t56 12q25 0 48 -19t23 -47q0 -26 -15.5 -46.5t-38.5 -30.5zM284 -55q16 0 26.5 3.5t19.5 9t44 40.5l4 4q16 16 39 27.5t43 11.5q28 0 47.5 -20.5t19.5 -51.5q0 -19 -7 -39q-55 -153 -249 -153
q-41 0 -80.5 14t-70 40t-48.5 62t-18 77q0 52 21.5 92.5t69 82t59 58t14.5 29.5l8 31l5 16q3 9 14.5 19t33.5 14l14 1q27 0 50 -9.5t34 -26.5q8 -12 8 -24v-6q0 -42 -18 -83.5t-77 -99.5l-13 -13q-15 -15 -26.5 -34t-11.5 -34q0 -16 12 -27t33 -11z" />
    <glyph glyph-name="Agrave" unicode="&#xc0;" horiz-adv-x="554" 
d="M219 901h10q26 0 38 -12q14 -14 31.5 -46.5t32.5 -72.5q4 -10 4 -19q0 -11 -9 -19t-24 -9l-13 1q-10 2 -36 28t-53.5 63.5t-29.5 57.5q0 15 12 21q12 7 37 7zM521 285q0 -5 6 -59t6 -81q0 -43 -12 -75t-35.5 -49.5t-61.5 -17.5q-28 0 -46.5 17t-29 49t-14 92.5t-6.5 66.5
q-5 6 -20.5 10t-31.5 4t-31 -3.5t-17 -10.5q-3 -11 -6.5 -30.5t-5.5 -27.5q-1 -4 -9 -42t-18.5 -63.5t-28 -41.5t-43.5 -16q-28 0 -51.5 19.5t-36 62t-9.5 78.5q0 31 4.5 79t18 129t13.5 83q22 131 74 185.5t141 54.5q56 0 96.5 -20.5t67.5 -57t48 -99.5t38 -236zM279 537
q-19 0 -34.5 -36t-15.5 -74q0 -20 7.5 -32t38.5 -12h5q26 0 36.5 9.5t10.5 35.5q0 34 -13.5 71.5t-34.5 37.5z" />
    <glyph glyph-name="Aacute" unicode="&#xc1;" horiz-adv-x="554" 
d="M326 891h10q25 0 37 -7q12 -6 12 -21q-1 -15 -20 -44.5t-52.5 -65.5t-46.5 -39l-13 -1q-15 1 -24 9t-9 19q0 9 4 19q10 28 28 64.5t36 54.5q12 12 38 12zM521 285q0 -5 6 -59t6 -81q0 -43 -12 -75t-35.5 -49.5t-61.5 -17.5q-28 0 -46.5 17t-29 49t-14 92.5t-6.5 66.5
q-5 6 -20.5 10t-31.5 4t-31 -3.5t-17 -10.5q-3 -11 -6.5 -30.5t-5.5 -27.5q-1 -4 -9 -42t-18.5 -63.5t-28 -41.5t-43.5 -16q-28 0 -51.5 19.5t-36 62t-9.5 78.5q0 31 4.5 79t18 129t13.5 83q22 131 74 185.5t141 54.5q56 0 96.5 -20.5t67.5 -57t48 -99.5t38 -236zM279 537
q-19 0 -34.5 -36t-15.5 -74q0 -20 7.5 -32t38.5 -12h5q26 0 36.5 9.5t10.5 35.5q0 34 -13.5 71.5t-34.5 37.5z" />
    <glyph glyph-name="Acircumflex" unicode="&#xc2;" horiz-adv-x="554" 
d="M252 882l27 3q27 0 42 -11q67 -52 90 -79.5t25 -46.5q0 -20 -10 -31t-27 -11q-5 0 -12 1t-15 6.5t-21 16.5t-19 16l-47 37l-4 1l-5 -2q-10 -6 -39 -32t-44 -37q-7 -6 -28 -6q-14 0 -26 9t-14 20l-1 9q0 20 13 33q80 91 115 104zM521 285q0 -5 6 -59t6 -81q0 -43 -12 -75
t-35.5 -49.5t-61.5 -17.5q-28 0 -46.5 17t-29 49t-14 92.5t-6.5 66.5q-5 6 -20.5 10t-31.5 4t-31 -3.5t-17 -10.5q-3 -11 -6.5 -30.5t-5.5 -27.5q-1 -4 -9 -42t-18.5 -63.5t-28 -41.5t-43.5 -16q-28 0 -51.5 19.5t-36 62t-9.5 78.5q0 31 4.5 79t18 129t13.5 83
q22 131 74 185.5t141 54.5q56 0 96.5 -20.5t67.5 -57t48 -99.5t38 -236zM279 537q-19 0 -34.5 -36t-15.5 -74q0 -20 7.5 -32t38.5 -12h5q26 0 36.5 9.5t10.5 35.5q0 34 -13.5 71.5t-34.5 37.5z" />
    <glyph glyph-name="Atilde" unicode="&#xc3;" horiz-adv-x="554" 
d="M328 829q15 0 29.5 6t35 21.5t31.5 15.5q9 0 15 -3q7 -4 11 -14t4 -17q0 -11 -6 -26t-13 -24q-20 -26 -43.5 -41.5t-57.5 -15.5q-25 0 -64 20.5t-62 20.5q-19 0 -50.5 -15.5t-39.5 -15.5l-11 4q-11 4 -11 25q0 15 15.5 45.5t41.5 46.5t56 16q15 0 34 -7t47.5 -24.5
t37.5 -17.5zM521 285q0 -5 6 -59t6 -81q0 -43 -12 -75t-35.5 -49.5t-61.5 -17.5q-28 0 -46.5 17t-29 49t-14 92.5t-6.5 66.5q-5 6 -20.5 10t-31.5 4t-31 -3.5t-17 -10.5q-3 -11 -6.5 -30.5t-5.5 -27.5q-1 -4 -9 -42t-18.5 -63.5t-28 -41.5t-43.5 -16q-28 0 -51.5 19.5
t-36 62t-9.5 78.5q0 31 4.5 79t18 129t13.5 83q22 131 74 185.5t141 54.5q56 0 96.5 -20.5t67.5 -57t48 -99.5t38 -236zM279 537q-19 0 -34.5 -36t-15.5 -74q0 -20 7.5 -32t38.5 -12h5q26 0 36.5 9.5t10.5 35.5q0 34 -13.5 71.5t-34.5 37.5z" />
    <glyph glyph-name="Adieresis" unicode="&#xc4;" horiz-adv-x="554" 
d="M161 839q12 4 28 4q28 0 46.5 -15t18.5 -46q0 -24 -15.5 -40.5t-49.5 -16.5q-30 0 -45.5 16t-15.5 36q0 47 33 62zM334 839q16 4 29 4q28 0 46 -15t18 -46q0 -24 -15.5 -40.5t-49.5 -16.5q-30 0 -45.5 16t-15.5 36q0 46 33 62zM521 285q0 -5 6 -59t6 -81q0 -43 -12 -75
t-35.5 -49.5t-61.5 -17.5q-28 0 -46.5 17t-29 49t-14 92.5t-6.5 66.5q-5 6 -20.5 10t-31.5 4t-31 -3.5t-17 -10.5q-3 -11 -6.5 -30.5t-5.5 -27.5q-1 -4 -9 -42t-18.5 -63.5t-28 -41.5t-43.5 -16q-28 0 -51.5 19.5t-36 62t-9.5 78.5q0 31 4.5 79t18 129t13.5 83
q22 131 74 185.5t141 54.5q56 0 96.5 -20.5t67.5 -57t48 -99.5t38 -236zM279 537q-19 0 -34.5 -36t-15.5 -74q0 -20 7.5 -32t38.5 -12h5q26 0 36.5 9.5t10.5 35.5q0 34 -13.5 71.5t-34.5 37.5z" />
    <glyph glyph-name="Aring" unicode="&#xc5;" horiz-adv-x="554" 
d="M280 921q46 -1 76 -28t30 -65q0 -33 -14.5 -60.5t-38.5 -38.5t-46 -11q-23 0 -48.5 9t-43 33t-17.5 54v5q0 43 28.5 71t73.5 31zM280 786h3q12 0 21 10.5t9 24.5q0 16 -9.5 24.5t-21.5 8.5q-15 0 -23.5 -10.5t-8.5 -22.5q0 -13 8 -24t22 -11zM521 285q-17 173 -38 236
t-48 99.5t-67.5 57t-96.5 20.5q-89 0 -141 -54.5t-74 -185.5q-2 -12 -12.5 -74.5t-17 -116t-6.5 -100.5q-3 -36 9.5 -78.5t36 -62t51.5 -19.5q23 0 41 14t29.5 41.5t19.5 65.5t9 42q2 8 5.5 27.5t6.5 30.5q2 5 13.5 9.5t34.5 4.5q16 0 31.5 -4t20.5 -10q1 -2 2.5 -9.5
t4 -61.5t13.5 -87t29.5 -50t46.5 -17q38 0 61.5 17.5t35.5 49.5t12 75q0 27 -6 81t-6 59zM279 537q21 0 34.5 -37.5t13.5 -71.5q0 -26 -10.5 -35.5t-36.5 -9.5h-5q-25 0 -35.5 9t-10.5 35q0 38 15.5 74t34.5 36z" />
    <glyph glyph-name="AE" unicode="&#xc6;" horiz-adv-x="832" 
d="M539 421h47q63 -1 83.5 -6.5t30 -16t9.5 -27.5q0 -25 -9.5 -43t-25 -28.5t-38.5 -17t-58.5 -9.5t-41.5 -4l-1 -13q0 -26 12.5 -46.5t40.5 -25.5q15 -3 54 -3q19 0 57.5 4.5t55.5 4.5q27 0 44 -19.5t17 -44.5q0 -45 -30.5 -73t-79 -40t-102.5 -12q-36 0 -79 6t-79 23
t-55 41q-36 48 -50 156v1q-7 5 -29 9.5t-36 4.5q-16 0 -31 -3.5t-17 -10.5q-3 -11 -6.5 -30.5t-5.5 -27.5q-1 -4 -9 -42t-18.5 -63.5t-28 -41.5t-43.5 -16q-31 0 -53.5 22t-31.5 50t-11 49l1 46q0 30 4 76.5t30 207.5q28 165 106 215q17 11 46.5 18t57.5 7q41 0 92 -17
q38 -14 65 -45q8 9 18 15q29 19 88.5 33t119.5 14q62 0 105 -22q22 -9 35.5 -27.5t13.5 -56.5q0 -15 -2 -20q-2 -7 -9 -16t-22.5 -15.5t-33.5 -9.5t-102 -6.5t-94 -42.5q-3 -12 -3 -33zM279 537q-19 0 -34.5 -36t-15.5 -74q0 -20 7.5 -32t38.5 -12h5q26 0 36.5 9.5
t10.5 35.5q0 34 -13.5 71.5t-34.5 37.5z" />
    <glyph glyph-name="Ccedilla" unicode="&#xc7;" horiz-adv-x="621" 
d="M523 643q54 -42 54 -94q0 -38 -22 -61t-61 -23q-19 0 -46 9q-4 1 -37 14t-59 13q-47 0 -77.5 -21t-45 -56.5t-14.5 -76.5q0 -31 14.5 -64t44 -53.5t64.5 -21.5q54 -2 102.5 30.5t64 36.5t26.5 4l20 -1q20 -4 34 -19.5t14 -40.5q0 -19 -4 -35q-13 -60 -66 -103t-119 -60
l-34 -43q36 -11 59.5 -35t23.5 -77q0 -50 -44.5 -85.5t-118.5 -35.5q-26 0 -51 5.5t-37.5 18t-12.5 28.5q0 14 10 31.5t25 22.5q11 5 23 5l14 -2q9 0 27 -8t27 -8q13 0 21 11.5t8 23.5q0 10 -5 19t-14 13t-33 10.5t-27 7.5q-9 4 -9 15l1 9q1 7 10 25t25 41q-59 8 -109 38.5
t-84.5 77t-53 104t-18.5 116.5q0 33 7 75.5t26.5 86.5t49.5 79.5t70.5 60.5t82 34.5t75.5 10.5q32 1 68.5 -6t65 -20t45.5 -26z" />
    <glyph glyph-name="Egrave" unicode="&#xc8;" horiz-adv-x="521" 
d="M212 885h10q26 0 38 -12q14 -14 31.5 -46.5t32.5 -72.5q4 -10 4 -19q0 -11 -9 -19t-24 -9l-13 1q-10 2 -36 28t-53.5 63.5t-29.5 57.5q0 15 12 21q12 7 37 7zM228 421h47q63 -1 83.5 -6.5t30 -16t9.5 -27.5q0 -25 -9.5 -43t-25 -28.5t-38.5 -17t-58.5 -9.5t-41.5 -4v-13
q0 -26 12 -46.5t40 -25.5q15 -3 54 -3q19 0 57.5 4.5t55.5 4.5q27 0 44 -19.5t17 -44.5q0 -45 -30.5 -73t-79 -40t-102.5 -12q-36 0 -79 6t-79 23t-55 41q-14 18 -27 54t-20.5 92t-7.5 114q0 74 13.5 140.5t36 112t55.5 67.5q30 19 85.5 33t114.5 14q47 0 84 -11t57.5 -33
t20.5 -57q0 -20 -2 -25q-2 -7 -9 -16t-22.5 -15.5t-33.5 -9.5t-102 -6.5t-94 -42.5q-3 -12 -3 -33z" />
    <glyph glyph-name="Eacute" unicode="&#xc9;" horiz-adv-x="521" 
d="M350 887h10q25 0 37 -7q12 -6 12 -21q-1 -15 -20 -44.5t-52.5 -65.5t-46.5 -39l-13 -1q-15 1 -24 9t-9 19q0 9 4 19q10 28 28 64.5t36 54.5q12 12 38 12zM228 421h47q63 -1 83.5 -6.5t30 -16t9.5 -27.5q0 -25 -9.5 -43t-25 -28.5t-38.5 -17t-58.5 -9.5t-41.5 -4v-13
q0 -26 12 -46.5t40 -25.5q15 -3 54 -3q19 0 57.5 4.5t55.5 4.5q27 0 44 -19.5t17 -44.5q0 -45 -30.5 -73t-79 -40t-102.5 -12q-36 0 -79 6t-79 23t-55 41q-14 18 -27 54t-20.5 92t-7.5 114q0 74 13.5 140.5t36 112t55.5 67.5q30 19 85.5 33t114.5 14q47 0 84 -11t57.5 -33
t20.5 -57q0 -20 -2 -25q-2 -7 -9 -16t-22.5 -15.5t-33.5 -9.5t-102 -6.5t-94 -42.5q-3 -12 -3 -33z" />
    <glyph glyph-name="Ecircumflex" unicode="&#xca;" horiz-adv-x="521" 
d="M267 883l27 3q27 0 42 -11q67 -52 90 -79.5t25 -46.5q0 -20 -10 -31t-27 -11q-5 0 -12 1t-15 6.5t-21 16.5t-19 16l-47 37l-4 1l-5 -2q-10 -6 -39 -32t-44 -37q-7 -6 -28 -6q-14 0 -26 9t-14 20l-1 9q0 20 13 33q80 91 115 104zM228 421h47q63 -1 83.5 -6.5t30 -16
t9.5 -27.5q0 -25 -9.5 -43t-25 -28.5t-38.5 -17t-58.5 -9.5t-41.5 -4v-13q0 -26 12 -46.5t40 -25.5q15 -3 54 -3q19 0 57.5 4.5t55.5 4.5q27 0 44 -19.5t17 -44.5q0 -45 -30.5 -73t-79 -40t-102.5 -12q-36 0 -79 6t-79 23t-55 41q-14 18 -27 54t-20.5 92t-7.5 114
q0 74 13.5 140.5t36 112t55.5 67.5q30 19 85.5 33t114.5 14q47 0 84 -11t57.5 -33t20.5 -57q0 -20 -2 -25q-2 -7 -9 -16t-22.5 -15.5t-33.5 -9.5t-102 -6.5t-94 -42.5q-3 -12 -3 -33z" />
    <glyph glyph-name="Edieresis" unicode="&#xcb;" horiz-adv-x="521" 
d="M173 833q12 4 28 4q28 0 46.5 -15t18.5 -46q0 -24 -15.5 -40.5t-49.5 -16.5q-30 0 -45.5 16t-15.5 36q0 47 33 62zM346 833q16 4 29 4q28 0 46 -15t18 -46q0 -24 -15.5 -40.5t-49.5 -16.5q-30 0 -45.5 16t-15.5 36q0 46 33 62zM228 421h47q63 -1 83.5 -6.5t30 -16
t9.5 -27.5q0 -25 -9.5 -43t-25 -28.5t-38.5 -17t-58.5 -9.5t-41.5 -4v-13q0 -26 12 -46.5t40 -25.5q15 -3 54 -3q19 0 57.5 4.5t55.5 4.5q27 0 44 -19.5t17 -44.5q0 -45 -30.5 -73t-79 -40t-102.5 -12q-36 0 -79 6t-79 23t-55 41q-14 18 -27 54t-20.5 92t-7.5 114
q0 74 13.5 140.5t36 112t55.5 67.5q30 19 85.5 33t114.5 14q47 0 84 -11t57.5 -33t20.5 -57q0 -20 -2 -25q-2 -7 -9 -16t-22.5 -15.5t-33.5 -9.5t-102 -6.5t-94 -42.5q-3 -12 -3 -33z" />
    <glyph glyph-name="Igrave" unicode="&#xcc;" horiz-adv-x="349" 
d="M112 887h10q26 0 38 -12q14 -14 31.5 -46.5t32.5 -72.5q4 -10 4 -19q0 -11 -9 -19t-24 -9l-13 1q-10 2 -36 28t-53.5 63.5t-29.5 57.5q0 15 12 21q12 7 37 7zM264 525l-1 -93v-98l-4 -157q0 -21 14 -28q28 -14 36.5 -26t8.5 -43q0 -34 -13 -50.5t-30 -20.5
q-25 -6 -124 -6q-69 0 -95.5 12.5t-26.5 60.5q0 47 22 59q37 20 38 36l1 219l2 75q0 43 -6 60q-6 18 -31 27q-14 5 -20.5 21.5t-6.5 36.5q0 33 10 50q9 16 37 25.5t87 9.5h23q72 0 104.5 -15t34.5 -54v-11q0 -23 -9 -41.5t-39 -30.5q-10 -4 -12 -18z" />
    <glyph glyph-name="Iacute" unicode="&#xcd;" horiz-adv-x="349" 
d="M264 525l-1 -93v-98l-4 -157q0 -11 4 -18t17 -13.5t17 -10.5q11 -11 16 -24t5 -31q0 -34 -13 -50.5t-30 -20.5q-25 -6 -124 -6q-69 0 -95.5 12.5t-26.5 60.5q0 47 22 59q37 20 38 36l1 219l2 75q0 43 -6 60q-6 18 -31 27q-14 5 -20.5 21.5t-6.5 36.5q0 33 10 50
q9 16 37 25.5t87 9.5h23q72 0 104.5 -15t34.5 -54v-11q0 -23 -9 -41.5t-39 -30.5q-10 -4 -12 -18zM223 894h10q25 0 37 -7q12 -6 12 -21q-1 -15 -20 -44.5t-52.5 -65.5t-46.5 -39l-13 -1q-15 1 -24 9t-9 19q0 9 4 19q10 28 28 64.5t36 54.5q12 12 38 12z" />
    <glyph glyph-name="Icircumflex" unicode="&#xce;" horiz-adv-x="365" 
d="M156 891l27 3q27 0 42 -11q67 -52 90 -79.5t25 -46.5q0 -20 -10 -31t-27 -11q-5 0 -12 1t-15 6.5t-21 16.5t-19 16l-47 37l-4 1l-5 -2q-10 -6 -39 -32t-44 -37q-7 -6 -28 -6q-14 0 -26 9t-14 20l-1 9q0 20 13 33q80 91 115 104zM264 525l-1 -93v-98l-4 -157q0 -21 14 -28
q28 -14 36.5 -26t8.5 -43q0 -34 -13 -50.5t-30 -20.5q-25 -6 -124 -6q-69 0 -95.5 12.5t-26.5 60.5q0 47 22 59q37 20 38 36l1 219l2 75q0 43 -6 60q-6 18 -31 27q-14 5 -20.5 21.5t-6.5 36.5q0 33 10 50q9 16 37 25.5t87 9.5h23q72 0 104.5 -15t34.5 -54v-11
q0 -23 -9 -41.5t-39 -30.5q-10 -4 -12 -18z" />
    <glyph glyph-name="Idieresis" unicode="&#xcf;" horiz-adv-x="352" 
d="M61 844q12 4 28 4q28 0 46.5 -15t18.5 -46q0 -24 -15.5 -40.5t-49.5 -16.5q-30 0 -45.5 16t-15.5 36q0 47 33 62zM234 844q16 4 29 4q28 0 46 -15t18 -46q0 -24 -15.5 -40.5t-49.5 -16.5q-30 0 -45.5 16t-15.5 36q0 46 33 62zM264 525l-1 -93v-98l-4 -157q0 -21 14 -28
q28 -14 36.5 -26t8.5 -43q0 -34 -13 -50.5t-30 -20.5q-25 -6 -124 -6q-69 0 -95.5 12.5t-26.5 60.5q0 47 22 59q37 20 38 36l1 219l2 75q0 43 -6 60q-6 18 -31 27q-14 5 -20.5 21.5t-6.5 36.5q0 33 10 50q9 16 37 25.5t87 9.5h23q72 0 104.5 -15t34.5 -54v-11
q0 -23 -9 -41.5t-39 -30.5q-10 -4 -12 -18z" />
    <glyph glyph-name="Eth" unicode="&#xd0;" horiz-adv-x="631" 
d="M128 681q56 16 114 16q49 0 101 -11t85 -32q88 -54 132 -134.5t44 -180.5q0 -74 -21.5 -136t-63.5 -107t-104.5 -69.5t-140.5 -24.5q-102 0 -143 33t-44 105v173h-3q-42 0 -63 10q-9 4 -17.5 15t-8.5 29v2q3 18 26.5 28t46.5 10h19v209l-1 9q0 34 42 56zM303 504h-7
q-3 0 -13 -2.5t-17 -11.5v-82q55 -4 65 -8l3 -2q8 -1 17.5 -12t9.5 -18q0 -33 -25 -46q-1 -1 -4 -2t-31 -6h-35v-89q11 -10 26 -10q22 0 47 14.5t43 51.5t18 81q0 39 -14.5 72.5t-35.5 51.5t-47 18z" />
    <glyph glyph-name="Ntilde" unicode="&#xd1;" horiz-adv-x="665" 
d="M232 340l-1 -41q-5 -172 -16 -236q-2 -11 -12.5 -25.5t-30.5 -25.5t-37 -11l-6 1q-90 12 -90 315v42q0 89 15 213q5 38 24 64t39.5 34.5t34.5 8.5q78 0 137 -82q18 -25 81 -133.5t79 -132.5v12l-4 75q0 104 10.5 156.5t35 77.5t60.5 25q15 0 32 -10.5t23 -27.5
q20 -36 20 -219v-20q0 -101 -14.5 -192.5t-42.5 -155.5q-12 -20 -35.5 -32.5t-47.5 -12.5q-27 1 -55 22.5t-59 64t-78.5 133.5t-61.5 113zM401 814q15 0 29.5 6t35 21.5t31.5 15.5q9 0 15 -3q7 -4 11 -14t4 -17q0 -11 -6 -26t-13 -24q-20 -26 -43.5 -41.5t-57.5 -15.5
q-25 0 -64 20.5t-62 20.5q-19 0 -50.5 -15.5t-39.5 -15.5l-11 4q-11 4 -11 25q0 15 15.5 45.5t41.5 46.5t56 16q15 0 34 -7t47.5 -24.5t37.5 -17.5z" />
    <glyph glyph-name="Ograve" unicode="&#xd2;" horiz-adv-x="654" 
d="M261 895h10q26 0 38 -12q14 -14 31.5 -46.5t32.5 -72.5q4 -10 4 -19q0 -11 -9 -19t-24 -9l-13 1q-10 2 -36 28t-53.5 63.5t-29.5 57.5q0 15 12 21q12 7 37 7zM573 563q48 -77 48 -216q0 -66 -17.5 -128t-53 -111t-92 -77.5t-129.5 -28.5q-78 0 -135.5 26.5t-92.5 74
t-51 111.5t-16 139q0 70 19.5 133t57.5 110t94.5 73.5t125.5 26.5q37 0 83.5 -12t89 -44.5t69.5 -76.5zM431 353q1 33 -5 70.5t-28.5 62t-64.5 24.5q-27 0 -50.5 -16t-36 -56t-12.5 -88q0 -39 11.5 -75.5t32 -58t51.5 -21.5q14 0 33 6t34 25t24.5 51t10.5 76z" />
    <glyph glyph-name="Oacute" unicode="&#xd3;" horiz-adv-x="654" 
d="M400 897h10q25 0 37 -7q12 -6 12 -21q-1 -15 -20 -44.5t-52.5 -65.5t-46.5 -39l-13 -1q-15 1 -24 9t-9 19q0 9 4 19q10 28 28 64.5t36 54.5q12 12 38 12zM573 563q48 -77 48 -216q0 -66 -17.5 -128t-53 -111t-92 -77.5t-129.5 -28.5q-78 0 -135.5 26.5t-92.5 74
t-51 111.5t-16 139q0 70 19.5 133t57.5 110t94.5 73.5t125.5 26.5q37 0 83.5 -12t89 -44.5t69.5 -76.5zM431 353q1 33 -5 70.5t-28.5 62t-64.5 24.5q-27 0 -50.5 -16t-36 -56t-12.5 -88q0 -39 11.5 -75.5t32 -58t51.5 -21.5q14 0 33 6t34 25t24.5 51t10.5 76z" />
    <glyph glyph-name="Ocircumflex" unicode="&#xd4;" horiz-adv-x="654" 
d="M312 885l27 3q27 0 42 -11q67 -52 90 -79.5t25 -46.5q0 -20 -10 -31t-27 -11q-5 0 -12 1t-15 6.5t-21 16.5t-19 16l-47 37l-4 1l-5 -2q-10 -6 -39 -32t-44 -37q-7 -6 -28 -6q-14 0 -26 9t-14 20l-1 9q0 20 13 33q80 91 115 104zM573 563q48 -77 48 -216q0 -66 -17.5 -128
t-53 -111t-92 -77.5t-129.5 -28.5q-78 0 -135.5 26.5t-92.5 74t-51 111.5t-16 139q0 70 19.5 133t57.5 110t94.5 73.5t125.5 26.5q37 0 83.5 -12t89 -44.5t69.5 -76.5zM431 353q1 33 -5 70.5t-28.5 62t-64.5 24.5q-27 0 -50.5 -16t-36 -56t-12.5 -88q0 -39 11.5 -75.5
t32 -58t51.5 -21.5q14 0 33 6t34 25t24.5 51t10.5 76z" />
    <glyph glyph-name="Otilde" unicode="&#xd5;" horiz-adv-x="654" 
d="M395 829q15 0 29.5 6t35 21.5t31.5 15.5q9 0 15 -3q7 -4 11 -14t4 -17q0 -11 -6 -26t-13 -24q-20 -26 -43.5 -41.5t-57.5 -15.5q-25 0 -64 20.5t-62 20.5q-19 0 -50.5 -15.5t-39.5 -15.5l-11 4q-11 4 -11 25q0 15 15.5 45.5t41.5 46.5t56 16q15 0 34 -7t47.5 -24.5
t37.5 -17.5zM573 563q48 -77 48 -216q0 -66 -17.5 -128t-53 -111t-92 -77.5t-129.5 -28.5q-78 0 -135.5 26.5t-92.5 74t-51 111.5t-16 139q0 70 19.5 133t57.5 110t94.5 73.5t125.5 26.5q37 0 83.5 -12t89 -44.5t69.5 -76.5zM431 353q1 33 -5 70.5t-28.5 62t-64.5 24.5
q-27 0 -50.5 -16t-36 -56t-12.5 -88q0 -39 11.5 -75.5t32 -58t51.5 -21.5q14 0 33 6t34 25t24.5 51t10.5 76z" />
    <glyph glyph-name="Odieresis" unicode="&#xd6;" horiz-adv-x="654" 
d="M221 844q12 4 28 4q28 0 46.5 -15t18.5 -46q0 -24 -15.5 -40.5t-49.5 -16.5q-30 0 -45.5 16t-15.5 36q0 47 33 62zM394 844q16 4 29 4q28 0 46 -15t18 -46q0 -24 -15.5 -40.5t-49.5 -16.5q-30 0 -45.5 16t-15.5 36q0 46 33 62zM573 563q48 -77 48 -216q0 -66 -17.5 -128
t-53 -111t-92 -77.5t-129.5 -28.5q-78 0 -135.5 26.5t-92.5 74t-51 111.5t-16 139q0 70 19.5 133t57.5 110t94.5 73.5t125.5 26.5q37 0 83.5 -12t89 -44.5t69.5 -76.5zM431 353q1 33 -5 70.5t-28.5 62t-64.5 24.5q-27 0 -50.5 -16t-36 -56t-12.5 -88q0 -39 11.5 -75.5
t32 -58t51.5 -21.5q14 0 33 6t34 25t24.5 51t10.5 76z" />
    <glyph glyph-name="multiply" unicode="&#xd7;" horiz-adv-x="547" 
d="M37 480q-6 11 -6 34q0 20 22 39q5 4 13.5 8t14.5 4q16 0 40 -7q15 -4 61 -44t87 -82q39 43 87 85t65 47l7 2q11 4 27 4h9q22 -2 32.5 -19t10.5 -44l-1 -16v-5q-3 -16 -29 -53l-106 -109q10 -10 41.5 -40.5t46.5 -46.5l6 -8l3 -3q3 -4 21 -22.5t26.5 -34t8.5 -31.5
q0 -6 -5 -18.5t-11 -20.5q-7 -9 -22.5 -15.5t-30.5 -6.5l-17 2q-16 4 -33.5 15t-36 27.5t-39 38t-23.5 24.5l-35 35l-29 -31q-2 -2 -31.5 -34.5t-53 -50.5t-45.5 -24q-13 -5 -26 -5q-12 0 -25 8t-20 19q-16 18 -16 34q1 17 11.5 35.5t30.5 41t21 24.5q8 10 81 85l-103 105
q-20 30 -24 39.5t-5 14.5z" />
    <glyph glyph-name="Oslash" unicode="&#xd8;" horiz-adv-x="654" 
d="M573 563q48 -77 48 -216q0 -66 -17.5 -128t-53 -111t-92 -77.5t-129.5 -28.5q-80 0 -141 28q-26 -44 -46 -58q-18 -12 -40 -12q-29 0 -29 33q0 9 4.5 22t23.5 44l15 25q-20 22 -40 59.5t-31 92.5t-11 117q0 70 19.5 133t57.5 110t94.5 73.5t125.5 26.5q35 0 71 -9t65 -24
l12 18q25 35 40 37q9 3 17 3q13 0 23 -7.5t10 -17.5v-1l-2 -14q0 -11 -32 -69q21 -21 38 -49zM431 353q0 43 -4 71l-133 -221q6 -3 17 -5.5t18 -2.5q14 0 33 6t34 25t24.5 51t10.5 76zM240 291l128 214q-17 5 -35 5q-27 0 -50.5 -16t-36 -56t-12.5 -88q0 -29 6 -59z" />
    <glyph glyph-name="Ugrave" unicode="&#xd9;" 
d="M244 883h10q26 0 38 -12q14 -14 31.5 -46.5t32.5 -72.5q4 -10 4 -19q0 -11 -9 -19t-24 -9l-13 1q-10 2 -36 28t-53.5 63.5t-29.5 57.5q0 15 12 21q12 7 37 7zM254 312q-1 -41 11.5 -65t30.5 -24q21 0 37.5 23.5t23.5 97.5q2 17 6 107t10 116q10 41 29.5 61t59.5 20
q29 0 46.5 -16t30.5 -45q26 -59 26 -230q0 -54 -13 -111.5t-35 -97.5q-41 -72 -99.5 -111t-129.5 -39q-44 0 -87 15.5t-76 50t-54.5 84t-29.5 113.5q-11 82 -11 212q0 79 7 123q3 23 19 46.5t47 38t65 14.5l26 -2q18 -4 34 -19t24 -45t8 -66q0 -21 -3.5 -108.5t-2.5 -142.5z
" />
    <glyph glyph-name="Uacute" unicode="&#xda;" 
d="M368 883h10q25 0 37 -7q12 -6 12 -21q-1 -15 -20 -44.5t-52.5 -65.5t-46.5 -39l-13 -1q-15 1 -24 9t-9 19q0 9 4 19q10 28 28 64.5t36 54.5q12 12 38 12zM254 312q-1 -41 11.5 -65t30.5 -24q21 0 37.5 23.5t23.5 97.5q2 17 6 107t10 116q10 41 29.5 61t59.5 20
q29 0 46.5 -16t30.5 -45q26 -59 26 -230q0 -54 -13 -111.5t-35 -97.5q-41 -72 -99.5 -111t-129.5 -39q-44 0 -87 15.5t-76 50t-54.5 84t-29.5 113.5q-11 82 -11 212q0 79 7 123q3 23 19 46.5t47 38t65 14.5l26 -2q18 -4 34 -19t24 -45t8 -66q0 -21 -3.5 -108.5t-2.5 -142.5z
" />
    <glyph glyph-name="Ucircumflex" unicode="&#xdb;" 
d="M279 882l27 3q27 0 42 -11q67 -52 90 -79.5t25 -46.5q0 -20 -10 -31t-27 -11q-5 0 -12 1t-15 6.5t-21 16.5t-19 16l-47 37l-4 1l-5 -2q-10 -6 -39 -32t-44 -37q-7 -6 -28 -6q-14 0 -26 9t-14 20l-1 9q0 20 13 33q80 91 115 104zM254 312q-1 -41 11.5 -65t30.5 -24
q21 0 37.5 23.5t23.5 97.5q2 17 6 107t10 116q10 41 29.5 61t59.5 20q29 0 46.5 -16t30.5 -45q26 -59 26 -230q0 -54 -13 -111.5t-35 -97.5q-41 -72 -99.5 -111t-129.5 -39q-44 0 -87 15.5t-76 50t-54.5 84t-29.5 113.5q-11 82 -11 212q0 79 7 123q3 23 19 46.5t47 38
t65 14.5l26 -2q18 -4 34 -19t24 -45t8 -66q0 -21 -3.5 -108.5t-2.5 -142.5z" />
    <glyph glyph-name="Udieresis" unicode="&#xdc;" 
d="M189 838q12 4 28 4q28 0 46.5 -15t18.5 -46q0 -24 -15.5 -40.5t-49.5 -16.5q-30 0 -45.5 16t-15.5 36q0 47 33 62zM362 838q16 4 29 4q28 0 46 -15t18 -46q0 -24 -15.5 -40.5t-49.5 -16.5q-30 0 -45.5 16t-15.5 36q0 46 33 62zM254 312q-1 -41 11.5 -65t30.5 -24
q21 0 37.5 23.5t23.5 97.5q2 17 6 107t10 116q10 41 29.5 61t59.5 20q29 0 46.5 -16t30.5 -45q26 -59 26 -230q0 -54 -13 -111.5t-35 -97.5q-41 -72 -99.5 -111t-129.5 -39q-44 0 -87 15.5t-76 50t-54.5 84t-29.5 113.5q-11 82 -11 212q0 79 7 123q3 23 19 46.5t47 38
t65 14.5l26 -2q18 -4 34 -19t24 -45t8 -66q0 -21 -3.5 -108.5t-2.5 -142.5z" />
    <glyph glyph-name="Yacute" unicode="&#xdd;" horiz-adv-x="628" 
d="M385 881h10q25 0 37 -7q12 -6 12 -21q-1 -15 -20 -44.5t-52.5 -65.5t-46.5 -39l-13 -1q-15 1 -24 9t-9 19q0 9 4 19q10 28 28 64.5t36 54.5q12 12 38 12zM27 596l-2 25q0 54 48 67q23 6 49 6q28 0 52.5 -10t39.5 -29q14 -19 29 -46.5t40.5 -81.5t38.5 -73l58 98
q2 3 28.5 51.5t56.5 68.5t75 20q81 0 81 -61q0 -44 -20 -91q-7 -16 -21 -44.5t-66 -121.5q-16 -28 -55 -97.5t-66 -114.5q-1 -2 -28 -47t-49 -70.5t-48 -37t-56 -11.5q-17 0 -34.5 9.5t-27.5 31t-10 44.5v10q1 18 11.5 45t35.5 75.5t30 64.5l-89 122q-54 75 -74.5 118
t-26.5 80z" />
    <glyph glyph-name="Thorn" unicode="&#xde;" horiz-adv-x="598" 
d="M65 703q24 8 57 8t60 -7t43 -23t16 -61l1 -25q25 5 60 5q70 0 121.5 -16t86.5 -46t50.5 -73.5t15.5 -90.5q0 -123 -70 -195t-190 -72q-48 0 -92 12q3 -55 2 -79q-1 -30 -31 -37q-35 -8 -82 -8q-22 0 -39.5 14.5t-19.5 34.5q-8 47 -8 227q0 312 6 407q1 17 13 25zM389 370
v5q0 14 -11.5 29.5t-41 25.5t-66.5 10q-16 0 -31 -3q-3 -24 -3 -61l1 -66v-12q12 -3 35 -3q46 0 81.5 19.5t35.5 55.5z" />
    <glyph glyph-name="germandbls" unicode="&#xdf;" horiz-adv-x="625" 
d="M415 383l1 -1q89 -20 138 -72t49 -132q0 -41 -18.5 -78t-50.5 -62q-26 -20 -62 -29.5t-114 -9.5q-24 0 -50.5 11.5t-39.5 29t-13 36.5q0 62 55 67h7q28 1 46 22t18 46q0 32 -51 67q-4 3 -30.5 19t-38 35t-11.5 46q0 24 24 63t24 62q0 17 -8.5 24.5t-20.5 7.5
q-42 0 -52 -57q-7 -37 -7 -230q0 -120 7 -172v-5q-1 -16 -10 -32t-26.5 -26t-34.5 -12h-37q-24 0 -44 17t-22 42l-1 11q0 5 -1 21t-5.5 103t-4.5 119v17q0 149 25.5 226t77 110.5t124.5 33.5q33 0 71.5 -9t70 -30t50.5 -55t19 -79q0 -18 -3.5 -40.5t-13 -45t-23.5 -40.5
t-14 -19z" />
    <glyph glyph-name="agrave" unicode="&#xe0;" horiz-adv-x="588" 
d="M249 896h10q26 0 38 -12q14 -14 31.5 -46.5t32.5 -72.5q4 -10 4 -19q0 -11 -9 -19t-24 -9l-13 1q-10 2 -36 28t-53.5 63.5t-29.5 57.5q0 15 12 21q12 7 37 7zM420 22q-10 6 -24.5 20.5t-18.5 24.5q-55 -39 -87 -51t-78 -12q-37 0 -72 14t-61 39.5t-41 60t-15 72.5
q0 32 10 69t35.5 69.5t66.5 58.5t97 40t111 14q-1 53 -16.5 70t-42.5 17q-26 0 -73.5 -19.5t-67.5 -19.5q-29 0 -45.5 19.5t-16.5 57.5q0 25 14.5 46t43 38.5t78.5 30.5t95 13q78 0 134 -40t75 -108q16 -53 16 -140l-2 -53q-3 -54 -3 -117q0 -81 29 -151q2 -4 9 -18.5
t7 -20.5q0 -19 -25.5 -31.5t-59.5 -12.5q-19 0 -39 5.5t-33 14.5zM302 298q-29 0 -55.5 -12t-38 -31t-11.5 -37q0 -20 15 -33.5t34 -13.5q29 0 53.5 13t39.5 37v67q-8 10 -37 10z" />
    <glyph glyph-name="aacute" unicode="&#xe1;" horiz-adv-x="588" 
d="M362 895h10q25 0 37 -7q12 -6 12 -21q-1 -15 -20 -44.5t-52.5 -65.5t-46.5 -39l-13 -1q-15 1 -24 9t-9 19q0 9 4 19q10 28 28 64.5t36 54.5q12 12 38 12zM420 22q-10 6 -24.5 20.5t-18.5 24.5q-55 -39 -87 -51t-78 -12q-37 0 -72 14t-61 39.5t-41 60t-15 72.5q0 32 10 69
t35.5 69.5t66.5 58.5t97 40t111 14q-1 53 -16.5 70t-42.5 17q-26 0 -73.5 -19.5t-67.5 -19.5q-29 0 -45.5 19.5t-16.5 57.5q0 25 14.5 46t43 38.5t78.5 30.5t95 13q78 0 134 -40t75 -108q16 -53 16 -140l-2 -53q-3 -54 -3 -117q0 -81 29 -151q2 -4 9 -18.5t7 -20.5
q0 -19 -25.5 -31.5t-59.5 -12.5q-19 0 -39 5.5t-33 14.5zM302 298q-29 0 -55.5 -12t-38 -31t-11.5 -37q0 -20 15 -33.5t34 -13.5q29 0 53.5 13t39.5 37v67q-8 10 -37 10z" />
    <glyph glyph-name="acircumflex" unicode="&#xe2;" horiz-adv-x="588" 
d="M284 883l27 3q27 0 42 -11q67 -52 90 -79.5t25 -46.5q0 -20 -10 -31t-27 -11q-5 0 -12 1t-15 6.5t-21 16.5t-19 16l-47 37l-4 1l-5 -2q-10 -6 -39 -32t-44 -37q-7 -6 -28 -6q-14 0 -26 9t-14 20l-1 9q0 20 13 33q80 91 115 104zM420 22q-10 6 -24.5 20.5t-18.5 24.5
q-55 -39 -87 -51t-78 -12q-37 0 -72 14t-61 39.5t-41 60t-15 72.5q0 32 10 69t35.5 69.5t66.5 58.5t97 40t111 14q-1 53 -16.5 70t-42.5 17q-26 0 -73.5 -19.5t-67.5 -19.5q-29 0 -45.5 19.5t-16.5 57.5q0 25 14.5 46t43 38.5t78.5 30.5t95 13q78 0 134 -40t75 -108
q16 -53 16 -140l-2 -53q-3 -54 -3 -117q0 -81 29 -151q2 -4 9 -18.5t7 -20.5q0 -19 -25.5 -31.5t-59.5 -12.5q-19 0 -39 5.5t-33 14.5zM302 298q-29 0 -55.5 -12t-38 -31t-11.5 -37q0 -20 15 -33.5t34 -13.5q29 0 53.5 13t39.5 37v67q-8 10 -37 10z" />
    <glyph glyph-name="atilde" unicode="&#xe3;" horiz-adv-x="588" 
d="M364 827q15 0 29.5 6t35 21.5t31.5 15.5q9 0 15 -3q7 -4 11 -14t4 -17q0 -11 -6 -26t-13 -24q-20 -26 -43.5 -41.5t-57.5 -15.5q-25 0 -64 20.5t-62 20.5q-19 0 -50.5 -15.5t-39.5 -15.5l-11 4q-11 4 -11 25q0 15 15.5 45.5t41.5 46.5t56 16q15 0 34 -7t47.5 -24.5
t37.5 -17.5zM420 22q-10 6 -24.5 20.5t-18.5 24.5q-55 -39 -87 -51t-78 -12q-37 0 -72 14t-61 39.5t-41 60t-15 72.5q0 32 10 69t35.5 69.5t66.5 58.5t97 40t111 14q-1 53 -16.5 70t-42.5 17q-26 0 -73.5 -19.5t-67.5 -19.5q-29 0 -45.5 19.5t-16.5 57.5q0 25 14.5 46
t43 38.5t78.5 30.5t95 13q78 0 134 -40t75 -108q16 -53 16 -140l-2 -53q-3 -54 -3 -117q0 -81 29 -151q2 -4 9 -18.5t7 -20.5q0 -19 -25.5 -31.5t-59.5 -12.5q-19 0 -39 5.5t-33 14.5zM302 298q-29 0 -55.5 -12t-38 -31t-11.5 -37q0 -20 15 -33.5t34 -13.5q29 0 53.5 13
t39.5 37v67q-8 10 -37 10z" />
    <glyph glyph-name="adieresis" unicode="&#xe4;" horiz-adv-x="588" 
d="M203 844q12 4 28 4q28 0 46.5 -15t18.5 -46q0 -24 -15.5 -40.5t-49.5 -16.5q-30 0 -45.5 16t-15.5 36q0 47 33 62zM376 844q16 4 29 4q28 0 46 -15t18 -46q0 -24 -15.5 -40.5t-49.5 -16.5q-30 0 -45.5 16t-15.5 36q0 46 33 62zM420 22q-10 6 -24.5 20.5t-18.5 24.5
q-55 -39 -87 -51t-78 -12q-37 0 -72 14t-61 39.5t-41 60t-15 72.5q0 32 10 69t35.5 69.5t66.5 58.5t97 40t111 14q-1 53 -16.5 70t-42.5 17q-26 0 -73.5 -19.5t-67.5 -19.5q-29 0 -45.5 19.5t-16.5 57.5q0 25 14.5 46t43 38.5t78.5 30.5t95 13q78 0 134 -40t75 -108
q16 -53 16 -140l-2 -53q-3 -54 -3 -117q0 -81 29 -151q2 -4 9 -18.5t7 -20.5q0 -19 -25.5 -31.5t-59.5 -12.5q-19 0 -39 5.5t-33 14.5zM302 298q-29 0 -55.5 -12t-38 -31t-11.5 -37q0 -20 15 -33.5t34 -13.5q29 0 53.5 13t39.5 37v67q-8 10 -37 10z" />
    <glyph glyph-name="aring" unicode="&#xe5;" horiz-adv-x="588" 
d="M322 927q46 -1 76 -28t30 -65q0 -33 -14.5 -60.5t-38.5 -38.5t-46 -11q-23 0 -48.5 9t-43 33t-17.5 54v5q0 43 28.5 71t73.5 31zM322 792h3q12 0 21 10.5t9 24.5q0 16 -9.5 24.5t-21.5 8.5q-15 0 -23.5 -10.5t-8.5 -22.5q0 -13 8 -24t22 -11zM420 22q13 -9 33 -14.5
t39 -5.5q34 0 59.5 12.5t25.5 31.5q0 6 -7 20.5t-9 18.5q-29 70 -29 151q0 63 3 117l2 53q0 87 -16 140q-19 68 -75 108t-134 40q-31 0 -70.5 -7.5t-75.5 -22.5t-60.5 -40t-24.5 -58q0 -38 16.5 -57.5t45.5 -19.5q20 0 67.5 19.5t73.5 19.5q27 0 42.5 -17t16.5 -70
q-40 0 -90 -9.5t-100.5 -35t-80 -63t-39.5 -74.5t-10 -69q0 -28 10 -59.5t33.5 -59.5t61 -47.5t84.5 -19.5q26 0 53.5 5.5t51 18.5t60.5 39q4 -10 18.5 -24.5t24.5 -20.5zM302 298q29 0 37 -10v-67q-15 -24 -39.5 -37t-53.5 -13q-19 0 -34 13.5t-15 33.5q0 18 11.5 37t38 31
t55.5 12z" />
    <glyph glyph-name="ae" unicode="&#xe6;" horiz-adv-x="876" 
d="M581 249q-9 -7 -6 -22q4 -22 30 -36t52 -14q57 0 130 27q9 3 17 3q13 0 24 -12t18 -26q8 -14 8 -28q0 -27 -14 -50q-21 -35 -64 -56.5t-85 -27.5t-71 -5t-64 9.5t-69.5 31.5t-59.5 54l-28 -21q-46 -32 -90.5 -50.5t-96.5 -18.5q-37 0 -72 14t-61 39.5t-41 60t-15 72.5
q0 32 10 69t35.5 69.5t61 54.5t89 38.5t124.5 17.5q-1 54 -16.5 71.5t-42.5 17.5q-26 0 -73.5 -19.5t-67.5 -19.5q-29 0 -45.5 19.5t-16.5 57.5q0 25 14.5 46t43 38.5t78.5 30.5t95 13q48 0 89.5 -16.5t70.5 -45.5q42 32 92 45q36 9 68 9q47 0 88.5 -15.5t70.5 -38.5
q31 -25 48.5 -63.5t17.5 -79.5q0 -29 -9 -64t-26 -59q-16 -22 -48.5 -48t-82.5 -45t-101 -24zM302 301q-29 0 -55.5 -12t-38 -31t-11.5 -37q0 -20 15 -33.5t34 -13.5q29 0 53.5 13t39.5 37v67q-8 10 -37 10zM684 489v7q0 14 -9.5 21t-22.5 7q-49 0 -78.5 -37.5t-29.5 -85.5
l1 -15h4q15 0 51 14q13 5 32 17.5t35.5 33t16.5 38.5z" />
    <glyph glyph-name="ccedilla" unicode="&#xe7;" horiz-adv-x="554" 
d="M491 506q-6 -5 -20.5 -7.5t-68 -3t-74.5 -4.5q-22 -4 -46 -21t-40 -48.5t-16 -62.5q0 -124 94 -137l30 -2l108 5h8q19 -1 37 -11.5t26 -28t8 -35.5q-1 -89 -90 -117q-34 -12 -74 -15l-36 -48q36 -11 59.5 -35t23.5 -77q0 -50 -44.5 -85.5t-118.5 -35.5q-26 0 -51 5.5
t-37.5 18t-12.5 28.5q0 14 10 31.5t25 22.5q11 5 23 5l14 -2q9 0 27 -8t27 -8q13 0 21 11.5t8 23.5q0 10 -5 19t-14 13t-33 10.5t-27 7.5q-9 4 -9 15l1 9q2 10 14 32.5t33 47.5q-53 7 -83 18q-31 10 -60.5 32t-53.5 62t-33.5 92t-9.5 96q0 108 30 188.5t92 126.5
q79 59 209 59q31 0 75 -11.5t66 -35.5t22 -54q0 -32 -9.5 -56t-24.5 -30z" />
    <glyph glyph-name="egrave" unicode="&#xe8;" horiz-adv-x="551" 
d="M222 889h10q26 0 38 -12q14 -14 31.5 -46.5t32.5 -72.5q4 -10 4 -19q0 -11 -9 -19t-24 -9l-13 1q-10 2 -36 28t-53.5 63.5t-29.5 57.5q0 15 12 21q12 7 37 7zM249 234q0 -19 19 -35q12 -10 30.5 -16t33.5 -6q57 0 130 27q9 3 17 3q13 0 24 -12t18 -26q8 -16 8 -31
q0 -24 -14 -47q-21 -35 -64 -56.5t-85 -27.5t-71 -5q-31 1 -68 11t-72 35t-65 66.5t-47.5 101.5t-17.5 124q0 59 14 116t40 101q16 27 47.5 58.5t80.5 52.5t100 21q34 0 72 -9.5t76 -35.5t57.5 -67.5t19.5 -84.5q0 -29 -9 -64t-26 -59q-16 -22 -48.5 -48t-82.5 -45t-101 -24
q-7 -1 -11.5 -6t-4.5 -12zM359 489q0 38 -34 38q-19 0 -38.5 -10t-31.5 -22q-18 -18 -27 -44t-9 -50l1 -15q28 1 62.5 18t55.5 39t21 46z" />
    <glyph glyph-name="eacute" unicode="&#xe9;" horiz-adv-x="551" 
d="M332 891h10q25 0 37 -7q12 -6 12 -21q-1 -15 -20 -44.5t-52.5 -65.5t-46.5 -39l-13 -1q-15 1 -24 9t-9 19q0 9 4 19q10 28 28 64.5t36 54.5q12 12 38 12zM249 234q0 -19 19 -35q12 -10 30.5 -16t33.5 -6q57 0 130 27q9 3 17 3q13 0 24 -12t18 -26q8 -16 8 -31
q0 -24 -14 -47q-21 -35 -64 -56.5t-85 -27.5t-71 -5q-31 1 -68 11t-72 35t-65 66.5t-47.5 101.5t-17.5 124q0 59 14 116t40 101q16 27 47.5 58.5t80.5 52.5t100 21q34 0 72 -9.5t76 -35.5t57.5 -67.5t19.5 -84.5q0 -29 -9 -64t-26 -59q-16 -22 -48.5 -48t-82.5 -45t-101 -24
q-7 -1 -11.5 -6t-4.5 -12zM359 489q0 38 -34 38q-19 0 -38.5 -10t-31.5 -22q-18 -18 -27 -44t-9 -50l1 -15q28 1 62.5 18t55.5 39t21 46z" />
    <glyph glyph-name="ecircumflex" unicode="&#xea;" horiz-adv-x="551" 
d="M266 869l27 3q27 0 42 -11q67 -52 90 -79.5t25 -46.5q0 -20 -10 -31t-27 -11q-5 0 -12 1t-15 6.5t-21 16.5t-19 16l-47 37l-4 1l-5 -2q-10 -6 -39 -32t-44 -37q-7 -6 -28 -6q-14 0 -26 9t-14 20l-1 9q0 20 13 33q80 91 115 104zM249 234q0 -19 19 -35q12 -10 30.5 -16
t33.5 -6q57 0 130 27q9 3 17 3q13 0 24 -12t18 -26q8 -16 8 -31q0 -24 -14 -47q-21 -35 -64 -56.5t-85 -27.5t-71 -5q-31 1 -68 11t-72 35t-65 66.5t-47.5 101.5t-17.5 124q0 59 14 116t40 101q16 27 47.5 58.5t80.5 52.5t100 21q34 0 72 -9.5t76 -35.5t57.5 -67.5
t19.5 -84.5q0 -29 -9 -64t-26 -59q-16 -22 -48.5 -48t-82.5 -45t-101 -24q-7 -1 -11.5 -6t-4.5 -12zM359 489q0 38 -34 38q-19 0 -38.5 -10t-31.5 -22q-18 -18 -27 -44t-9 -50l1 -15q28 1 62.5 18t55.5 39t21 46z" />
    <glyph glyph-name="edieresis" unicode="&#xeb;" horiz-adv-x="551" 
d="M189 835q12 4 28 4q28 0 46.5 -15t18.5 -46q0 -24 -15.5 -40.5t-49.5 -16.5q-30 0 -45.5 16t-15.5 36q0 47 33 62zM362 835q16 4 29 4q28 0 46 -15t18 -46q0 -24 -15.5 -40.5t-49.5 -16.5q-30 0 -45.5 16t-15.5 36q0 46 33 62zM249 234q0 -19 19 -35q12 -10 30.5 -16
t33.5 -6q57 0 130 27q9 3 17 3q13 0 24 -12t18 -26q8 -16 8 -31q0 -24 -14 -47q-21 -35 -64 -56.5t-85 -27.5t-71 -5q-31 1 -68 11t-72 35t-65 66.5t-47.5 101.5t-17.5 124q0 59 14 116t40 101q16 27 47.5 58.5t80.5 52.5t100 21q34 0 72 -9.5t76 -35.5t57.5 -67.5
t19.5 -84.5q0 -29 -9 -64t-26 -59q-16 -22 -48.5 -48t-82.5 -45t-101 -24q-7 -1 -11.5 -6t-4.5 -12zM359 489q0 38 -34 38q-19 0 -38.5 -10t-31.5 -22q-18 -18 -27 -44t-9 -50l1 -15q28 1 62.5 18t55.5 39t21 46z" />
    <glyph glyph-name="igrave" unicode="&#xec;" horiz-adv-x="279" 
d="M243 529v-32q0 -66 -7.5 -215t-7.5 -212v-37q-34 -28 -97 -28l-20 1q-22 3 -43.5 20.5t-23.5 45.5q-3 41 -3 84q0 48 5 158t5 162l-1 60l-2 97v39l27 12q27 8 52 8q35 0 62 -14t39 -39q13 -28 15 -110zM92 885h10q26 0 38 -12q14 -14 31.5 -46.5t32.5 -72.5q4 -10 4 -19
q0 -11 -9 -19t-24 -9l-13 1q-10 2 -36 28t-53.5 63.5t-29.5 57.5q0 15 12 21q12 7 37 7z" />
    <glyph glyph-name="iacute" unicode="&#xed;" horiz-adv-x="281" 
d="M243 529v-32q0 -66 -7.5 -215t-7.5 -212v-37q-34 -28 -97 -28l-20 1q-22 3 -43.5 20.5t-23.5 45.5q-3 41 -3 84q0 48 5 158t5 162l-1 60l-2 97v39l27 12q27 8 52 8q35 0 62 -14t39 -39q13 -28 15 -110zM186 891h10q25 0 37 -7q12 -6 12 -21q-1 -15 -20 -44.5t-52.5 -65.5
t-46.5 -39l-13 -1q-15 1 -24 9t-9 19q0 9 4 19q10 28 28 64.5t36 54.5q12 12 38 12z" />
    <glyph glyph-name="icircumflex" unicode="&#xee;" horiz-adv-x="279" 
d="M243 529v-32q0 -66 -7.5 -215t-7.5 -212v-37q-34 -28 -97 -28l-20 1q-22 3 -43.5 20.5t-23.5 45.5q-3 41 -3 84q0 48 5 158t5 162l-1 60l-2 97v39l27 12q27 8 52 8q35 0 62 -14t39 -39q13 -28 15 -110zM110 877l27 3q27 0 42 -11q67 -52 90 -79.5t25 -46.5q0 -20 -10 -31
t-27 -11q-5 0 -12 1t-15 6.5t-21 16.5t-19 16l-47 37l-4 1l-5 -2q-10 -6 -39 -32t-44 -37q-7 -6 -28 -6q-14 0 -26 9t-14 20l-1 9q0 20 13 33q80 91 115 104z" />
    <glyph glyph-name="idieresis" unicode="&#xef;" horiz-adv-x="279" 
d="M243 529v-32q0 -66 -7.5 -215t-7.5 -212v-37q-34 -28 -97 -28l-20 1q-22 3 -43.5 20.5t-23.5 45.5q-3 41 -3 84q0 48 5 158t5 162l-1 60l-2 97v39l27 12q27 8 52 8q35 0 62 -14t39 -39q13 -28 15 -110zM19 854q12 4 28 4q28 0 46.5 -15t18.5 -46q0 -24 -15.5 -40.5
t-49.5 -16.5q-30 0 -45.5 16t-15.5 36q0 47 33 62zM192 854q16 4 29 4q28 0 46 -15t18 -46q0 -24 -15.5 -40.5t-49.5 -16.5q-30 0 -45.5 16t-15.5 36q0 46 33 62z" />
    <glyph glyph-name="eth" unicode="&#xf0;" horiz-adv-x="548" 
d="M478 592q-4 -4 -38 -23l-10 -4q46 -67 70 -148.5t24 -146.5q0 -48 -15.5 -96.5t-45.5 -88t-75 -63t-100 -23.5q-57 0 -105.5 15.5t-84 46.5t-55 77t-19.5 105q0 42 15.5 79t43 64t64 42.5t75.5 17.5h6q12 0 27.5 -2t19.5 -3q-8 27 -25 54q-13 -4 -23 -8q-52 -20 -70 -20
q-16 0 -24 9t-8 24q0 19 20 36t42 25l5 1q-21 21 -33.5 39t-12.5 38q1 28 29 46t71 18h11l10 -1q58 -26 105 -70q46 16 79 24l9 1q14 0 24 -10.5t10 -26.5q0 -18 -16 -28zM306 293q-14 13 -38 13q-20 0 -38 -15.5t-20 -37.5l-1 -9l-1 -20q0 -33 15.5 -53t49.5 -20
q25 0 42 18t19 42v10q0 19 -7 38.5t-16 27.5z" />
    <glyph glyph-name="ntilde" unicode="&#xf1;" horiz-adv-x="638" 
d="M389 795q15 0 29.5 6t35 21.5t31.5 15.5q9 0 15 -3q7 -4 11 -14t4 -17q0 -11 -6 -26t-13 -24q-20 -26 -43.5 -41.5t-57.5 -15.5q-25 0 -64 20.5t-62 20.5q-19 0 -50.5 -15.5t-39.5 -15.5l-11 4q-11 4 -11 25q0 15 15.5 45.5t41.5 46.5t56 16q15 0 34 -7t47.5 -24.5
t37.5 -17.5zM487 7q-37 0 -58.5 17.5t-28 42.5t-6.5 47l5 149q0 99 -18.5 137.5t-56.5 38.5q-26 0 -47 -18t-27 -53q-5 -29 -5 -70l1 -124q0 -54 -7 -83q-8 -37 -23 -55q-25 -29 -73 -29q-15 0 -30.5 6t-24.5 15q-12 12 -19.5 32t-10.5 64q-8 123 -17 284.5t-17 243.5
q14 9 32.5 18t56.5 9t68 -25t42 -70q27 36 78 57t98 21q71 0 116.5 -31t68.5 -87.5t23 -139.5v-9q-3 -216 -34 -302t-86 -86z" />
    <glyph glyph-name="ograve" unicode="&#xf2;" 
d="M238 896h10q26 0 38 -12q14 -14 31.5 -46.5t32.5 -72.5q4 -10 4 -19q0 -11 -9 -19t-24 -9l-13 1q-10 2 -36 28t-53.5 63.5t-29.5 57.5q0 15 12 21q12 7 37 7zM523 556q35 -78 35 -209q0 -79 -22.5 -146t-60 -112.5t-87 -66t-100.5 -20.5q-40 0 -66 6q-71 18 -112 61
t-63 107q-7 22 -14.5 67.5t-7.5 100.5q0 120 26.5 183t74.5 105q31 27 74 43t89 17h4q89 0 143.5 -34t86.5 -102zM300 522q-40 0 -61 -44t-21 -107q0 -90 20 -133.5t55 -43.5q20 0 39 17.5t29.5 64.5t10.5 106q0 53 -18 96.5t-54 43.5z" />
    <glyph glyph-name="oacute" unicode="&#xf3;" 
d="M380 898h10q25 0 37 -7q12 -6 12 -21q-1 -15 -20 -44.5t-52.5 -65.5t-46.5 -39l-13 -1q-15 1 -24 9t-9 19q0 9 4 19q10 28 28 64.5t36 54.5q12 12 38 12zM523 556q35 -78 35 -209q0 -79 -22.5 -146t-60 -112.5t-87 -66t-100.5 -20.5q-40 0 -66 6q-71 18 -112 61t-63 107
q-7 22 -14.5 67.5t-7.5 100.5q0 120 26.5 183t74.5 105q31 27 74 43t89 17h4q89 0 143.5 -34t86.5 -102zM300 522q-40 0 -61 -44t-21 -107q0 -90 20 -133.5t55 -43.5q20 0 39 17.5t29.5 64.5t10.5 106q0 53 -18 96.5t-54 43.5z" />
    <glyph glyph-name="ocircumflex" unicode="&#xf4;" 
d="M272 888l27 3q27 0 42 -11q67 -52 90 -79.5t25 -46.5q0 -20 -10 -31t-27 -11q-5 0 -12 1t-15 6.5t-21 16.5t-19 16l-47 37l-4 1l-5 -2q-10 -6 -39 -32t-44 -37q-7 -6 -28 -6q-14 0 -26 9t-14 20l-1 9q0 20 13 33q80 91 115 104zM523 556q35 -78 35 -209q0 -79 -22.5 -146
t-60 -112.5t-87 -66t-100.5 -20.5q-40 0 -66 6q-71 18 -112 61t-63 107q-7 22 -14.5 67.5t-7.5 100.5q0 120 26.5 183t74.5 105q31 27 74 43t89 17h4q89 0 143.5 -34t86.5 -102zM300 522q-40 0 -61 -44t-21 -107q0 -90 20 -133.5t55 -43.5q20 0 39 17.5t29.5 64.5t10.5 106
q0 53 -18 96.5t-54 43.5z" />
    <glyph glyph-name="otilde" unicode="&#xf5;" 
d="M358 833q15 0 29.5 6t35 21.5t31.5 15.5q9 0 15 -3q7 -4 11 -14t4 -17q0 -11 -6 -26t-13 -24q-20 -26 -43.5 -41.5t-57.5 -15.5q-25 0 -64 20.5t-62 20.5q-19 0 -50.5 -15.5t-39.5 -15.5l-11 4q-11 4 -11 25q0 15 15.5 45.5t41.5 46.5t56 16q15 0 34 -7t47.5 -24.5
t37.5 -17.5zM523 556q35 -78 35 -209q0 -79 -22.5 -146t-60 -112.5t-87 -66t-100.5 -20.5q-40 0 -66 6q-71 18 -112 61t-63 107q-7 22 -14.5 67.5t-7.5 100.5q0 120 26.5 183t74.5 105q31 27 74 43t89 17h4q89 0 143.5 -34t86.5 -102zM300 522q-40 0 -61 -44t-21 -107
q0 -90 20 -133.5t55 -43.5q20 0 39 17.5t29.5 64.5t10.5 106q0 53 -18 96.5t-54 43.5z" />
    <glyph glyph-name="odieresis" unicode="&#xf6;" 
d="M187 845q12 4 28 4q28 0 46.5 -15t18.5 -46q0 -24 -15.5 -40.5t-49.5 -16.5q-30 0 -45.5 16t-15.5 36q0 47 33 62zM360 845q16 4 29 4q28 0 46 -15t18 -46q0 -24 -15.5 -40.5t-49.5 -16.5q-30 0 -45.5 16t-15.5 36q0 46 33 62zM523 556q35 -78 35 -209q0 -79 -22.5 -146
t-60 -112.5t-87 -66t-100.5 -20.5q-40 0 -66 6q-71 18 -112 61t-63 107q-7 22 -14.5 67.5t-7.5 100.5q0 120 26.5 183t74.5 105q31 27 74 43t89 17h4q89 0 143.5 -34t86.5 -102zM300 522q-40 0 -61 -44t-21 -107q0 -90 20 -133.5t55 -43.5q20 0 39 17.5t29.5 64.5t10.5 106
q0 53 -18 96.5t-54 43.5z" />
    <glyph glyph-name="divide" unicode="&#xf7;" horiz-adv-x="662" 
d="M291 599q21 8 42 8q23 0 44.5 -11.5t30.5 -28.5t9 -32q0 -20 -10.5 -40.5t-35.5 -33t-55 -12.5q-18 0 -38 10.5t-29.5 26.5t-9.5 30q0 27 14.5 50t37.5 33zM291 190q21 8 42 8q23 0 44.5 -11.5t30.5 -28.5t9 -32q0 -20 -10.5 -40.5t-35.5 -33t-55 -12.5q-18 0 -38 10.5
t-29.5 26.5t-9.5 30q0 27 14.5 50t37.5 33zM558 263q-4 -3 -12 -6t-22 -5.5t-17 -2.5l-288 -1l-33 -1q-26 0 -55.5 4t-46.5 15q-28 15 -28 67v4q5 33 30 46t78 13q30 0 73.5 1.5t106.5 1.5q187 0 216 -15l4 -2q12 -3 21 -19t9 -28q0 -52 -36 -72z" />
    <glyph glyph-name="oslash" unicode="&#xf8;" 
d="M523 556q35 -78 35 -209q0 -79 -22.5 -146t-60 -112.5t-87 -66t-100.5 -20.5q-40 0 -66 6q-35 8 -65 25q-29 -48 -48 -61q-18 -12 -40 -12q-29 0 -29 33q0 9 4.5 22t23.5 44l20 34q-24 32 -41 83q-7 22 -14.5 67.5t-7.5 100.5q0 120 26.5 183t74.5 105q31 27 74 43t89 17
h4q86 0 139 -31l14 20q25 35 40 37q9 3 17 3q13 0 23 -7.5t10 -17.5v-1l-2 -14q0 -11 -38 -80q15 -19 27 -45zM300 522q-40 0 -61 -44t-21 -107l2 -58l116 193q-16 16 -36 16zM372 387l-110 -183q13 -10 31 -10q20 0 39 17.5t29.5 64.5t10.5 106v5z" />
    <glyph glyph-name="ugrave" unicode="&#xf9;" horiz-adv-x="656" 
d="M618 610v-1l3 -134v-22q0 -76 -7 -132q-37 -309 -284 -309q-84 0 -149 32.5t-98 103.5q-20 44 -34.5 103t-14.5 159q0 128 6 182q3 27 17 48.5t40 31t51 9.5q57 -1 80 -29t24 -85l4 -183q2 -94 8.5 -124t19.5 -44q17 -17 39 -17q14 0 28 10t22 26q6 13 11.5 35t10 58
t6.5 73.5t2 72v35.5q2 105 34 138t90 34h5q26 0 46 -7t29 -21.5t10 -30.5zM275 867h10q26 0 38 -12q14 -14 31.5 -46.5t32.5 -72.5q4 -10 4 -19q0 -11 -9 -19t-24 -9l-13 1q-10 2 -36 28t-53.5 63.5t-29.5 57.5q0 15 12 21q12 7 37 7z" />
    <glyph glyph-name="uacute" unicode="&#xfa;" horiz-adv-x="656" 
d="M618 610v-1l3 -134v-22q0 -76 -7 -132q-37 -309 -284 -309q-84 0 -149 32.5t-98 103.5q-20 44 -34.5 103t-14.5 159q0 128 6 182q3 27 17 48.5t40 31t51 9.5q57 -1 80 -29t24 -85l4 -183q2 -94 8.5 -124t19.5 -44q17 -17 39 -17q14 0 28 10t22 26q6 13 11.5 35t10 58
t6.5 73.5t2 72v35.5q2 105 34 138t90 34h5q26 0 46 -7t29 -21.5t10 -30.5zM385 869h10q25 0 37 -7q12 -6 12 -21q-1 -15 -20 -44.5t-52.5 -65.5t-46.5 -39l-13 -1q-15 1 -24 9t-9 19q0 9 4 19q10 28 28 64.5t36 54.5q12 12 38 12z" />
    <glyph glyph-name="ucircumflex" unicode="&#xfb;" horiz-adv-x="656" 
d="M618 610v-1l3 -134v-22q0 -76 -7 -132q-37 -309 -284 -309q-84 0 -149 32.5t-98 103.5q-20 44 -34.5 103t-14.5 159q0 128 6 182q3 27 17 48.5t40 31t51 9.5q57 -1 80 -29t24 -85l4 -183q2 -94 8.5 -124t19.5 -44q17 -17 39 -17q14 0 28 10t22 26q6 13 11.5 35t10 58
t6.5 73.5t2 72v35.5q2 105 34 138t90 34h5q26 0 46 -7t29 -21.5t10 -30.5zM306 884l27 3q27 0 42 -11q67 -52 90 -79.5t25 -46.5q0 -20 -10 -31t-27 -11q-5 0 -12 1t-15 6.5t-21 16.5t-19 16l-47 37l-4 1l-5 -2q-10 -6 -39 -32t-44 -37q-7 -6 -28 -6q-14 0 -26 9t-14 20
l-1 9q0 20 13 33q80 91 115 104z" />
    <glyph glyph-name="udieresis" unicode="&#xfc;" horiz-adv-x="656" 
d="M618 610v-1l3 -134v-22q0 -76 -7 -132q-37 -309 -284 -309q-84 0 -149 32.5t-98 103.5q-20 44 -34.5 103t-14.5 159q0 128 6 182q3 27 17 48.5t40 31t51 9.5q57 -1 80 -29t24 -85l4 -183q2 -94 8.5 -124t19.5 -44q17 -17 39 -17q14 0 28 10t22 26q6 13 11.5 35t10 58
t6.5 73.5t2 72v35.5q2 105 34 138t90 34h5q26 0 46 -7t29 -21.5t10 -30.5zM223 832q12 4 28 4q28 0 46.5 -15t18.5 -46q0 -24 -15.5 -40.5t-49.5 -16.5q-30 0 -45.5 16t-15.5 36q0 47 33 62zM396 832q16 4 29 4q28 0 46 -15t18 -46q0 -24 -15.5 -40.5t-49.5 -16.5
q-30 0 -45.5 16t-15.5 36q0 46 33 62z" />
    <glyph glyph-name="yacute" unicode="&#xfd;" horiz-adv-x="572" 
d="M346 893h10q25 0 37 -7q12 -6 12 -21q-1 -15 -20 -44.5t-52.5 -65.5t-46.5 -39l-13 -1q-15 1 -24 9t-9 19q0 9 4 19q10 28 28 64.5t36 54.5q12 12 38 12zM336 276q-22 -13 -62 -13q-50 0 -95 18t-72.5 47t-41.5 56q-42 83 -42 218q0 22 3 35q7 31 35 46.5t66 15.5
q33 0 61 -9q21 -19 29 -90t11 -86t6.5 -28t9.5 -23.5t15 -18t24 -7.5q28 0 43 24t28 91.5t21 96.5q17 37 50 39h17q35 0 59 -22t36 -63t12 -96q0 -25 -4 -73l-1 -10q-13 -139 -43 -216.5t-68 -121.5t-95 -66t-127 -22q-47 0 -80 25.5t-33 71.5v7q0 28 24 47.5t59 23.5
q59 6 98.5 23t52.5 59z" />
    <glyph glyph-name="thorn" unicode="&#xfe;" horiz-adv-x="555" 
d="M226 145v-40q0 -59 -7 -75q-15 -32 -80 -32q-43 0 -60 11q-33 21 -33 146v40q1 152 2.5 275.5t1.5 148.5v30q0 12 4 23.5t12 16.5q26 17 66 17q27 0 48.5 -9t29.5 -25q3 -7 5.5 -32.5t2.5 -49.5l4 -2l36 2l19 1q46 0 91.5 -13.5t82 -40.5t58 -68t21.5 -92
q0 -52 -17.5 -97t-49.5 -77t-78 -49.5t-100 -17.5q-32 0 -59 9zM228 351q5 -16 20.5 -29t35.5 -13q75 0 75 68q0 26 -19.5 46t-44.5 20q-15 0 -31.5 -8t-26.5 -28t-10 -43z" />
    <glyph glyph-name="ydieresis" unicode="&#xff;" horiz-adv-x="572" 
d="M174 846q12 4 28 4q28 0 46.5 -15t18.5 -46q0 -24 -15.5 -40.5t-49.5 -16.5q-30 0 -45.5 16t-15.5 36q0 47 33 62zM347 846q16 4 29 4q28 0 46 -15t18 -46q0 -24 -15.5 -40.5t-49.5 -16.5q-30 0 -45.5 16t-15.5 36q0 46 33 62zM336 276q-22 -13 -62 -13q-50 0 -95 18
t-72.5 47t-41.5 56q-42 83 -42 218q0 22 3 35q7 31 35 46.5t66 15.5q33 0 61 -9q21 -19 29 -90t11 -86t6.5 -28t9.5 -23.5t15 -18t24 -7.5q28 0 43 24t28 91.5t21 96.5q17 37 50 39h17q35 0 59 -22t36 -63t12 -96q0 -25 -4 -73l-1 -10q-13 -139 -43 -216.5t-68 -121.5
t-95 -66t-127 -22q-47 0 -80 25.5t-33 71.5v7q0 28 24 47.5t59 23.5q59 6 98.5 23t52.5 59z" />
    <glyph glyph-name="Amacron" unicode="&#x100;" horiz-adv-x="554" 
d="M421 736q-5 -3 -17.5 -5t-14.5 -2h-179l-22 -1q-37 0 -57 10q-17 9 -17 42q3 19 22 29.5t38 10.5l115 2q110 0 127 -9l3 -1q8 -2 16.5 -13t8.5 -17q0 -33 -23 -46zM521 285q0 -5 6 -59t6 -81q0 -43 -12 -75t-35.5 -49.5t-61.5 -17.5q-28 0 -46.5 17t-29 49t-14 92.5
t-6.5 66.5q-5 6 -20.5 10t-31.5 4t-31 -3.5t-17 -10.5q-3 -11 -6.5 -30.5t-5.5 -27.5q-1 -4 -9 -42t-18.5 -63.5t-28 -41.5t-43.5 -16q-28 0 -51.5 19.5t-36 62t-9.5 78.5q0 31 4.5 79t18 129t13.5 83q22 131 74 185.5t141 54.5q56 0 96.5 -20.5t67.5 -57t48 -99.5t38 -236z
M279 537q-19 0 -34.5 -36t-15.5 -74q0 -20 7.5 -32t38.5 -12h5q26 0 36.5 9.5t10.5 35.5q0 34 -13.5 71.5t-34.5 37.5z" />
    <glyph glyph-name="amacron" unicode="&#x101;" horiz-adv-x="588" 
d="M460 738q-5 -3 -17.5 -5t-14.5 -2h-179l-22 -1q-37 0 -57 10q-17 9 -17 42q3 19 22 29.5t38 10.5l115 2q110 0 127 -9l3 -1q8 -2 16.5 -13t8.5 -17q0 -33 -23 -46zM420 22q-10 6 -24.5 20.5t-18.5 24.5q-55 -39 -87 -51t-78 -12q-37 0 -72 14t-61 39.5t-41 60t-15 72.5
q0 32 10 69t35.5 69.5t66.5 58.5t97 40t111 14q-1 53 -16.5 70t-42.5 17q-26 0 -73.5 -19.5t-67.5 -19.5q-29 0 -45.5 19.5t-16.5 57.5q0 25 14.5 46t43 38.5t78.5 30.5t95 13q78 0 134 -40t75 -108q16 -53 16 -140l-2 -53q-3 -54 -3 -117q0 -81 29 -151q2 -4 9 -18.5
t7 -20.5q0 -19 -25.5 -31.5t-59.5 -12.5q-19 0 -39 5.5t-33 14.5zM302 298q-29 0 -55.5 -12t-38 -31t-11.5 -37q0 -20 15 -33.5t34 -13.5q29 0 53.5 13t39.5 37v67q-8 10 -37 10z" />
    <glyph glyph-name="Abreve" unicode="&#x102;" horiz-adv-x="554" 
d="M284 723q-50 0 -82.5 20.5t-43.5 51t-11 56.5q0 15 12.5 25t28.5 10q24 0 36 -25.5t15 -29.5q5 -7 18 -16.5t25 -9.5q28 0 44 22q2 2 6 7.5t18.5 27.5t37.5 23q34 0 34 -48q0 -20 -13.5 -46.5t-48 -47t-76.5 -20.5zM521 285q0 -5 6 -59t6 -81q0 -43 -12 -75t-35.5 -49.5
t-61.5 -17.5q-28 0 -46.5 17t-29 49t-14 92.5t-6.5 66.5q-5 6 -20.5 10t-31.5 4t-31 -3.5t-17 -10.5q-3 -11 -6.5 -30.5t-5.5 -27.5q-1 -4 -9 -42t-18.5 -63.5t-28 -41.5t-43.5 -16q-28 0 -51.5 19.5t-36 62t-9.5 78.5q0 31 4.5 79t18 129t13.5 83q22 131 74 185.5t141 54.5
q56 0 96.5 -20.5t67.5 -57t48 -99.5t38 -236zM279 537q-19 0 -34.5 -36t-15.5 -74q0 -20 7.5 -32t38.5 -12h5q26 0 36.5 9.5t10.5 35.5q0 34 -13.5 71.5t-34.5 37.5z" />
    <glyph glyph-name="abreve" unicode="&#x103;" horiz-adv-x="588" 
d="M318 721q-50 0 -82.5 20.5t-43.5 51t-11 56.5q0 15 12.5 25t28.5 10q24 0 36 -25.5t15 -29.5q5 -7 18 -16.5t25 -9.5q28 0 44 22q2 2 6 7.5t18.5 27.5t37.5 23q34 0 34 -48q0 -20 -13.5 -46.5t-48 -47t-76.5 -20.5zM420 22q-10 6 -24.5 20.5t-18.5 24.5q-55 -39 -87 -51
t-78 -12q-37 0 -72 14t-61 39.5t-41 60t-15 72.5q0 32 10 69t35.5 69.5t66.5 58.5t97 40t111 14q-1 53 -16.5 70t-42.5 17q-26 0 -73.5 -19.5t-67.5 -19.5q-29 0 -45.5 19.5t-16.5 57.5q0 25 14.5 46t43 38.5t78.5 30.5t95 13q78 0 134 -40t75 -108q16 -53 16 -140l-2 -53
q-3 -54 -3 -117q0 -81 29 -151q2 -4 9 -18.5t7 -20.5q0 -19 -25.5 -31.5t-59.5 -12.5q-19 0 -39 5.5t-33 14.5zM302 298q-29 0 -55.5 -12t-38 -31t-11.5 -37q0 -20 15 -33.5t34 -13.5q29 0 53.5 13t39.5 37v67q-8 10 -37 10z" />
    <glyph glyph-name="Aogonek" unicode="&#x104;" horiz-adv-x="569" 
d="M521 285q0 -5 6 -59t6 -81q0 -28 -5.5 -53.5t-16.5 -43.5q-10 -18 -27 -29l-34 -35q-31 -33 -42 -53q-5 -15 -5 -20q0 -9 5 -13q5 -3 11 -3q5 0 11.5 2t17 8t13.5 7q18 8 32 8q12 0 22 -6q11 -6 22 -16t11 -20q-1 -16 -14 -33t-26 -27q-23 -17 -57.5 -27.5t-64.5 -10.5
h-4q-45 1 -74 26.5t-29 68.5q0 15 3 28q6 27 26.5 61t57.5 67q-14 20 -22 53t-10.5 85t-5.5 59q-5 6 -20.5 10t-31.5 4t-31 -3.5t-17 -10.5q-3 -11 -6.5 -30.5t-5.5 -27.5q-1 -4 -9 -42t-18.5 -63.5t-28 -41.5t-43.5 -16q-28 0 -51.5 19.5t-36 62t-9.5 78.5q0 31 4.5 79
t18 129t13.5 83q22 131 74 185.5t141 54.5q56 0 96.5 -20.5t67.5 -57t48 -99.5t38 -236zM279 537q-19 0 -34.5 -36t-15.5 -74q0 -20 7.5 -32t38.5 -12h5q26 0 36.5 9.5t10.5 35.5q0 34 -13.5 71.5t-34.5 37.5z" />
    <glyph glyph-name="aogonek" unicode="&#x105;" horiz-adv-x="619" 
d="M428 16l-8 6q-10 6 -24.5 20.5t-18.5 24.5q-55 -39 -87 -51t-78 -12q-37 0 -72 14t-61 39.5t-41 60t-15 72.5q0 32 10 69t35.5 69.5t66.5 58.5t97 40t111 14q-1 53 -16.5 70t-42.5 17q-26 0 -73.5 -19.5t-67.5 -19.5q-29 0 -45.5 19.5t-16.5 57.5q0 25 14.5 46t43 38.5
t78.5 30.5t95 13q78 0 134 -40t75 -108q16 -53 16 -140l-2 -53q-3 -54 -3 -117q0 -81 29 -151q2 -4 9 -18.5t7 -20.5q0 -4 -2.5 -10t-5.5 -9l-19 -19l-38 -39q-31 -33 -42 -53q-5 -15 -5 -20q0 -9 5 -13q5 -3 11 -3q5 0 11.5 2t17 8t13.5 7q18 8 32 8q12 0 22 -6
q11 -6 22 -16t11 -20q-1 -16 -14 -33t-26 -27q-23 -17 -57.5 -27.5t-64.5 -10.5h-4q-45 1 -74 26.5t-29 68.5q0 15 3 28q7 35 32 69.5t52 58.5zM302 298q-29 0 -55.5 -12t-38 -31t-11.5 -37q0 -20 15 -33.5t34 -13.5q29 0 53.5 13t39.5 37v67q-8 10 -37 10z" />
    <glyph glyph-name="Cacute" unicode="&#x106;" horiz-adv-x="621" 
d="M383 898h10q25 0 37 -7q12 -6 12 -21q-1 -15 -20 -44.5t-52.5 -65.5t-46.5 -39l-13 -1q-15 1 -24 9t-9 19q0 9 4 19q10 28 28 64.5t36 54.5q12 12 38 12zM523 643q54 -42 54 -94q0 -38 -22 -61t-61 -23q-19 0 -46 9q-4 1 -37 14t-59 13q-47 0 -77.5 -21t-45 -56.5
t-14.5 -76.5q0 -31 14.5 -64t44 -53.5t64.5 -21.5q54 -2 102.5 30.5t64 36.5t26.5 4l20 -1q20 -4 34 -19.5t14 -40.5q0 -19 -4 -35q-7 -30 -27 -60.5t-55.5 -55.5t-82 -41t-94.5 -16q-67 0 -124 28t-96.5 76.5t-61 109.5t-21.5 124q0 33 7 75.5t26.5 86.5t49.5 79.5
t70.5 60.5t82 34.5t75.5 10.5q32 1 68.5 -6t65 -20t45.5 -26z" />
    <glyph glyph-name="cacute" unicode="&#x107;" horiz-adv-x="554" 
d="M343 892h10q25 0 37 -7q12 -6 12 -21q-1 -15 -20 -44.5t-52.5 -65.5t-46.5 -39l-13 -1q-15 1 -24 9t-9 19q0 9 4 19q10 28 28 64.5t36 54.5q12 12 38 12zM491 506q-6 -5 -20.5 -7.5t-68 -3t-74.5 -4.5q-22 -4 -46 -21t-40 -48.5t-16 -62.5q0 -124 94 -137l30 -2l108 5h8
q19 -1 37 -11.5t26 -28t8 -35.5q-1 -89 -90 -117q-51 -17 -118 -17q-78 0 -141 21q-31 10 -60.5 32t-53.5 62t-33.5 92t-9.5 96q0 108 30 188.5t92 126.5q79 59 209 59q31 0 75 -11.5t66 -35.5t22 -54q0 -32 -9.5 -56t-24.5 -30z" />
    <glyph glyph-name="Ccircumflex" unicode="&#x108;" horiz-adv-x="621" 
d="M325 882l27 3q27 0 42 -11q67 -52 90 -79.5t25 -46.5q0 -20 -10 -31t-27 -11q-5 0 -12 1t-15 6.5t-21 16.5t-19 16l-47 37l-4 1l-5 -2q-10 -6 -39 -32t-44 -37q-7 -6 -28 -6q-14 0 -26 9t-14 20l-1 9q0 20 13 33q80 91 115 104zM523 643q54 -42 54 -94q0 -38 -22 -61
t-61 -23q-19 0 -46 9q-4 1 -37 14t-59 13q-47 0 -77.5 -21t-45 -56.5t-14.5 -76.5q0 -31 14.5 -64t44 -53.5t64.5 -21.5q54 -2 102.5 30.5t64 36.5t26.5 4l20 -1q20 -4 34 -19.5t14 -40.5q0 -19 -4 -35q-7 -30 -27 -60.5t-55.5 -55.5t-82 -41t-94.5 -16q-67 0 -124 28
t-96.5 76.5t-61 109.5t-21.5 124q0 33 7 75.5t26.5 86.5t49.5 79.5t70.5 60.5t82 34.5t75.5 10.5q32 1 68.5 -6t65 -20t45.5 -26z" />
    <glyph glyph-name="ccircumflex" unicode="&#x109;" horiz-adv-x="554" 
d="M289 882l27 3q27 0 42 -11q67 -52 90 -79.5t25 -46.5q0 -20 -10 -31t-27 -11q-5 0 -12 1t-15 6.5t-21 16.5t-19 16l-47 37l-4 1l-5 -2q-10 -6 -39 -32t-44 -37q-7 -6 -28 -6q-14 0 -26 9t-14 20l-1 9q0 20 13 33q80 91 115 104zM491 506q-6 -5 -20.5 -7.5t-68 -3
t-74.5 -4.5q-22 -4 -46 -21t-40 -48.5t-16 -62.5q0 -124 94 -137l30 -2l108 5h8q19 -1 37 -11.5t26 -28t8 -35.5q-1 -89 -90 -117q-51 -17 -118 -17q-78 0 -141 21q-31 10 -60.5 32t-53.5 62t-33.5 92t-9.5 96q0 108 30 188.5t92 126.5q79 59 209 59q31 0 75 -11.5t66 -35.5
t22 -54q0 -32 -9.5 -56t-24.5 -30z" />
    <glyph glyph-name="Cdotaccent" unicode="&#x10a;" horiz-adv-x="621" 
d="M303 846q13 5 32 5q30 0 50 -16.5t20 -49.5q0 -27 -17 -45t-54 -18q-32 0 -49 17t-17 39q0 51 35 68zM523 643q54 -42 54 -94q0 -38 -22 -61t-61 -23q-19 0 -46 9q-4 1 -37 14t-59 13q-47 0 -77.5 -21t-45 -56.5t-14.5 -76.5q0 -31 14.5 -64t44 -53.5t64.5 -21.5
q54 -2 102.5 30.5t64 36.5t26.5 4l20 -1q20 -4 34 -19.5t14 -40.5q0 -19 -4 -35q-7 -30 -27 -60.5t-55.5 -55.5t-82 -41t-94.5 -16q-67 0 -124 28t-96.5 76.5t-61 109.5t-21.5 124q0 33 7 75.5t26.5 86.5t49.5 79.5t70.5 60.5t82 34.5t75.5 10.5q32 1 68.5 -6t65 -20
t45.5 -26z" />
    <glyph glyph-name="cdotaccent" unicode="&#x10b;" horiz-adv-x="554" 
d="M277 841q13 5 32 5q30 0 50 -16.5t20 -49.5q0 -27 -17 -45t-54 -18q-32 0 -49 17t-17 39q0 51 35 68zM491 506q-6 -5 -20.5 -7.5t-68 -3t-74.5 -4.5q-22 -4 -46 -21t-40 -48.5t-16 -62.5q0 -124 94 -137l30 -2l108 5h8q19 -1 37 -11.5t26 -28t8 -35.5q-1 -89 -90 -117
q-51 -17 -118 -17q-78 0 -141 21q-31 10 -60.5 32t-53.5 62t-33.5 92t-9.5 96q0 108 30 188.5t92 126.5q79 59 209 59q31 0 75 -11.5t66 -35.5t22 -54q0 -32 -9.5 -56t-24.5 -30z" />
    <glyph glyph-name="Ccaron" unicode="&#x10c;" horiz-adv-x="621" 
d="M325 731q-35 13 -115 104q-13 13 -13 33l1 9q2 11 14 20t26 9q21 0 28 -6q15 -11 44 -37t39 -32l6 -3l5 2l38 31q7 6 23.5 19.5t27 20t23.5 6.5q17 0 27 -11t10 -31q-1 -13 -17.5 -37.5t-97.5 -88.5q-15 -11 -42 -11zM523 643q54 -42 54 -94q0 -38 -22 -61t-61 -23
q-19 0 -46 9q-4 1 -37 14t-59 13q-47 0 -77.5 -21t-45 -56.5t-14.5 -76.5q0 -31 14.5 -64t44 -53.5t64.5 -21.5q54 -2 102.5 30.5t64 36.5t26.5 4l20 -1q20 -4 34 -19.5t14 -40.5q0 -19 -4 -35q-7 -30 -27 -60.5t-55.5 -55.5t-82 -41t-94.5 -16q-67 0 -124 28t-96.5 76.5
t-61 109.5t-21.5 124q0 33 7 75.5t26.5 86.5t49.5 79.5t70.5 60.5t82 34.5t75.5 10.5q32 1 68.5 -6t65 -20t45.5 -26z" />
    <glyph glyph-name="ccaron" unicode="&#x10d;" horiz-adv-x="554" 
d="M301 726q-35 13 -115 104q-13 13 -13 33l1 9q2 11 14 20t26 9q21 0 28 -6q15 -11 44 -37t39 -32l6 -3l5 2l38 31q7 6 23.5 19.5t27 20t23.5 6.5q17 0 27 -11t10 -31q-1 -13 -17.5 -37.5t-97.5 -88.5q-15 -11 -42 -11zM491 506q-6 -5 -20.5 -7.5t-68 -3t-74.5 -4.5
q-22 -4 -46 -21t-40 -48.5t-16 -62.5q0 -124 94 -137l30 -2l108 5h8q19 -1 37 -11.5t26 -28t8 -35.5q-1 -89 -90 -117q-51 -17 -118 -17q-78 0 -141 21q-31 10 -60.5 32t-53.5 62t-33.5 92t-9.5 96q0 108 30 188.5t92 126.5q79 59 209 59q31 0 75 -11.5t66 -35.5t22 -54
q0 -32 -9.5 -56t-24.5 -30z" />
    <glyph glyph-name="Dcaron" unicode="&#x10e;" horiz-adv-x="591" 
d="M210 697q77 0 144 -27t115.5 -76t75.5 -115t27 -140t-21.5 -136t-63.5 -107t-104.5 -69.5t-140.5 -24.5q-102 0 -143 33t-44 105v485q0 27 19 43q34 29 136 29zM236 731q-35 13 -115 104q-13 13 -13 33l1 9q2 11 14 20t26 9q21 0 28 -6q15 -11 44 -37t39 -32l6 -3l5 2
l38 31q7 6 23.5 19.5t27 20t23.5 6.5q17 0 27 -11t10 -31q-1 -13 -17.5 -37.5t-97.5 -88.5q-15 -11 -42 -11zM271 504h-7q-3 0 -13 -2.5t-17 -11.5v-265q9 -8 28 -8q23 0 47 15t41.5 51t17.5 79q0 39 -14.5 72.5t-35.5 51.5t-47 18z" />
    <glyph glyph-name="dcaron" unicode="&#x10f;" horiz-adv-x="708" 
d="M590 444q-11 0 -23 4.5t-17 13.5q-8 15 -4 25q5 10 10 23t6 36l-2 14l-18 23q-3 4 -5 15t-2 18v14q0 12 9 28q9 17 28 24t39 7q25 0 41.5 -7.5t28.5 -26.5q9 -15 9 -44q0 -28 -16.5 -70.5t-38.5 -69.5t-45 -27zM88 664q41 27 121 27q64 0 121.5 -24.5t100 -68t66 -101
t23.5 -120.5q0 -94 -25 -166t-71 -118.5t-109.5 -69t-139.5 -21.5q-48 1 -77.5 15.5t-36.5 38.5q-14 47 -14 196q0 247 5 311q7 82 36 101zM219 491l1 -258q1 -2 8.5 -4t13.5 -2q20 0 42 14t38 52t16 85q0 51 -25.5 85.5t-74.5 34.5q-15 0 -19 -7z" />
    <glyph glyph-name="Dcroat" unicode="&#x110;" horiz-adv-x="633" 
d="M138 681q56 16 114 16q49 0 101 -11t85 -32q88 -54 132 -134.5t44 -180.5q0 -74 -21.5 -136t-63.5 -107t-104.5 -69.5t-140.5 -24.5q-102 0 -143 33t-44 105v163h-24l-17 -1q-31 0 -47 12q-20 17 -20 53v3q2 21 20 33t36 12l52 1v200l-1 9q0 34 42 56zM313 504h-7
q-3 0 -13 -2.5t-17 -11.5v-76q55 -2 63 -8l2 -1q6 -2 13.5 -15t7.5 -22q0 -40 -19 -55q-4 -4 -26 -10h-41v-78q11 -10 26 -10q22 0 47 14.5t43 51.5t18 81q0 39 -14.5 72.5t-35.5 51.5t-47 18z" />
    <glyph glyph-name="dcroat" unicode="&#x111;" horiz-adv-x="584" 
d="M132 664q41 27 121 27q64 0 121.5 -24t100 -66.5t66 -99t23.5 -119.5q0 -91 -25 -163t-71 -120t-109.5 -72.5t-139.5 -24.5q-48 0 -77.5 15t-36.5 39q-14 47 -14 196v51h-14l-17 -1q-31 0 -47 12q-20 17 -20 53v3q2 21 20 33t36 12h11t15 1t16 1q2 114 5 146q7 82 36 101
zM263 491v-79q34 -2 40 -6l2 -1q6 -2 13.5 -15t7.5 -22q0 -40 -19 -55q-4 -4 -26 -10h-17v-70q1 -2 8.5 -4t13.5 -2q20 0 42 14t38 52t16 85q0 51 -25.5 85.5t-74.5 34.5q-15 0 -19 -7z" />
    <glyph glyph-name="Emacron" unicode="&#x112;" horiz-adv-x="521" 
d="M431 738q-5 -3 -17.5 -5t-14.5 -2h-179l-22 -1q-37 0 -57 10q-17 9 -17 42q3 19 22 29.5t38 10.5l115 2q110 0 127 -9l3 -1q8 -2 16.5 -13t8.5 -17q0 -33 -23 -46zM228 421h47q63 -1 83.5 -6.5t30 -16t9.5 -27.5q0 -25 -9.5 -43t-25 -28.5t-38.5 -17t-58.5 -9.5t-41.5 -4
v-13q0 -26 12 -46.5t40 -25.5q15 -3 54 -3q19 0 57.5 4.5t55.5 4.5q27 0 44 -19.5t17 -44.5q0 -45 -30.5 -73t-79 -40t-102.5 -12q-36 0 -79 6t-79 23t-55 41q-14 18 -27 54t-20.5 92t-7.5 114q0 74 13.5 140.5t36 112t55.5 67.5q30 19 85.5 33t114.5 14q47 0 84 -11
t57.5 -33t20.5 -57q0 -20 -2 -25q-2 -7 -9 -16t-22.5 -15.5t-33.5 -9.5t-102 -6.5t-94 -42.5q-3 -12 -3 -33z" />
    <glyph glyph-name="emacron" unicode="&#x113;" horiz-adv-x="551" 
d="M442 736q-5 -3 -17.5 -5t-14.5 -2h-179l-22 -1q-37 0 -57 10q-17 9 -17 42q3 19 22 29.5t38 10.5l115 2q110 0 127 -9l3 -1q8 -2 16.5 -13t8.5 -17q0 -33 -23 -46zM249 234q0 -19 19 -35q12 -10 30.5 -16t33.5 -6q57 0 130 27q9 3 17 3q13 0 24 -12t18 -26q8 -16 8 -31
q0 -24 -14 -47q-21 -35 -64 -56.5t-85 -27.5t-71 -5q-31 1 -68 11t-72 35t-65 66.5t-47.5 101.5t-17.5 124q0 59 14 116t40 101q16 27 47.5 58.5t80.5 52.5t100 21q34 0 72 -9.5t76 -35.5t57.5 -67.5t19.5 -84.5q0 -29 -9 -64t-26 -59q-16 -22 -48.5 -48t-82.5 -45t-101 -24
q-7 -1 -11.5 -6t-4.5 -12zM359 489q0 38 -34 38q-19 0 -38.5 -10t-31.5 -22q-18 -18 -27 -44t-9 -50l1 -15q28 1 62.5 18t55.5 39t21 46z" />
    <glyph glyph-name="Edotaccent" unicode="&#x116;" horiz-adv-x="521" 
d="M257 844q13 5 32 5q30 0 50 -16.5t20 -49.5q0 -27 -17 -45t-54 -18q-32 0 -49 17t-17 39q0 51 35 68zM228 421h47q63 -1 83.5 -6.5t30 -16t9.5 -27.5q0 -25 -9.5 -43t-25 -28.5t-38.5 -17t-58.5 -9.5t-41.5 -4v-13q0 -26 12 -46.5t40 -25.5q15 -3 54 -3q19 0 57.5 4.5
t55.5 4.5q27 0 44 -19.5t17 -44.5q0 -45 -30.5 -73t-79 -40t-102.5 -12q-36 0 -79 6t-79 23t-55 41q-14 18 -27 54t-20.5 92t-7.5 114q0 74 13.5 140.5t36 112t55.5 67.5q30 19 85.5 33t114.5 14q47 0 84 -11t57.5 -33t20.5 -57q0 -20 -2 -25q-2 -7 -9 -16t-22.5 -15.5
t-33.5 -9.5t-102 -6.5t-94 -42.5q-3 -12 -3 -33z" />
    <glyph glyph-name="edotaccent" unicode="&#x117;" horiz-adv-x="551" 
d="M267 843q13 5 32 5q30 0 50 -16.5t20 -49.5q0 -27 -17 -45t-54 -18q-32 0 -49 17t-17 39q0 51 35 68zM249 234q0 -19 19 -35q12 -10 30.5 -16t33.5 -6q57 0 130 27q9 3 17 3q13 0 24 -12t18 -26q8 -16 8 -31q0 -24 -14 -47q-21 -35 -64 -56.5t-85 -27.5t-71 -5
q-31 1 -68 11t-72 35t-65 66.5t-47.5 101.5t-17.5 124q0 59 14 116t40 101q16 27 47.5 58.5t80.5 52.5t100 21q34 0 72 -9.5t76 -35.5t57.5 -67.5t19.5 -84.5q0 -29 -9 -64t-26 -59q-16 -22 -48.5 -48t-82.5 -45t-101 -24q-7 -1 -11.5 -6t-4.5 -12zM359 489q0 38 -34 38
q-19 0 -38.5 -10t-31.5 -22q-18 -18 -27 -44t-9 -50l1 -15q28 1 62.5 18t55.5 39t21 46z" />
    <glyph glyph-name="Eogonek" unicode="&#x118;" horiz-adv-x="522" 
d="M228 421h47q63 -1 83.5 -6.5t30 -16t9.5 -27.5q0 -25 -9.5 -43t-25 -28.5t-38.5 -17t-58.5 -9.5t-41.5 -4v-13q0 -26 12 -46.5t40 -25.5q15 -3 54 -3q19 0 57.5 4.5t55.5 4.5q27 0 44 -19.5t17 -44.5q0 -64 -64 -97l-33 -35q-31 -33 -42 -53q-5 -15 -5 -20q0 -9 5 -13
q5 -3 11 -3q5 0 11.5 2t17 8t13.5 7q18 8 32 8q12 0 22 -6q11 -6 22 -16t11 -20q-1 -16 -14 -33t-26 -27q-23 -17 -57.5 -27.5t-64.5 -10.5h-4q-45 1 -74 26.5t-29 68.5q0 15 3 28q10 45 47 88q-74 1 -128 19.5t-79 50.5q-14 18 -27 54t-20.5 92t-7.5 114q0 74 13.5 140.5
t36 112t55.5 67.5q30 19 85.5 33t114.5 14q47 0 84 -11t57.5 -33t20.5 -57q0 -20 -2 -25q-2 -7 -9 -16t-22.5 -15.5t-33.5 -9.5t-102 -6.5t-94 -42.5q-3 -12 -3 -33z" />
    <glyph glyph-name="eogonek" unicode="&#x119;" horiz-adv-x="551" 
d="M249 234q0 -19 19 -35q12 -10 30.5 -16t33.5 -6q57 0 130 27q9 3 17 3q13 0 24 -12t18 -26q8 -16 8 -31q0 -24 -14 -47q-25 -42 -82 -66l-18 -20q-31 -33 -42 -53q-5 -15 -5 -20q0 -9 5 -13q5 -3 11 -3q5 0 11.5 2t17 8t13.5 7q18 8 32 8q12 0 22 -6q11 -6 22 -16t11 -20
q-1 -16 -14 -33t-26 -27q-23 -17 -57.5 -27.5t-64.5 -10.5h-4q-45 1 -74 26.5t-29 68.5q0 15 3 28q8 38 39 78q-61 4 -111 33t-83 76t-50 106.5t-17 122.5q0 59 14 116t40 101q16 27 47.5 58.5t80.5 52.5t100 21q34 0 72 -9.5t76 -35.5t57.5 -67.5t19.5 -84.5q0 -29 -9 -64
t-26 -59q-16 -22 -48.5 -48t-82.5 -45t-101 -24q-7 -1 -11.5 -6t-4.5 -12zM359 489q0 38 -34 38q-19 0 -38.5 -10t-31.5 -22q-18 -18 -27 -44t-9 -50l1 -15q28 1 62.5 18t55.5 39t21 46z" />
    <glyph glyph-name="Ecaron" unicode="&#x11a;" horiz-adv-x="521" 
d="M265 731q-35 13 -115 104q-13 13 -13 33l1 9q2 11 14 20t26 9q21 0 28 -6q15 -11 44 -37t39 -32l6 -3l5 2l38 31q7 6 23.5 19.5t27 20t23.5 6.5q17 0 27 -11t10 -31q-1 -13 -17.5 -37.5t-97.5 -88.5q-15 -11 -42 -11zM228 421h47q63 -1 83.5 -6.5t30 -16t9.5 -27.5
q0 -25 -9.5 -43t-25 -28.5t-38.5 -17t-58.5 -9.5t-41.5 -4v-13q0 -26 12 -46.5t40 -25.5q15 -3 54 -3q19 0 57.5 4.5t55.5 4.5q27 0 44 -19.5t17 -44.5q0 -45 -30.5 -73t-79 -40t-102.5 -12q-36 0 -79 6t-79 23t-55 41q-14 18 -27 54t-20.5 92t-7.5 114q0 74 13.5 140.5
t36 112t55.5 67.5q30 19 85.5 33t114.5 14q47 0 84 -11t57.5 -33t20.5 -57q0 -20 -2 -25q-2 -7 -9 -16t-22.5 -15.5t-33.5 -9.5t-102 -6.5t-94 -42.5q-3 -12 -3 -33z" />
    <glyph glyph-name="ecaron" unicode="&#x11b;" horiz-adv-x="551" 
d="M278 717q-35 13 -115 104q-13 13 -13 33l1 9q2 11 14 20t26 9q21 0 28 -6q15 -11 44 -37t39 -32l6 -3l5 2l38 31q7 6 23.5 19.5t27 20t23.5 6.5q17 0 27 -11t10 -31q-1 -13 -17.5 -37.5t-97.5 -88.5q-15 -11 -42 -11zM249 234q0 -19 19 -35q12 -10 30.5 -16t33.5 -6
q57 0 130 27q9 3 17 3q13 0 24 -12t18 -26q8 -16 8 -31q0 -24 -14 -47q-21 -35 -64 -56.5t-85 -27.5t-71 -5q-31 1 -68 11t-72 35t-65 66.5t-47.5 101.5t-17.5 124q0 59 14 116t40 101q16 27 47.5 58.5t80.5 52.5t100 21q34 0 72 -9.5t76 -35.5t57.5 -67.5t19.5 -84.5
q0 -29 -9 -64t-26 -59q-16 -22 -48.5 -48t-82.5 -45t-101 -24q-7 -1 -11.5 -6t-4.5 -12zM359 489q0 38 -34 38q-19 0 -38.5 -10t-31.5 -22q-18 -18 -27 -44t-9 -50l1 -15q28 1 62.5 18t55.5 39t21 46z" />
    <glyph glyph-name="Gcircumflex" unicode="&#x11c;" horiz-adv-x="615" 
d="M294 878l27 3q27 0 42 -11q67 -52 90 -79.5t25 -46.5q0 -20 -10 -31t-27 -11q-5 0 -12 1t-15 6.5t-21 16.5t-19 16l-47 37l-4 1l-5 -2q-10 -6 -39 -32t-44 -37q-7 -6 -28 -6q-14 0 -26 9t-14 20l-1 9q0 20 13 33q80 91 115 104zM454 471q-6 3 -36 26.5t-74 23.5
q-23 0 -46.5 -10t-45 -36.5t-31 -66t-9.5 -73.5q0 -53 17 -87t44.5 -50.5t63.5 -16.5q44 1 69 23.5t25 46.5v6l-46 1q-18 0 -32 7t-18 20t-4 32q0 36 27 55.5t99 19.5q33 0 47 -2q61 -5 81 -60q11 -36 11 -76v-5q0 -60 -24 -109t-65.5 -81.5t-94 -48.5t-107.5 -15
q-57 1 -103.5 20.5t-79 52t-53.5 72.5t-33.5 90t-12.5 105q0 70 22.5 135.5t64.5 116t100.5 79.5t126.5 29q50 0 95.5 -14t79.5 -39t53 -59t19 -72q0 -25 -21 -38t-58 -13q-32 0 -51 11z" />
    <glyph glyph-name="gcircumflex" unicode="&#x11d;" horiz-adv-x="660" 
d="M317 878l27 3q27 0 42 -11q67 -52 90 -79.5t25 -46.5q0 -20 -10 -31t-27 -11q-5 0 -12 1t-15 6.5t-21 16.5t-19 16l-47 37l-4 1l-5 -2q-10 -6 -39 -32t-44 -37q-7 -6 -28 -6q-14 0 -26 9t-14 20l-1 9q0 20 13 33q80 91 115 104zM335 -4h-18q-65 0 -119 23.5t-92.5 67.5
t-60 105t-22.5 133v11q0 71 23.5 135.5t67.5 114t105.5 77.5t132.5 28q85 0 138.5 -26t54.5 -78q-1 -29 -12 -52t-30.5 -32t-37.5 -9l-40 4q-27 3 -66 3q-46 0 -79.5 -20t-54 -59t-20.5 -97v-7q2 -36 18.5 -68.5t35.5 -47t34 -18.5t28 -4q37 0 62.5 17.5t25.5 42.5
q-49 0 -72.5 18t-24.5 58q0 27 19 46q9 9 26 15.5t30 7.5q54 6 121 8h19q64 0 94.5 -19t30.5 -62q0 -16 -9 -31t-24 -22q-7 -4 -25 -11t-21 -8v-17q0 -43 -19.5 -84.5t-53 -73.5t-77 -50.5t-88.5 -18.5z" />
    <glyph glyph-name="Gbreve" unicode="&#x11e;" horiz-adv-x="615" 
d="M327 718q-50 0 -82.5 20.5t-43.5 51t-11 56.5q0 15 12.5 25t28.5 10q24 0 36 -25.5t15 -29.5q5 -7 18 -16.5t25 -9.5q28 0 44 22q2 2 6 7.5t18.5 27.5t37.5 23q34 0 34 -48q0 -20 -13.5 -46.5t-48 -47t-76.5 -20.5zM454 471q-6 3 -36 26.5t-74 23.5q-23 0 -46.5 -10
t-45 -36.5t-31 -66t-9.5 -73.5q0 -53 17 -87t44.5 -50.5t63.5 -16.5q44 1 69 23.5t25 46.5v6l-46 1q-18 0 -32 7t-18 20t-4 32q0 36 27 55.5t99 19.5q33 0 47 -2q61 -5 81 -60q11 -36 11 -76v-5q0 -60 -24 -109t-65.5 -81.5t-94 -48.5t-107.5 -15q-57 1 -103.5 20.5t-79 52
t-53.5 72.5t-33.5 90t-12.5 105q0 70 22.5 135.5t64.5 116t100.5 79.5t126.5 29q50 0 95.5 -14t79.5 -39t53 -59t19 -72q0 -25 -21 -38t-58 -13q-32 0 -51 11z" />
    <glyph glyph-name="gbreve" unicode="&#x11f;" horiz-adv-x="660" 
d="M353 716q-50 0 -82.5 20.5t-43.5 51t-11 56.5q0 15 12.5 25t28.5 10q24 0 36 -25.5t15 -29.5q5 -7 18 -16.5t25 -9.5q28 0 44 22q2 2 6 7.5t18.5 27.5t37.5 23q34 0 34 -48q0 -20 -13.5 -46.5t-48 -47t-76.5 -20.5zM454 471q-6 3 -36 26.5t-74 23.5q-23 0 -46.5 -10
t-45 -36.5t-31 -66t-9.5 -73.5q0 -53 17 -87t44.5 -50.5t63.5 -16.5q44 1 69 23.5t25 46.5v6l-46 1q-18 0 -32 7t-18 20t-4 32q0 36 27 55.5t99 19.5q33 0 47 -2q61 -5 81 -60q11 -36 11 -76v-5q0 -60 -24 -109t-65.5 -81.5t-94 -48.5t-107.5 -15q-57 1 -103.5 20.5t-79 52
t-53.5 72.5t-33.5 90t-12.5 105q0 70 22.5 135.5t64.5 116t100.5 79.5t126.5 29q50 0 95.5 -14t79.5 -39t53 -59t19 -72q0 -25 -21 -38t-58 -13q-32 0 -51 11z" />
    <glyph glyph-name="Gdotaccent" unicode="&#x120;" horiz-adv-x="615" 
d="M285 851q13 5 32 5q30 0 50 -16.5t20 -49.5q0 -27 -17 -45t-54 -18q-32 0 -49 17t-17 39q0 51 35 68zM454 471q-6 3 -36 26.5t-74 23.5q-23 0 -46.5 -10t-45 -36.5t-31 -66t-9.5 -73.5q0 -53 17 -87t44.5 -50.5t63.5 -16.5q44 1 69 23.5t25 46.5v6l-46 1q-18 0 -32 7
t-18 20t-4 32q0 36 27 55.5t99 19.5q33 0 47 -2q61 -5 81 -60q11 -36 11 -76v-5q0 -60 -24 -109t-65.5 -81.5t-94 -48.5t-107.5 -15q-57 1 -103.5 20.5t-79 52t-53.5 72.5t-33.5 90t-12.5 105q0 70 22.5 135.5t64.5 116t100.5 79.5t126.5 29q50 0 95.5 -14t79.5 -39t53 -59
t19 -72q0 -25 -21 -38t-58 -13q-32 0 -51 11z" />
    <glyph glyph-name="gdotaccent" unicode="&#x121;" horiz-adv-x="660" 
d="M303 846q13 5 32 5q30 0 50 -16.5t20 -49.5q0 -27 -17 -45t-54 -18q-32 0 -49 17t-17 39q0 51 35 68zM335 -4h-18q-65 0 -119 23.5t-92.5 67.5t-60 105t-22.5 133v11q0 71 23.5 135.5t67.5 114t105.5 77.5t132.5 28q85 0 138.5 -26t54.5 -78q-1 -29 -12 -52t-30.5 -32
t-37.5 -9l-40 4q-27 3 -66 3q-46 0 -79.5 -20t-54 -59t-20.5 -97v-7q2 -36 18.5 -68.5t35.5 -47t34 -18.5t28 -4q37 0 62.5 17.5t25.5 42.5q-49 0 -72.5 18t-24.5 58q0 27 19 46q9 9 26 15.5t30 7.5q54 6 121 8h19q64 0 94.5 -19t30.5 -62q0 -16 -9 -31t-24 -22
q-7 -4 -25 -11t-21 -8v-17q0 -43 -19.5 -84.5t-53 -73.5t-77 -50.5t-88.5 -18.5z" />
    <glyph glyph-name="Gcommaaccent" unicode="&#x122;" horiz-adv-x="615" 
d="M286 -256h-10q-27 0 -35 12q-6 8 -6 17q0 6 3 9q3 4 14 18.5t12 31.5l-2 14l-22 23q-3 4 -5 15t-2 18v14q0 12 9 28q9 17 28 24t39 7q25 0 41.5 -7.5t28.5 -26.5q9 -15 9 -44q0 -23 -14.5 -60t-39 -64t-48.5 -29zM454 471q-6 3 -36 26.5t-74 23.5q-23 0 -46.5 -10
t-45 -36.5t-31 -66t-9.5 -73.5q0 -53 17 -87t44.5 -50.5t63.5 -16.5q44 1 69 22t25 45v9l-46 1q-18 0 -32 7t-18 20t-4 32q0 36 27 55.5t99 19.5q33 0 47 -2q61 -5 81 -60q11 -36 11 -76v-5q0 -60 -24 -109t-65.5 -81.5t-94 -48.5t-107.5 -15q-57 1 -103.5 20.5t-79 52
t-53.5 72.5t-33.5 90t-12.5 105q0 70 23 135.5t64.5 116t97.5 79.5t119 29q49 0 96 -13.5t83 -38.5t57 -59t21 -73q0 -24 -20.5 -37t-85.5 -13q-7 0 -24 10z" />
    <glyph glyph-name="gcommaaccent" unicode="&#x123;" horiz-adv-x="660" 
d="M645 281q-6 -8 -15 -15t-29 -14.5t-28 -11.5v-17q0 -46 -18 -87.5t-49.5 -73t-74.5 -49t-90 -17.5h-24q-65 0 -119 23.5t-92.5 67.5t-60 105t-22.5 133v11q0 71 23.5 135.5t67.5 114t105.5 77.5t132.5 28q85 0 138.5 -26t54.5 -78q-1 -28 -13 -51t-31 -32t-36 -10
q-45 5 -69.5 6t-46.5 1q-44 -1 -78 -24.5t-50 -65t-16 -86.5v-7q2 -36 18.5 -68.5t35.5 -47t34 -18.5t28 -4q38 2 63 18.5t25 41.5q-49 0 -72.5 18t-24.5 58q0 21 12 38t31 25q15 5 61 9t92 5h19q65 0 93.5 -18.5t31.5 -64.5q0 -10 -7 -29zM305 -254h-10q-27 0 -35 12
q-6 8 -6 17q0 6 3 9q3 4 14 18.5t12 31.5l-2 14l-22 23q-3 4 -5 15t-2 18v14q0 12 9 28q9 17 28 24t39 7q25 0 41.5 -7.5t28.5 -26.5q9 -15 9 -44q0 -23 -14.5 -60t-39 -64t-48.5 -29z" />
    <glyph glyph-name="Hcircumflex" unicode="&#x124;" horiz-adv-x="594" 
d="M274 889l27 3q27 0 42 -11q67 -52 90 -79.5t25 -46.5q0 -20 -10 -31t-27 -11q-5 0 -12 1t-15 6.5t-21 16.5t-19 16l-47 37l-4 1l-5 -2q-10 -6 -39 -32t-44 -37q-7 -6 -28 -6q-14 0 -26 9t-14 20l-1 9q0 20 13 33q80 91 115 104zM455 6q-79 0 -90 57q-9 45 -9 134
q0 39 -7.5 59.5t-49.5 20.5q-43 0 -54.5 -14.5t-11.5 -39.5q0 -21 2.5 -53.5t2.5 -45.5q0 -47 -18 -79.5t-54 -32.5q-27 0 -51 17q-38 27 -59 124q-19 89 -19 210q0 92 9 177q7 72 17 91q5 15 17.5 29t32.5 21t37 7q40 0 60 -22.5t20 -61.5v-91q0 -54 14.5 -70t38.5 -16
q32 0 46 7.5t21 26t7 88.5v21q0 26 9.5 55.5t35 49t60.5 19.5q43 0 66 -23t28 -80q3 -33 3 -92q0 -100 -7.5 -221.5t-19.5 -188.5q-14 -83 -77 -83z" />
    <glyph glyph-name="hcircumflex" unicode="&#x125;" horiz-adv-x="572" 
d="M262 893l27 3q27 0 42 -11q67 -52 90 -79.5t25 -46.5q0 -20 -10 -31t-27 -11q-5 0 -12 1t-15 6.5t-21 16.5t-19 16l-47 37l-4 1l-5 -2q-10 -6 -39 -32t-44 -37q-7 -6 -28 -6q-14 0 -26 9t-14 20l-1 9q0 20 13 33q80 91 115 104zM450 2h-7q-27 0 -44.5 6t-27.5 23
q-25 39 -25 143v57l-115 -8q-1 -11 -2.5 -81.5t-11.5 -99.5q-9 -26 -28.5 -35t-45.5 -9q-48 0 -65.5 18t-23.5 47q-11 55 -17 185t-6 289v11q0 52 6.5 79.5t28 42.5t63.5 15q37 0 62 -22q30 -29 30 -99l3 -132v-29l121 -1l1 47q0 84 1 103.5t3 30.5q6 41 17 62.5t32 32.5
t59 11q31 0 48 -15.5t24 -49.5q10 -47 10 -139v-202q0 -209 -29 -250q-9 -13 -27 -21.5t-34 -9.5z" />
    <glyph glyph-name="Hbar" unicode="&#x126;" horiz-adv-x="641" 
d="M393 33q-9 7 -15 48.5t-6 115.5q0 28 -1 45t-10 26q-8 8 -50 8q-38 0 -49 -10q-3 -3 -8 -9.5t-5 -33.5q0 -21 2.5 -53.5t2.5 -45.5q0 -47 -18 -79.5t-54 -32.5q-25 0 -51 19q-38 27 -58 119t-20 213q0 50 3 107q-23 3 -37 9q-22 7 -27.5 12.5t-8 14t-2.5 18.5v2
q0 15 19 26t64 12q7 53 15 67q5 15 17.5 29t32.5 21t37 7q40 0 60 -22.5t20 -61.5l-2 -37h49l80 -1v4q0 26 9.5 55.5t35 49t60.5 19.5q43 0 66 -23t28 -80l2 -30l29 -3l4 -2q11 -1 25 -12t14 -19q0 -35 -35 -48q-6 -2 -36 -7q-2 -102 -9 -211t-18 -170q-6 -37 -25 -60
t-49 -23q-25 0 -44.5 5t-36.5 22zM257 437q11 -10 42 -10q22 0 38.5 2t22.5 11q7 8 10 29h-126q3 -25 13 -32z" />
    <glyph glyph-name="hbar" unicode="&#x127;" horiz-adv-x="628" 
d="M582 464l-14 -4l-2 -92v-109q0 -111 -7 -159.5t-20 -66.5q-9 -13 -27 -21.5t-34 -9.5h-7q-15 0 -30.5 2.5t-17.5 5.5q-22 8 -33 37t-11.5 90t-1.5 74t-3 22q-13 -3 -61 -6t-54 -4q-1 -15 -3 -82t-8 -91t-13 -35q-13 -19 -50 -19l-17 1q-55 0 -77 34q-6 8 -12 32t-10.5 62
t-4.5 66v39l-5 230l-19 5q-26 9 -36 20t-10 26v3q5 23 65 34q0 62 10 95q7 26 43 39q21 3 45 3q37 0 62 -22q30 -29 30 -99v-9h128q5 64 21 93q8 14 28 26t42 12q53 0 65 -9q15 -10 23.5 -45.5t10.5 -85.5l5 -1l5 -1q14 -2 31 -13t17 -19q0 -34 -43 -48zM252 454v-51l121 -1
l1 47v5h-122z" />
    <glyph glyph-name="Itilde" unicode="&#x128;" horiz-adv-x="351" 
d="M231 828q15 0 29.5 6t35 21.5t31.5 15.5q9 0 15 -3q7 -4 11 -14t4 -17q0 -11 -6 -26t-13 -24q-20 -26 -43.5 -41.5t-57.5 -15.5q-25 0 -64 20.5t-62 20.5q-19 0 -50.5 -15.5t-39.5 -15.5l-11 4q-11 4 -11 25q0 15 15.5 45.5t41.5 46.5t56 16q15 0 34 -7t47.5 -24.5
t37.5 -17.5zM264 525l-1 -93v-98l-4 -157q0 -21 14 -28q28 -14 36.5 -26t8.5 -43q0 -34 -13 -50.5t-30 -20.5q-25 -6 -124 -6q-69 0 -95.5 12.5t-26.5 60.5q0 47 22 59q37 20 38 36l1 219l2 75q0 43 -6 60q-6 18 -31 27q-14 5 -20.5 21.5t-6.5 36.5q0 33 10 50q9 16 37 25.5
t87 9.5h23q72 0 104.5 -15t34.5 -54v-11q0 -23 -9 -41.5t-39 -30.5q-10 -4 -12 -18z" />
    <glyph glyph-name="itilde" unicode="&#x129;" horiz-adv-x="279" 
d="M244 529v-32q0 -66 -7.5 -215t-7.5 -212v-37q-34 -28 -97 -28l-20 1q-22 3 -43.5 20.5t-23.5 45.5q-3 41 -3 84q0 48 5 158t5 162l-1 60l-2 97v39l27 12q27 8 52 8q35 0 62 -14t39 -39q13 -28 15 -110zM203 833q15 0 29.5 6t35 21.5t31.5 15.5q9 0 15 -3q7 -4 11 -14
t4 -17q0 -11 -6 -26t-13 -24q-20 -26 -43.5 -41.5t-57.5 -15.5q-25 0 -64 20.5t-62 20.5q-19 0 -50.5 -15.5t-39.5 -15.5l-11 4q-11 4 -11 25q0 15 15.5 45.5t41.5 46.5t56 16q15 0 34 -7t47.5 -24.5t37.5 -17.5z" />
    <glyph glyph-name="Imacron" unicode="&#x12a;" horiz-adv-x="349" 
d="M320 747q-5 -3 -17.5 -5t-14.5 -2h-179l-22 -1q-37 0 -57 10q-17 9 -17 42q3 19 22 29.5t38 10.5l115 2q41 1 79.5 -1.5t47.5 -7.5l3 -1q8 -2 16.5 -13t8.5 -17q0 -33 -23 -46zM264 525l-1 -93v-98l-4 -157q0 -21 14 -28q28 -14 36.5 -26t8.5 -43q0 -34 -13 -50.5
t-30 -20.5q-25 -6 -124 -6q-69 0 -95.5 12.5t-26.5 60.5q0 47 22 59q37 20 38 36l1 219l2 75q0 43 -6 60q-6 18 -31 27q-14 5 -20.5 21.5t-6.5 36.5q0 33 10 50q9 16 37 25.5t87 9.5h23q72 0 104.5 -15t34.5 -54v-11q0 -23 -9 -41.5t-39 -30.5q-10 -4 -12 -18z" />
    <glyph glyph-name="imacron" unicode="&#x12b;" horiz-adv-x="279" 
d="M242 529v-32q0 -66 -7.5 -215t-7.5 -212v-37q-34 -28 -97 -28l-20 1q-22 3 -43.5 20.5t-23.5 45.5q-3 41 -3 84q0 48 5 158t5 162l-1 60l-2 97v39l27 12q27 8 52 8q35 0 62 -14t39 -39q13 -28 15 -110zM290 739q-5 -3 -17.5 -5t-14.5 -2h-179l-22 -1q-37 0 -57 10
q-17 9 -17 42q3 19 22 29.5t38 10.5l115 2q110 0 127 -9l3 -1q8 -2 16.5 -13t8.5 -17q0 -33 -23 -46z" />
    <glyph glyph-name="Iogonek" unicode="&#x12e;" horiz-adv-x="348" 
d="M264 525l-1 -93v-98l-4 -157q0 -11 4 -18t17 -13.5t17 -10.5q11 -11 16 -24t5 -31q0 -16 -2 -24q-4 -25 -24 -40l-38 -39q-31 -33 -42 -53q-5 -15 -5 -20q0 -9 5 -13q5 -3 11 -3q5 0 11.5 2t17 8t13.5 7q18 8 32 8q12 0 22 -6q11 -6 22 -16t11 -20q-1 -16 -14 -33
t-26 -27q-23 -17 -57.5 -27.5t-64.5 -10.5h-4q-45 1 -74 26.5t-29 68.5q0 15 3 28q11 52 64 107q-53 0 -77 6t-34 21.5t-10 45.5q0 47 22 59q37 20 38 36l1 219l2 75q0 43 -6 60q-6 18 -31 27q-14 5 -20.5 21.5t-6.5 36.5q0 33 10 50q9 16 37 25.5t87 9.5h23q72 0 104.5 -15
t34.5 -54v-11q0 -23 -9 -41.5t-39 -30.5q-10 -4 -12 -18z" />
    <glyph glyph-name="iogonek" unicode="&#x12f;" horiz-adv-x="346" 
d="M266 70v-32q0 -4 -4 -8l-50 -49q-31 -33 -42 -53q-5 -15 -5 -20q0 -9 5 -13q5 -3 11 -3q5 0 11.5 2t17 8t13.5 7q18 8 32 8q12 0 22 -6q11 -6 22 -16t11 -20q-1 -16 -14 -33t-26 -27q-23 -17 -57.5 -27.5t-64.5 -10.5h-4q-45 1 -74 26.5t-29 68.5q0 15 3 28q5 24 23 54.5
t51 61.5q-14 9 -24.5 23.5t-11.5 32.5q-3 41 -3 84q0 48 5 158t5 162l-1 60l-2 97v39l27 12q27 8 52 8q35 0 62 -14t39 -39q13 -28 15 -110v-32q0 -66 -7.5 -215t-7.5 -212z" />
    <glyph glyph-name="Idotaccent" unicode="&#x130;" horiz-adv-x="349" 
d="M144 847q13 5 32 5q30 0 50 -16.5t20 -49.5q0 -27 -17 -45t-54 -18q-32 0 -49 17t-17 39q0 51 35 68zM264 525l-1 -93v-98l-4 -157q0 -21 14 -28q28 -14 36.5 -26t8.5 -43q0 -34 -13 -50.5t-30 -20.5q-25 -6 -124 -6q-69 0 -95.5 12.5t-26.5 60.5q0 47 22 59q37 20 38 36
l1 219l2 75q0 43 -6 60q-6 18 -31 27q-14 5 -20.5 21.5t-6.5 36.5q0 33 10 50q9 16 37 25.5t87 9.5h23q72 0 104.5 -15t34.5 -54v-11q0 -23 -9 -41.5t-39 -30.5q-10 -4 -12 -18z" />
    <glyph glyph-name="dotlessi" unicode="&#x131;" horiz-adv-x="279" 
d="M243 529v-32q0 -66 -7.5 -215t-7.5 -212v-37q-34 -28 -97 -28l-20 1q-22 3 -43.5 20.5t-23.5 45.5q-3 41 -3 84q0 48 5 158t5 162l-1 60l-2 97v39l27 12q27 8 52 8q35 0 62 -14t39 -39q13 -28 15 -110z" />
    <glyph glyph-name="Jcircumflex" unicode="&#x134;" horiz-adv-x="559" 
d="M272 895l27 3q27 0 42 -11q67 -52 90 -79.5t25 -46.5q0 -20 -10 -31t-27 -11q-5 0 -12 1t-15 6.5t-21 16.5t-19 16l-47 37l-4 1l-5 -2q-10 -6 -39 -32t-44 -37q-7 -6 -28 -6q-14 0 -26 9t-14 20l-1 9q0 20 13 33q80 91 115 104zM65 211q20 8 39 8q11 0 25.5 -3t37.5 -18
t38.5 -19.5t33.5 -4.5q47 0 71.5 42.5t24.5 126.5q0 51 -9 154l-81 -1q-74 0 -108.5 8.5t-49.5 22.5q-13 12 -18.5 38.5t-5.5 45.5t9 35t22 23q15 9 45.5 16.5t127.5 7.5q197 0 239 -79q29 -57 29 -164q0 -89 -11.5 -160t-23.5 -104q-19 -52 -48 -91.5t-79 -65t-138 -25.5
q-55 0 -102.5 15.5t-76.5 41.5q-16 16 -27 38.5t-11 41.5q0 22 12 41.5t35 28.5z" />
    <glyph glyph-name="jcircumflex" unicode="&#x135;" horiz-adv-x="522" 
d="M354 872l27 3q27 0 42 -11q67 -52 90 -79.5t25 -46.5q0 -20 -10 -31t-27 -11q-5 0 -12 1t-15 6.5t-21 16.5t-19 16l-47 37l-4 1l-5 -2q-10 -6 -39 -32t-44 -37q-7 -6 -28 -6q-14 0 -26 9t-14 20l-1 9q0 20 13 33q80 91 115 104zM210 194q85 0 85 216q0 36 -2.5 87.5
t-2.5 59.5q0 62 9 88.5t31.5 37t66.5 10.5q36 0 55 -14.5t27 -50.5q5 -23 11 -75t6 -124q0 -73 -10.5 -141t-30.5 -116q-40 -94 -97.5 -132.5t-131.5 -38.5q-40 0 -78.5 11t-68.5 32.5t-48 53.5t-18 72l1 22q2 29 21.5 49.5t49.5 20.5q29 0 60 -30t43.5 -34t21.5 -4z" />
    <glyph glyph-name="Kcommaaccent" unicode="&#x136;" horiz-adv-x="612" 
d="M273 -232h-10q-27 0 -35 12q-6 8 -6 17q0 6 3 9q3 4 14 18.5t12 31.5l-2 14l-22 23q-3 4 -5 15t-2 18v14q0 12 9 28q9 17 28 24t39 7q25 0 41.5 -7.5t28.5 -26.5q9 -15 9 -44q0 -23 -14.5 -60t-39 -64t-48.5 -29zM264 292l-4 2l-5 -3q-3 -12 -6 -32.5t-7 -98
t-11.5 -105.5t-19 -41t-29.5 -13q-65 0 -92 32.5t-32 101.5q-3 30 -6.5 96.5t-6 225.5t-5.5 208q0 9 6.5 18.5t17.5 11.5q29 6 57 6q36 -1 58.5 -7.5t39.5 -27.5q38 -46 38 -134q0 -26 -3 -53q22 20 67.5 69t56.5 60q32 31 67.5 49.5t64.5 18.5q28 0 49.5 -22t21.5 -50
q0 -14 -9.5 -37t-40.5 -56t-83 -77t-65 -58q22 -48 91 -128t78 -91l3 -3q43 -53 43 -84q0 -19 -14 -34t-41 -21.5t-53 -6.5q-40 0 -67 10q-30 11 -54.5 40.5t-54.5 106.5l-5 13q-27 75 -45 114z" />
    <glyph glyph-name="kcommaaccent" unicode="&#x137;" horiz-adv-x="654" 
d="M241 -223h-10q-27 0 -35 12q-6 8 -6 17q0 6 3 9q3 4 14 18.5t12 31.5l-2 14l-22 23q-3 4 -5 15t-2 18v14q0 12 9 28q9 17 28 24t39 7q25 0 41.5 -7.5t28.5 -26.5q9 -15 9 -44q0 -23 -14.5 -60t-39 -64t-48.5 -29zM387 270q8 -17 45 -51.5t48 -48.5q30 -36 42 -60t12 -43
l-1 -9q-4 -27 -28.5 -41t-59.5 -14q-21 0 -45 6.5t-41 16.5q-21 13 -39 33t-32 42t-55 102q-3 -9 -14 -68t-31.5 -91t-53.5 -32q-10 0 -25.5 4t-24.5 9q-23 13 -35.5 92t-12.5 202q0 29 3 176l3 130q2 24 4.5 36t12.5 18t23 6q39 0 71 -13t50.5 -44.5t26 -75t11.5 -133.5
l1 -25q26 1 53.5 20.5t61.5 75.5q12 20 40 73.5t45 74.5q20 26 51 40.5t62 14.5q24 0 43.5 -11.5t27.5 -32t8 -41.5q0 -50 -26 -106.5t-85 -119.5t-136 -112z" />
    <glyph glyph-name="kgreenlandic" unicode="&#x138;" horiz-adv-x="647" 
d="M387 270q8 -17 45 -51.5t48 -48.5q30 -36 42 -60t12 -43l-1 -9q-4 -27 -28.5 -41t-59.5 -14q-21 0 -45 6.5t-41 16.5q-21 13 -39 33t-32 42t-55 102q-3 -9 -14 -68t-31.5 -91t-53.5 -32q-10 0 -25.5 4t-24.5 9q-23 13 -35.5 92t-12.5 202q0 29 3 176l3 130q2 24 4.5 36
t12.5 18t23 6q39 0 71 -13t50.5 -44.5t26 -75t11.5 -133.5l1 -25q26 1 53.5 20.5t61.5 75.5q12 20 40 73.5t45 74.5q20 26 51 40.5t62 14.5q24 0 43.5 -11.5t27.5 -32t8 -41.5q0 -50 -26 -106.5t-85 -119.5t-136 -112z" />
    <glyph glyph-name="Lacute" unicode="&#x139;" horiz-adv-x="482" 
d="M214 900h10q25 0 37 -7q12 -6 12 -21q-1 -15 -20 -44.5t-52.5 -65.5t-46.5 -39l-13 -1q-15 1 -24 9t-9 19q0 9 4 19q10 28 28 64.5t36 54.5q12 12 38 12zM54 636q3 16 16 30.5t33 21t37 6.5q62 0 83.5 -21.5t24.5 -64.5l1 -24q0 -2 -0.5 -11t-5 -114t-4.5 -175
q0 -50 5 -63q27 -6 87.5 -7t93.5 -12q24 -8 35 -24.5t11 -45.5q0 -34 -7 -58t-20 -38.5t-38.5 -24t-107.5 -9.5l-39 1q-46 1 -82 9t-63.5 24.5t-44.5 44.5t-23 68q-13 94 -13 193q0 123 21 294z" />
    <glyph glyph-name="lacute" unicode="&#x13a;" horiz-adv-x="517" 
d="M172 899h10q25 0 37 -7q12 -6 12 -21q-1 -15 -20 -44.5t-52.5 -65.5t-46.5 -39l-13 -1q-15 1 -24 9t-9 19q0 9 4 19q10 28 28 64.5t36 54.5q12 12 38 12zM85 687q15 3 30 3q58 0 94.5 -36.5t37.5 -97.5v-26l2 -286q0 -51 56 -51q24 1 54.5 9.5t40.5 10.5q17 3 35 3
q22 0 41.5 -10.5t28.5 -27.5q7 -13 7 -33q0 -72 -58.5 -107t-180.5 -35q-73 0 -125.5 26t-81.5 75.5t-29 123.5l1 29l2 112l-5 250q0 26 10 43.5t40 24.5z" />
    <glyph glyph-name="Lcommaaccent" unicode="&#x13b;" horiz-adv-x="482" 
d="M225 -258h-10q-27 0 -35 12q-6 8 -6 17q0 6 3 9q3 4 14 18.5t12 31.5l-2 14l-22 23q-3 4 -5 15t-2 18v14q0 12 9 28q9 17 28 24t39 7q25 0 41.5 -7.5t28.5 -26.5q9 -15 9 -44q0 -23 -14.5 -60t-39 -64t-48.5 -29zM54 636q3 16 16 30.5t33 21t37 6.5q62 0 83.5 -21.5
t24.5 -64.5l1 -24q0 -2 -0.5 -11t-5 -114t-4.5 -175q0 -50 5 -63q27 -6 87.5 -7t93.5 -12q24 -8 35 -24.5t11 -45.5q0 -34 -7 -58t-20 -38.5t-38.5 -24t-107.5 -9.5l-39 1q-46 1 -82 9t-63.5 24.5t-44.5 44.5t-23 68q-13 94 -13 193q0 123 21 294z" />
    <glyph glyph-name="lcommaaccent" unicode="&#x13c;" horiz-adv-x="517" 
d="M244 -258h-10q-27 0 -35 12q-6 8 -6 17q0 6 3 9q3 4 14 18.5t12 31.5l-2 14l-22 23q-3 4 -5 15t-2 18v14q0 12 9 28q9 17 28 24t39 7q25 0 41.5 -7.5t28.5 -26.5q9 -15 9 -44q0 -23 -14.5 -60t-39 -64t-48.5 -29zM85 687q15 3 30 3q58 0 94.5 -36.5t37.5 -97.5v-26
l2 -286q0 -51 56 -51q24 1 54.5 9.5t40.5 10.5q17 3 35 3q22 0 41.5 -10.5t28.5 -27.5q7 -13 7 -33q0 -72 -58.5 -107t-180.5 -35q-73 0 -125.5 26t-81.5 75.5t-29 123.5l1 29l2 112l-5 250q0 26 10 43.5t40 24.5z" />
    <glyph glyph-name="Lcaron" unicode="&#x13d;" horiz-adv-x="496" 
d="M385 453q-11 0 -23 4.5t-17 13.5q-8 15 -4 25q5 10 10 23t6 36l-2 14l-18 23q-3 4 -5 15t-2 18v14q0 12 9 28q9 17 28 24t39 7q25 0 41.5 -7.5t28.5 -26.5q9 -15 9 -44q0 -28 -16.5 -70.5t-38.5 -69.5t-45 -27zM54 636q3 16 16 30.5t33 21t37 6.5q62 0 83.5 -21.5
t24.5 -64.5l1 -24q0 -2 -0.5 -11t-5 -114t-4.5 -175q0 -50 5 -63q27 -6 87.5 -7t93.5 -12q24 -8 35 -24.5t11 -45.5q0 -34 -7 -58t-20 -38.5t-38.5 -24t-107.5 -9.5l-39 1q-46 1 -82 9t-63.5 24.5t-44.5 44.5t-23 68q-13 94 -13 193q0 123 21 294z" />
    <glyph glyph-name="lcaron" unicode="&#x13e;" horiz-adv-x="536" 
d="M85 687q15 3 30 3q58 0 94.5 -36.5t37.5 -97.5v-26l2 -286q0 -51 56 -51q24 1 54.5 9.5t40.5 10.5q17 3 35 3q22 0 41.5 -10.5t28.5 -27.5q7 -13 7 -33q0 -72 -58.5 -107t-180.5 -35q-73 0 -125.5 26t-81.5 75.5t-29 123.5l1 29l2 112l-5 250q0 26 10 43.5t40 24.5z
M431 452q-11 0 -23 4.5t-17 13.5q-8 15 -4 25q5 10 10 23t6 36l-2 14l-18 23q-3 4 -5 15t-2 18v14q0 12 9 28q9 17 28 24t39 7q25 0 41.5 -7.5t28.5 -26.5q9 -15 9 -44q0 -28 -16.5 -70.5t-38.5 -69.5t-45 -27z" />
    <glyph glyph-name="Ldot" unicode="&#x13f;" horiz-adv-x="482" 
d="M54 636q3 16 16 30.5t33 21t37 6.5q62 0 83.5 -21.5t24.5 -64.5l1 -24q0 -2 -0.5 -11t-5 -114t-4.5 -175q0 -50 5 -63q27 -6 87.5 -7t93.5 -12q24 -8 35 -24.5t11 -45.5q0 -34 -7 -58t-20 -38.5t-38.5 -24t-107.5 -9.5l-39 1q-46 1 -82 9t-63.5 24.5t-44.5 44.5t-23 68
q-13 94 -13 193q0 123 21 294zM345 482q20 9 42 9q31 0 56.5 -20.5t25.5 -50.5q0 -20 -10 -40t-34.5 -32t-53.5 -12q-18 0 -38 10.5t-29 26t-9 29.5q0 26 14 48t36 32z" />
    <glyph glyph-name="ldot" unicode="&#x140;" horiz-adv-x="517" 
d="M85 687q15 3 30 3q58 0 94.5 -36.5t37.5 -97.5v-26l2 -286q0 -51 56 -51q24 1 54.5 9.5t40.5 10.5q17 3 35 3q22 0 41.5 -10.5t28.5 -27.5q7 -13 7 -33q0 -72 -58.5 -107t-180.5 -35q-73 0 -125.5 26t-81.5 75.5t-29 123.5l1 29l2 112l-5 250q0 26 10 43.5t40 24.5z
M357 482q20 9 42 9q31 0 56.5 -20.5t25.5 -50.5q0 -20 -10 -40t-34.5 -32t-53.5 -12q-18 0 -38 10.5t-29 26t-9 29.5q0 26 14 48t36 32z" />
    <glyph glyph-name="Lslash" unicode="&#x141;" horiz-adv-x="544" 
d="M116 636q3 16 16 30.5t33 21t37 6.5q62 0 83.5 -21.5t24.5 -64.5l1 -24l-4 -83q47 15 66 15h6l4 -1h2q11 0 29 -11.5t22 -22.5q8 -21 8 -42q0 -24 -13 -41q-3 -4 -9.5 -9t-18 -11.5t-14.5 -8.5l-88 -34v-51q0 -50 5 -63q27 -6 87.5 -7t93.5 -12q24 -8 35 -24.5t11 -45.5
q0 -34 -7 -58t-20 -38.5t-38.5 -24t-107.5 -9.5l-39 1q-46 1 -82 9t-63.5 24.5t-44.5 44.5t-23 68q-8 59 -11 109q-22 -5 -37 -5l-17 2q-16 3 -33 15.5t-27 39.5l-1 3l-1 11q0 26 24.5 49.5t50.5 33.5l41 15q4 93 19 214z" />
    <glyph glyph-name="lslash" unicode="&#x142;" horiz-adv-x="574" 
d="M142 687q15 3 30 3q58 0 94.5 -36.5t37.5 -97.5v-48q53 18 73 15l4 -1q12 1 30.5 -11t22.5 -23q19 -53 -5 -83q-3 -4 -9.5 -9t-18 -11.5t-14.5 -8.5l-82 -32l1 -100q0 -51 56 -51q24 1 54.5 9.5t40.5 10.5q17 3 35 3q22 0 41.5 -10.5t28.5 -27.5q7 -13 7 -33
q0 -72 -58.5 -107t-180.5 -35q-73 0 -125.5 26t-81.5 75.5t-29 123.5l1 29v9q-31 -8 -54 -4q-16 3 -33 15.5t-27 39.5l-1 3q-3 15 4 33.5t28 36t42 24.5l42 16l-4 189q0 26 10 43.5t40 24.5z" />
    <glyph glyph-name="Nacute" unicode="&#x143;" horiz-adv-x="665" 
d="M232 340l-1 -41q-5 -172 -16 -236q-2 -11 -12.5 -25.5t-30.5 -25.5t-37 -11l-6 1q-90 12 -90 315v42q0 89 15 213q5 38 24 64t39.5 34.5t34.5 8.5q78 0 137 -82q18 -25 81 -133.5t79 -132.5v12l-4 75q0 104 10.5 156.5t35 77.5t60.5 25q15 0 32 -10.5t23 -27.5
q20 -36 20 -219v-20q0 -101 -14.5 -192.5t-42.5 -155.5q-12 -20 -35.5 -32.5t-47.5 -12.5q-27 1 -55 22.5t-59 64t-78.5 133.5t-61.5 113zM401 874h10q25 0 37 -7q12 -6 12 -21q-1 -15 -20 -44.5t-52.5 -65.5t-46.5 -39l-13 -1q-15 1 -24 9t-9 19q0 9 4 19q10 28 28 64.5
t36 54.5q12 12 38 12z" />
    <glyph glyph-name="nacute" unicode="&#x144;" horiz-adv-x="638" 
d="M358 860h10q25 0 37 -7q12 -6 12 -21q-1 -15 -20 -44.5t-52.5 -65.5t-46.5 -39l-13 -1q-15 1 -24 9t-9 19q0 9 4 19q10 28 28 64.5t36 54.5q12 12 38 12zM487 7q-37 0 -58.5 17.5t-28 42.5t-6.5 47l5 149q0 99 -18.5 137.5t-56.5 38.5q-26 0 -47 -18t-27 -53
q-5 -29 -5 -70l1 -124q0 -54 -7 -83q-8 -37 -23 -55q-25 -29 -73 -29q-15 0 -30.5 6t-24.5 15q-12 12 -19.5 32t-10.5 64q-8 123 -17 284.5t-17 243.5q14 9 32.5 18t56.5 9t68 -25t42 -70q27 36 78 57t98 21q71 0 116.5 -31t68.5 -87.5t23 -139.5v-9q-3 -216 -34 -302
t-86 -86z" />
    <glyph glyph-name="Ncommaaccent" unicode="&#x145;" horiz-adv-x="665" 
d="M296 -223h-10q-27 0 -35 12q-6 8 -6 17q0 6 3 9q3 4 14 18.5t12 31.5l-2 14l-22 23q-3 4 -5 15t-2 18v14q0 12 9 28q9 17 28 24t39 7q25 0 41.5 -7.5t28.5 -26.5q9 -15 9 -44q0 -23 -14.5 -60t-39 -64t-48.5 -29zM232 340l-1 -41q-5 -172 -16 -236q-2 -11 -12.5 -25.5
t-30.5 -25.5t-37 -11l-6 1q-90 12 -90 315v42q0 89 15 213q5 38 24 64t39.5 34.5t34.5 8.5q78 0 137 -82q18 -25 81 -133.5t79 -132.5v12l-4 75q0 104 10.5 156.5t35 77.5t60.5 25q15 0 32 -10.5t23 -27.5q20 -36 20 -219v-20q0 -101 -14.5 -192.5t-42.5 -155.5
q-12 -20 -35.5 -32.5t-47.5 -12.5q-27 1 -55 22.5t-59 64t-78.5 133.5t-61.5 113z" />
    <glyph glyph-name="ncommaaccent" unicode="&#x146;" horiz-adv-x="638" 
d="M295 -231h-10q-27 0 -35 12q-6 8 -6 17q0 6 3 9q3 4 14 18.5t12 31.5l-2 14l-22 23q-3 4 -5 15t-2 18v14q0 12 9 28q9 17 28 24t39 7q25 0 41.5 -7.5t28.5 -26.5q9 -15 9 -44q0 -23 -14.5 -60t-39 -64t-48.5 -29zM487 7q-37 0 -58.5 17.5t-28 42.5t-6.5 47l5 149
q0 99 -18.5 137.5t-56.5 38.5q-26 0 -47 -18t-27 -53q-5 -29 -5 -70l1 -124q0 -54 -7 -83q-8 -37 -23 -55q-25 -29 -73 -29q-15 0 -30.5 6t-24.5 15q-12 12 -19.5 32t-10.5 64q-8 123 -17 284.5t-17 243.5q14 9 32.5 18t56.5 9t68 -25t42 -70q27 36 78 57t98 21
q71 0 116.5 -31t68.5 -87.5t23 -139.5v-9q-3 -216 -34 -302t-86 -86z" />
    <glyph glyph-name="Ncaron" unicode="&#x147;" horiz-adv-x="665" 
d="M232 340l-1 -41q-5 -172 -16 -236q-2 -11 -12.5 -25.5t-30.5 -25.5t-37 -11l-6 1q-90 12 -90 315v42q0 89 15 213q5 38 24 64t39.5 34.5t34.5 8.5q78 0 137 -82q18 -25 81 -133.5t79 -132.5v12l-4 75q0 104 10.5 156.5t35 77.5t60.5 25q15 0 32 -10.5t23 -27.5
q20 -36 20 -219v-20q0 -101 -14.5 -192.5t-42.5 -155.5q-12 -20 -35.5 -32.5t-47.5 -12.5q-27 1 -55 22.5t-59 64t-78.5 133.5t-61.5 113zM329 706q-35 13 -115 104q-13 13 -13 33l1 9q2 11 14 20t26 9q21 0 28 -6q15 -11 44 -37t39 -32l6 -3l5 2l38 31q7 6 23.5 19.5t27 20
t23.5 6.5q17 0 27 -11t10 -31q-1 -13 -17.5 -37.5t-97.5 -88.5q-15 -11 -42 -11z" />
    <glyph glyph-name="ncaron" unicode="&#x148;" horiz-adv-x="638" 
d="M287 687q-35 13 -115 104q-13 13 -13 33l1 9q2 11 14 20t26 9q21 0 28 -6q15 -11 44 -37t39 -32l6 -3l5 2l38 31q7 6 23.5 19.5t27 20t23.5 6.5q17 0 27 -11t10 -31q-1 -13 -17.5 -37.5t-97.5 -88.5q-15 -11 -42 -11zM487 7q-37 0 -58.5 17.5t-28 42.5t-6.5 47l5 149
q0 99 -18.5 137.5t-56.5 38.5q-26 0 -47 -18t-27 -53q-5 -29 -5 -70l1 -124q0 -54 -7 -83q-8 -37 -23 -55q-25 -29 -73 -29q-15 0 -30.5 6t-24.5 15q-12 12 -19.5 32t-10.5 64q-8 123 -17 284.5t-17 243.5q14 9 32.5 18t56.5 9t68 -25t42 -70q27 36 78 57t98 21
q71 0 116.5 -31t68.5 -87.5t23 -139.5v-9q-3 -216 -34 -302t-86 -86z" />
    <glyph glyph-name="Eng" unicode="&#x14a;" horiz-adv-x="665" 
d="M227 353v-54q0 -158 -17 -223q-7 -25 -29.5 -50t-45.5 -25l-6 1q-90 12 -90 315v42q0 89 15 213q5 38 24 64t39.5 34.5t34.5 8.5q78 0 137 -82q18 -25 81 -133.5t79 -132.5v12l-1 75q0 75 9 132.5t32 92t62 34.5q15 0 32 -10.5t23 -27.5q20 -36 20 -219v-20q0 -47 -3 -94
q-4 -178 -12.5 -261.5t-22.5 -129.5q-30 -95 -98 -141t-163 -46q-28 0 -62 6t-62.5 19.5t-47.5 38.5t-19 59q0 27 23 48t54 21q19 0 48 -14t59 -14q13 0 30.5 5t32 21.5t24.5 47.5t10 78q-17 20 -45 61.5t-81 135.5t-64 112z" />
    <glyph glyph-name="eng" unicode="&#x14b;" horiz-adv-x="641" 
d="M315 -103h10q25 0 42.5 46.5t26.5 130.5t9 153q0 65 -11 129q-5 27 -18.5 44t-27.5 22t-23 5q-23 0 -44 -15.5t-27.5 -32t-7.5 -23.5q-5 -29 -5 -70l3 -112q0 -54 -7 -83q-8 -36 -21 -54.5t-41 -26.5q-15 -3 -32 -3l-11 1q-32 7 -47 26.5t-19 43t-6 46.5q-8 120 -17 276
t-17 240q14 9 32.5 18t56.5 9t68 -25t42 -70q32 36 82 58t108 22h9q38 -4 69 -18.5t55.5 -41t42.5 -76t18 -124.5v-9l3 -158q0 -211 -47 -326q-33 -81 -93 -126t-138 -45q-40 0 -92 13.5t-76.5 37.5t-24.5 50l1 22q2 28 19.5 45.5t47.5 20.5q23 2 57.5 -9t50.5 -11z" />
    <glyph glyph-name="Omacron" unicode="&#x14c;" horiz-adv-x="654" 
d="M479 743q-5 -3 -17.5 -5t-14.5 -2h-179l-22 -1q-37 0 -57 10q-17 9 -17 42q3 19 22 29.5t38 10.5l115 2q110 0 127 -9l3 -1q8 -2 16.5 -13t8.5 -17q0 -33 -23 -46zM573 563q48 -77 48 -216q0 -66 -17.5 -128t-53 -111t-92 -77.5t-129.5 -28.5q-78 0 -135.5 26.5t-92.5 74
t-51 111.5t-16 139q0 70 19.5 133t57.5 110t94.5 73.5t125.5 26.5q37 0 83.5 -12t89 -44.5t69.5 -76.5zM431 353q1 33 -5 70.5t-28.5 62t-64.5 24.5q-27 0 -50.5 -16t-36 -56t-12.5 -88q0 -39 11.5 -75.5t32 -58t51.5 -21.5q14 0 33 6t34 25t24.5 51t10.5 76z" />
    <glyph glyph-name="omacron" unicode="&#x14d;" 
d="M438 738q-5 -3 -17.5 -5t-14.5 -2h-179l-22 -1q-37 0 -57 10q-17 9 -17 42q3 19 22 29.5t38 10.5l115 2q110 0 127 -9l3 -1q8 -2 16.5 -13t8.5 -17q0 -33 -23 -46zM523 556q35 -78 35 -209q0 -79 -22.5 -146t-60 -112.5t-87 -66t-100.5 -20.5q-40 0 -66 6q-71 18 -112 61
t-63 107q-7 22 -14.5 67.5t-7.5 100.5q0 120 26.5 183t74.5 105q31 27 74 43t89 17h4q89 0 143.5 -34t86.5 -102zM300 522q-40 0 -61 -44t-21 -107q0 -90 20 -133.5t55 -43.5q20 0 39 17.5t29.5 64.5t10.5 106q0 53 -18 96.5t-54 43.5z" />
    <glyph glyph-name="Ohungarumlaut" unicode="&#x150;" horiz-adv-x="654" 
d="M284 883h10q25 0 37 -7q12 -6 12 -21q-1 -14 -18.5 -41t-48.5 -57.5t-44 -33.5l-13 -1q-15 1 -24 9t-9 19q0 9 4 19q27 74 56 102q12 12 38 12zM452 883h10q25 0 37 -7q12 -6 12 -21q-1 -14 -18.5 -41t-48.5 -57.5t-44 -33.5l-13 -1q-15 1 -24 9t-9 19q0 9 4 19
q27 74 56 102q12 12 38 12zM573 563q48 -77 48 -216q0 -66 -17.5 -128t-53 -111t-92 -77.5t-129.5 -28.5q-78 0 -135.5 26.5t-92.5 74t-51 111.5t-16 139q0 70 19.5 133t57.5 110t94.5 73.5t125.5 26.5q37 0 83.5 -12t89 -44.5t69.5 -76.5zM431 353q1 33 -5 70.5t-28.5 62
t-64.5 24.5q-27 0 -50.5 -16t-36 -56t-12.5 -88q0 -39 11.5 -75.5t32 -58t51.5 -21.5q14 0 33 6t34 25t24.5 51t10.5 76z" />
    <glyph glyph-name="ohungarumlaut" unicode="&#x151;" 
d="M267 881h10q25 0 37 -7q12 -6 12 -21q-1 -14 -18.5 -41t-48.5 -57.5t-44 -33.5l-13 -1q-15 1 -24 9t-9 19q0 9 4 19q27 74 56 102q12 12 38 12zM435 881h10q25 0 37 -7q12 -6 12 -21q-1 -14 -18.5 -41t-48.5 -57.5t-44 -33.5l-13 -1q-15 1 -24 9t-9 19q0 9 4 19
q27 74 56 102q12 12 38 12zM523 556q35 -78 35 -209q0 -79 -22.5 -146t-60 -112.5t-87 -66t-100.5 -20.5q-40 0 -66 6q-71 18 -112 61t-63 107q-7 22 -14.5 67.5t-7.5 100.5q0 120 26.5 183t74.5 105q31 27 74 43t89 17h4q89 0 143.5 -34t86.5 -102zM300 522q-40 0 -61 -44
t-21 -107q0 -90 20 -133.5t55 -43.5q20 0 39 17.5t29.5 64.5t10.5 106q0 53 -18 96.5t-54 43.5z" />
    <glyph glyph-name="OE" unicode="&#x152;" horiz-adv-x="931" 
d="M638 421h47q63 -1 83.5 -6.5t30 -16t9.5 -27.5q0 -25 -9.5 -43t-25 -28.5t-38.5 -17t-58.5 -9.5t-41.5 -4l-1 -13q0 -26 12.5 -46.5t40.5 -25.5q15 -3 54 -3q19 0 57.5 4.5t55.5 4.5q27 0 44 -19.5t17 -44.5q0 -45 -30.5 -73t-79 -40t-102.5 -12q-68 0 -120.5 15
t-80.5 42q-70 -56 -173 -56q-78 0 -135.5 26.5t-92.5 74t-51 111.5t-16 139q0 70 19.5 133t57.5 110t94.5 73.5t125.5 26.5q53 0 101 -17.5t84 -48.5q11 12 24 21q29 19 88.5 33t119.5 14q62 0 105 -22q22 -9 35.5 -27.5t13.5 -56.5q0 -15 -2 -20q-2 -7 -9 -16t-22.5 -15.5
t-33.5 -9.5t-102 -6.5t-94 -42.5q-3 -12 -3 -33zM431 353q2 86 -22 121.5t-76 35.5q-27 0 -50.5 -16t-36 -56t-12.5 -88q0 -39 11.5 -75.5t32 -58t51.5 -21.5q14 0 33 6t34 25t24.5 51t10.5 76z" />
    <glyph glyph-name="oe" unicode="&#x153;" horiz-adv-x="885" 
d="M590 249q-9 -7 -6 -22q4 -22 30 -36t52 -14q57 0 130 27q9 3 17 3q13 0 24 -12t18 -26q8 -14 8 -28q0 -27 -14 -50q-21 -35 -64 -56.5t-85 -27.5t-71 -5q-43 1 -81.5 15t-65 35t-42.5 40q-30 -42 -74.5 -66t-100.5 -24q-36 0 -60 6q-49 14 -82.5 42.5t-51 61.5t-26.5 62
q-7 22 -13.5 67t-6.5 100q0 109 21.5 173.5t70.5 111.5q29 27 68.5 42.5t80.5 16.5h4q119 0 179 -80q22 24 54 44.5t70 30.5q36 9 68 9q47 0 88.5 -15.5t70.5 -38.5q31 -25 48.5 -63.5t17.5 -79.5q0 -29 -9 -64t-26 -59q-16 -22 -48.5 -48t-82.5 -45t-101 -24zM276 517
q-27 0 -43.5 -22.5t-24 -57.5t-7.5 -70q0 -89 18.5 -132t50.5 -43q36 0 54 51t18 135q0 37 -8 69.5t-22 51t-36 18.5zM693 489v7q0 14 -9.5 21t-22.5 7q-49 0 -78.5 -37.5t-29.5 -85.5l1 -15h4q15 0 51 14q13 5 32 17.5t35.5 33t16.5 38.5z" />
    <glyph glyph-name="Racute" unicode="&#x154;" horiz-adv-x="562" 
d="M328 895h10q25 0 37 -7q12 -6 12 -21q-1 -15 -20 -44.5t-52.5 -65.5t-46.5 -39l-13 -1q-15 1 -24 9t-9 19q0 9 4 19q10 28 28 64.5t36 54.5q12 12 38 12zM473 0h-4q-26 0 -55.5 16t-57.5 46t-66.5 81.5t-54.5 66.5q4 -23 4 -59q0 -50 -4 -79t-14 -45t-33 -25t-49 -9
q-89 0 -92 79q-8 211 -8 295l1 75v28q4 73 18 103.5t27 49.5q53 75 195 75q59 0 106 -13t80.5 -39.5t52 -66.5t21.5 -92v-15q0 -52 -20 -91t-50 -62.5t-57 -28.5q-1 0 -6.5 -1.5t-7.5 -2.5t-2 -2l4 -6l37 -47q13 -18 44.5 -56t41.5 -54q11 -17 17 -36t6 -32
q0 -23 -19.5 -37.5t-54.5 -15.5zM353 491q0 26 -20.5 43t-45.5 17q-36 0 -52 -16v-118q20 -4 27 -4q40 0 65.5 20t25.5 58z" />
    <glyph glyph-name="racute" unicode="&#x155;" horiz-adv-x="559" 
d="M321 899h10q25 0 37 -7q12 -6 12 -21q-1 -15 -20 -44.5t-52.5 -65.5t-46.5 -39l-13 -1q-15 1 -24 9t-9 19q0 9 4 19q10 28 28 64.5t36 54.5q12 12 38 12zM229 227l-1 -40q0 -8 -0.5 -45.5t-2 -60t-4.5 -34.5q-4 -21 -21 -32t-63 -11q-31 0 -51 12.5t-31 38.5q-8 19 -8 67
v395l1 54q0 28 12.5 50.5t36.5 39.5t68 28.5t96 11.5h10q54 0 101.5 -13t83.5 -39.5t56 -67t20 -92.5q0 -57 -22.5 -111t-55.5 -79q30 -24 49.5 -63t25.5 -77t6 -67t-10.5 -51.5t-33.5 -32.5t-49 -10q-41 0 -61.5 17t-20.5 59q-3 34 -11 73q-5 25 -23.5 49t-41 34.5
t-41.5 10.5q-5 0 -9.5 -4t-4.5 -10zM237 533v-116q19 -10 41 -10q28 0 46.5 22.5t18.5 54.5q0 27 -18.5 46t-45.5 19q-29 0 -42 -16z" />
    <glyph glyph-name="Rcommaaccent" unicode="&#x156;" horiz-adv-x="562" 
d="M281 -221h-10q-27 0 -35 12q-6 8 -6 17q0 6 3 9q3 4 14 18.5t12 31.5l-2 14l-22 23q-3 4 -5 15t-2 18v14q0 12 9 28q9 17 28 24t39 7q25 0 41.5 -7.5t28.5 -26.5q9 -15 9 -44q0 -23 -14.5 -60t-39 -64t-48.5 -29zM473 0h-4q-26 0 -55.5 16t-57.5 46t-66.5 81.5
t-54.5 66.5q4 -23 4 -59q0 -50 -4 -79t-14 -45t-33 -25t-49 -9q-89 0 -92 79q-8 211 -8 295l1 75v28q4 73 18 103.5t27 49.5q53 75 195 75q59 0 106 -13t80.5 -39.5t52 -66.5t21.5 -92v-15q0 -52 -20 -91t-50 -62.5t-57 -28.5q-1 0 -6.5 -1.5t-7.5 -2.5t-2 -2l4 -6l37 -47
q13 -18 44.5 -56t41.5 -54q11 -17 17 -36t6 -32q0 -23 -19.5 -37.5t-54.5 -15.5zM353 491q0 26 -20.5 43t-45.5 17q-36 0 -52 -16v-118q20 -4 27 -4q40 0 65.5 20t25.5 58z" />
    <glyph glyph-name="rcommaaccent" unicode="&#x157;" horiz-adv-x="559" 
d="M255 -232h10q24 2 46.5 26.5t39 61.5t16.5 65q0 29 -9 44t-24 24.5t-46 9.5q-20 0 -39 -7t-28 -24q-9 -16 -9 -28v-14q0 -7 2 -18t5 -15l22 -23l2 -14q-1 -17 -12 -31.5t-14 -18.5q-3 -3 -3 -9q0 -9 6 -17q8 -12 35 -12zM229 227l-1 -40q0 -8 -0.5 -45.5t-2 -60
t-4.5 -34.5q-4 -21 -21 -32t-63 -11q-31 0 -51 12.5t-31 38.5q-8 19 -8 67v395l1 54q0 28 12.5 50.5t36.5 39.5t68 28.5t96 11.5h10q54 0 101.5 -13t83.5 -39.5t56 -67t20 -92.5q0 -57 -22.5 -111t-55.5 -79q30 -24 49.5 -63t25.5 -77t6 -67t-10.5 -51.5t-33.5 -32.5
t-49 -10q-41 0 -61.5 17t-20.5 59q-3 34 -11 73q-5 25 -23.5 49t-41 34.5t-41.5 10.5q-5 0 -9.5 -4t-4.5 -10zM237 533v-116q19 -10 41 -10q28 0 46.5 22.5t18.5 54.5q0 27 -18.5 46t-45.5 19q-29 0 -42 -16z" />
    <glyph glyph-name="Rcaron" unicode="&#x158;" horiz-adv-x="562" 
d="M252 731q-35 13 -115 104q-13 13 -13 33l1 9q2 11 14 20t26 9q21 0 28 -6q15 -11 44 -37t39 -32l6 -3l5 2l38 31q7 6 23.5 19.5t27 20t23.5 6.5q17 0 27 -11t10 -31q-1 -13 -17.5 -37.5t-97.5 -88.5q-15 -11 -42 -11zM473 0h-4q-26 0 -55.5 16t-57.5 46t-66.5 81.5
t-54.5 66.5q4 -23 4 -59q0 -50 -4 -79t-14 -45t-33 -25t-49 -9q-89 0 -92 79q-8 211 -8 295l1 75v28q4 73 18 103.5t27 49.5q53 75 195 75q59 0 106 -13t80.5 -39.5t52 -66.5t21.5 -92v-15q0 -52 -20 -91t-50 -62.5t-57 -28.5q-1 0 -6.5 -1.5t-7.5 -2.5t-2 -2l4 -6l37 -47
q13 -18 44.5 -56t41.5 -54q11 -17 17 -36t6 -32q0 -23 -19.5 -37.5t-54.5 -15.5zM353 491q0 26 -20.5 43t-45.5 17q-36 0 -52 -16v-118q20 -4 27 -4q40 0 65.5 20t25.5 58z" />
    <glyph glyph-name="rcaron" unicode="&#x159;" horiz-adv-x="559" 
d="M262 724q-35 13 -115 104q-13 13 -13 33l1 9q2 11 14 20t26 9q21 0 28 -6q15 -11 44 -37t39 -32l6 -3l5 2l38 31q7 6 23.5 19.5t27 20t23.5 6.5q17 0 27 -11t10 -31q-1 -13 -17.5 -37.5t-97.5 -88.5q-15 -11 -42 -11zM229 227l-1 -40q0 -8 -0.5 -45.5t-2 -60t-4.5 -34.5
q-4 -21 -21 -32t-63 -11q-31 0 -51 12.5t-31 38.5q-8 19 -8 67v395l1 54q0 28 12.5 50.5t36.5 39.5t68 28.5t96 11.5h10q54 0 101.5 -13t83.5 -39.5t56 -67t20 -92.5q0 -57 -22.5 -111t-55.5 -79q30 -24 49.5 -63t25.5 -77t6 -67t-10.5 -51.5t-33.5 -32.5t-49 -10
q-41 0 -61.5 17t-20.5 59q-3 34 -11 73q-5 25 -23.5 49t-41 34.5t-41.5 10.5q-5 0 -9.5 -4t-4.5 -10zM237 533v-116q19 -10 41 -10q28 0 46.5 22.5t18.5 54.5q0 27 -18.5 46t-45.5 19q-29 0 -42 -16z" />
    <glyph glyph-name="Sacute" unicode="&#x15a;" horiz-adv-x="507" 
d="M332 897h10q25 0 37 -7q12 -6 12 -21q-1 -15 -20 -44.5t-52.5 -65.5t-46.5 -39l-13 -1q-15 1 -24 9t-9 19q0 9 4 19q10 28 28 64.5t36 54.5q12 12 38 12zM88 217q16 0 70.5 -14.5t75.5 -14.5h4q43 0 43 27q0 14 -11.5 24t-45 28.5t-56.5 33.5t-46 34q-33 28 -50 70
t-17 85q0 30 11.5 64.5t42 69.5t76 53t89.5 18q80 0 135.5 -37.5t55.5 -97.5q0 -28 -18 -45.5t-49 -18.5h-5l-96 7h-5q-15 -1 -26.5 -7t-11.5 -17q0 -5 5.5 -13t10.5 -12q14 -13 53.5 -38.5t60.5 -40t42.5 -33.5t35 -36.5t23 -39t9.5 -48.5q0 -68 -28 -115.5t-82.5 -75.5
t-136.5 -31h-15q-42 0 -86 8.5t-71 23.5t-38 29q-10 12 -16 30.5t-6 34.5q0 25 9 47t27 35q17 13 37 13z" />
    <glyph glyph-name="sacute" unicode="&#x15b;" horiz-adv-x="522" 
d="M317 900h10q25 0 37 -7q12 -6 12 -21q-1 -15 -20 -44.5t-52.5 -65.5t-46.5 -39l-13 -1q-15 1 -24 9t-9 19q0 9 4 19q10 28 28 64.5t36 54.5q12 12 38 12zM239 476q2 -4 10.5 -11.5t25.5 -19t34.5 -22.5t20.5 -13l17 -11q57 -36 87 -62t48 -58t18 -74q0 -207 -294 -207
q-43 0 -93.5 13t-73.5 35.5t-23 47.5q0 30 12.5 49t38.5 30t96.5 17.5t99.5 13.5q15 3 15 14q0 2 -2 5.5t-5 5.5l-62 34q-97 57 -136 110t-39 119q0 96 81.5 152.5t226.5 56.5q42 0 79.5 -10.5t55 -35.5t17.5 -53t-21.5 -49.5t-62 -32.5t-100.5 -18t-67 -10q-2 -1 -4 -4
t-2 -5z" />
    <glyph glyph-name="Scircumflex" unicode="&#x15c;" horiz-adv-x="507" 
d="M240 881l27 3q27 0 42 -11q67 -52 90 -79.5t25 -46.5q0 -20 -10 -31t-27 -11q-5 0 -12 1t-15 6.5t-21 16.5t-19 16l-47 37l-4 1l-5 -2q-10 -6 -39 -32t-44 -37q-7 -6 -28 -6q-14 0 -26 9t-14 20l-1 9q0 20 13 33q80 91 115 104zM88 217q16 0 70.5 -14.5t75.5 -14.5h4
q43 0 43 27q0 14 -11.5 24t-45 28.5t-56.5 33.5t-46 34q-33 28 -50 70t-17 85q0 30 11.5 64.5t42 69.5t76 53t89.5 18q80 0 135.5 -37.5t55.5 -97.5q0 -28 -18 -45.5t-49 -18.5h-5l-96 7h-5q-15 -1 -26.5 -7t-11.5 -17q0 -5 5.5 -13t10.5 -12q14 -13 53.5 -38.5t60.5 -40
t42.5 -33.5t35 -36.5t23 -39t9.5 -48.5q0 -68 -28 -115.5t-82.5 -75.5t-136.5 -31h-15q-42 0 -86 8.5t-71 23.5t-38 29q-10 12 -16 30.5t-6 34.5q0 25 9 47t27 35q17 13 37 13z" />
    <glyph glyph-name="scircumflex" unicode="&#x15d;" horiz-adv-x="522" 
d="M231 896l27 3q27 0 42 -11q67 -52 90 -79.5t25 -46.5q0 -20 -10 -31t-27 -11q-5 0 -12 1t-15 6.5t-21 16.5t-19 16l-47 37l-4 1l-5 -2q-10 -6 -39 -32t-44 -37q-7 -6 -28 -6q-14 0 -26 9t-14 20l-1 9q0 20 13 33q80 91 115 104zM239 476q2 -4 10.5 -11.5t25.5 -19
t34.5 -22.5t20.5 -13l17 -11q57 -36 87 -62t48 -58t18 -74q0 -207 -294 -207q-43 0 -93.5 13t-73.5 35.5t-23 47.5q0 30 12.5 49t38.5 30t96.5 17.5t99.5 13.5q15 3 15 14q0 2 -2 5.5t-5 5.5l-62 34q-97 57 -136 110t-39 119q0 96 81.5 152.5t226.5 56.5q42 0 79.5 -10.5
t55 -35.5t17.5 -53t-21.5 -49.5t-62 -32.5t-100.5 -18t-67 -10q-2 -1 -4 -4t-2 -5z" />
    <glyph glyph-name="Scedilla" unicode="&#x15e;" horiz-adv-x="507" 
d="M88 217q16 0 70.5 -14.5t75.5 -14.5h4q43 0 43 27q0 14 -11.5 24t-45 28.5t-56.5 33.5t-46 34q-33 28 -50 70t-17 85q0 30 11.5 64.5t42 69.5t76 53t89.5 18q80 0 135.5 -37.5t55.5 -97.5q0 -28 -18 -45.5t-49 -18.5h-5l-96 7h-5q-15 -1 -26.5 -7t-11.5 -17q0 -5 5.5 -13
t10.5 -12q14 -13 53.5 -38.5t60.5 -40t42.5 -33.5t35 -36.5t23 -39t9.5 -48.5q0 -57 -20 -100t-60.5 -73t-102.5 -42l-26 -36q36 -11 59.5 -35t23.5 -77q0 -50 -44.5 -85.5t-118.5 -35.5q-26 0 -51 5.5t-37.5 18t-12.5 28.5q0 14 10 31.5t25 22.5q11 5 23 5l14 -2q9 0 27 -8
t27 -8q13 0 21 11.5t8 23.5q0 10 -5 19t-14 13t-33 10.5t-27 7.5q-9 4 -9 15l1 9q3 20 32 61q-38 2 -75.5 11.5t-59.5 22.5t-32 26q-10 12 -16 30.5t-6 34.5q0 25 9 47t27 35q17 13 37 13z" />
    <glyph glyph-name="scedilla" unicode="&#x15f;" horiz-adv-x="522" 
d="M239 476q2 -4 10.5 -11.5t25.5 -19t34.5 -22.5t20.5 -13l17 -11q57 -36 87 -62t48 -58t18 -74q0 -165 -183 -198q-20 -25 -23 -31q36 -11 59.5 -35t23.5 -77q0 -50 -44.5 -85.5t-118.5 -35.5q-26 0 -51 5.5t-37.5 18t-12.5 28.5q0 14 10 31.5t25 22.5q11 5 23 5l14 -2
q9 0 27 -8t27 -8q13 0 21 11.5t8 23.5q0 10 -5 19t-14 13t-33 10.5t-27 7.5q-9 4 -9 15l1 9q1 4 6 17.5t21 35.5h-2q-43 0 -93.5 13t-73.5 35.5t-23 47.5q0 30 12.5 49t38.5 30t96.5 17.5t99.5 13.5q15 3 15 14q0 2 -2 5.5t-5 5.5l-62 34q-97 57 -136 110t-39 119
q0 96 81.5 152.5t226.5 56.5q42 0 79.5 -10.5t55 -35.5t17.5 -53t-21.5 -49.5t-62 -32.5t-100.5 -18t-67 -10q-2 -1 -4 -4t-2 -5z" />
    <glyph glyph-name="Scaron" unicode="&#x160;" horiz-adv-x="507" 
d="M239 726q-35 13 -115 104q-13 13 -13 33l1 9q2 11 14 20t26 9q21 0 28 -6q15 -11 44 -37t39 -32l6 -3l5 2l38 31q7 6 23.5 19.5t27 20t23.5 6.5q17 0 27 -11t10 -31q-1 -13 -17.5 -37.5t-97.5 -88.5q-15 -11 -42 -11zM88 217q16 0 70.5 -14.5t75.5 -14.5h4q43 0 43 27
q0 14 -11.5 24t-45 28.5t-56.5 33.5t-46 34q-33 28 -50 70t-17 85q0 30 11.5 64.5t42 69.5t76 53t89.5 18q80 0 135.5 -37.5t55.5 -97.5q0 -28 -18 -45.5t-49 -18.5h-5l-96 7h-5q-15 -1 -26.5 -7t-11.5 -17q0 -5 5.5 -13t10.5 -12q14 -13 53.5 -38.5t60.5 -40t42.5 -33.5
t35 -36.5t23 -39t9.5 -48.5q0 -68 -28 -115.5t-82.5 -75.5t-136.5 -31h-15q-42 0 -86 8.5t-71 23.5t-38 29q-10 12 -16 30.5t-6 34.5q0 25 9 47t27 35q17 13 37 13z" />
    <glyph glyph-name="scaron" unicode="&#x161;" horiz-adv-x="522" 
d="M251 727q-35 13 -115 104q-13 13 -13 33l1 9q2 11 14 20t26 9q21 0 28 -6q15 -11 44 -37t39 -32l6 -3l5 2l38 31q7 6 23.5 19.5t27 20t23.5 6.5q17 0 27 -11t10 -31q-1 -13 -17.5 -37.5t-97.5 -88.5q-15 -11 -42 -11zM239 476q2 -4 10.5 -11.5t25.5 -19t34.5 -22.5
t20.5 -13l17 -11q57 -36 87 -62t48 -58t18 -74q0 -207 -294 -207q-43 0 -93.5 13t-73.5 35.5t-23 47.5q0 30 12.5 49t38.5 30t96.5 17.5t99.5 13.5q15 3 15 14q0 2 -2 5.5t-5 5.5l-62 34q-97 57 -136 110t-39 119q0 96 81.5 152.5t226.5 56.5q42 0 79.5 -10.5t55 -35.5
t17.5 -53t-21.5 -49.5t-62 -32.5t-100.5 -18t-67 -10q-2 -1 -4 -4t-2 -5z" />
    <glyph glyph-name="Tcommaaccent" unicode="&#x162;" horiz-adv-x="596" 
d="M266 -252h-10q-27 0 -35 12q-6 8 -6 17q0 6 3 9q3 4 14 18.5t12 31.5l-2 14l-22 23q-3 4 -5 15t-2 18v14q0 12 9 28q9 17 28 24t39 7q25 0 41.5 -7.5t28.5 -26.5q9 -15 9 -44q0 -23 -14.5 -60t-39 -64t-48.5 -29zM23 594q0 22 7.5 45t26.5 37t44 14h127l203 -2
q79 0 113.5 -29t34.5 -87q0 -22 -11 -38.5t-32 -27t-46 -16t-57 -10t-43 -6.5v-14q0 -62 6 -210q4 -98 4 -148l-1 -49q-17 -25 -46.5 -40.5t-65.5 -15.5q-27 0 -53.5 10.5t-38.5 29.5q-6 47 -6 142q0 62 3 123l8 166q-2 0 -30 2t-41.5 3t-17.5 2q-36 4 -56 19
q-12 6 -22 32.5t-10 67.5z" />
    <glyph glyph-name="tcommaaccent" unicode="&#x163;" horiz-adv-x="619" 
d="M278 -249h-10q-27 0 -35 12q-6 8 -6 17q0 6 3 9q3 4 14 18.5t12 31.5l-2 14l-22 23q-3 4 -5 15t-2 18v14q0 12 9 28q9 17 28 24t39 7q25 0 41.5 -7.5t28.5 -26.5q9 -15 9 -44q0 -23 -14.5 -60t-39 -64t-48.5 -29zM210 64q-6 22 -6 74v29l1 112v204l-58 4
q-89 6 -113.5 31.5t-24.5 61.5t13.5 57.5t42 33.5t111.5 13h298q67 0 100 -20t34 -63q0 -33 -12.5 -55t-42.5 -36q-31 -15 -106 -22l-37 -3v-111l1 -51v-119q0 -102 -11 -147q-14 -55 -96 -55q-36 0 -61.5 15.5t-32.5 46.5z" />
    <glyph glyph-name="Tcaron" unicode="&#x164;" horiz-adv-x="596" 
d="M269 730q-35 13 -115 104q-13 13 -13 33l1 9q2 11 14 20t26 9q21 0 28 -6q15 -11 44 -37t39 -32l6 -3l5 2l38 31q7 6 23.5 19.5t27 20t23.5 6.5q17 0 27 -11t10 -31q-1 -13 -17.5 -37.5t-97.5 -88.5q-15 -11 -42 -11zM23 594q0 22 7.5 45t26.5 37t44 14h127l203 -2
q79 0 113.5 -29t34.5 -87q0 -22 -11 -38.5t-32 -27t-46 -16t-57 -10t-43 -6.5v-14q0 -62 6 -210q4 -98 4 -148l-1 -49q-17 -25 -46.5 -40.5t-65.5 -15.5q-27 0 -53.5 10.5t-38.5 29.5q-6 47 -6 142q0 62 3 123l8 166q-2 0 -30 2t-41.5 3t-17.5 2q-36 4 -56 19
q-12 6 -22 32.5t-10 67.5z" />
    <glyph glyph-name="tcaron" unicode="&#x165;" horiz-adv-x="827" 
d="M713 434q-11 0 -23 4.5t-17 13.5q-8 15 -4 25q5 10 10 23t6 36l-2 14l-18 23q-3 4 -5 15t-2 18v14q0 12 9 28q9 17 28 24t39 7q25 0 41.5 -7.5t28.5 -26.5q9 -15 9 -44q0 -28 -16.5 -70.5t-38.5 -69.5t-45 -27zM210 64q-6 22 -6 74v29l1 112v204l-58 4q-89 6 -113.5 31.5
t-24.5 61.5t13.5 57.5t42 33.5t111.5 13h298q67 0 100 -20t34 -63q0 -33 -12.5 -55t-42.5 -36q-31 -15 -106 -22l-37 -3v-111l1 -51v-119q0 -102 -11 -147q-14 -55 -96 -55q-36 0 -61.5 15.5t-32.5 46.5z" />
    <glyph glyph-name="Tbar" unicode="&#x166;" horiz-adv-x="596" 
d="M492 276q-7 -4 -26.5 -7t-20.5 -3l-51 -1q6 -108 6 -163l-1 -49q-17 -25 -46.5 -40.5t-65.5 -15.5q-27 0 -53.5 10.5t-38.5 29.5q-6 47 -6 142l1 86h-30q-57 0 -83 13q-36 15 -36 54v3q2 12 15 23t37.5 17t46.5 6h55l5 84l-89 10q-22 3 -40.5 10.5t-27.5 20.5t-13 31
l-1 5q-4 32 -3.5 67t13.5 55.5t34 22.5l72 5q39 3 132.5 1.5t153.5 -5.5q82 -6 115 -32.5t33 -83.5q0 -22 -11 -38.5t-32 -27t-46 -16t-57 -10t-43 -6.5v-14l1 -62v-16q78 -4 94 -11l3 -1q11 -2 24 -14.5t13 -22.5q0 -40 -33 -57z" />
    <glyph glyph-name="tbar" unicode="&#x167;" horiz-adv-x="619" 
d="M474 264l-63 -2v-58q0 -102 -11 -147q-14 -55 -96 -55q-36 0 -61.5 15.5t-32.5 46.5q-6 22 -6 74v124l-28 -1q-59 0 -86 14q-36 15 -36 54v3q2 12 15 23.5t38 17.5t48 6h52v31t-0.5 46t-0.5 27q-99 4 -132 15t-49 30.5t-16 51.5q0 36 13.5 57.5t42 33.5t111.5 13h298
q67 0 100 -20t34 -63q0 -33 -12.5 -55t-42.5 -36q-31 -15 -106 -22l-37 -3v-105q67 0 104.5 -7.5t36.5 -33.5q-3 -70 -77 -75z" />
    <glyph glyph-name="Utilde" unicode="&#x168;" 
d="M352 829q15 0 29.5 6t35 21.5t31.5 15.5q9 0 15 -3q7 -4 11 -14t4 -17q0 -11 -6 -26t-13 -24q-20 -26 -43.5 -41.5t-57.5 -15.5q-25 0 -64 20.5t-62 20.5q-19 0 -50.5 -15.5t-39.5 -15.5l-11 4q-11 4 -11 25q0 15 15.5 45.5t41.5 46.5t56 16q15 0 34 -7t47.5 -24.5
t37.5 -17.5zM254 312q-1 -41 11.5 -65t30.5 -24q21 0 37.5 23.5t23.5 97.5q2 17 6 107t10 116q10 41 29.5 61t59.5 20q29 0 46.5 -16t30.5 -45q26 -59 26 -230q0 -54 -13 -111.5t-35 -97.5q-41 -72 -99.5 -111t-129.5 -39q-44 0 -87 15.5t-76 50t-54.5 84t-29.5 113.5
q-11 82 -11 212q0 79 7 123q3 23 19 46.5t47 38t65 14.5l26 -2q18 -4 34 -19t24 -45t8 -66q0 -21 -3.5 -108.5t-2.5 -142.5z" />
    <glyph glyph-name="utilde" unicode="&#x169;" horiz-adv-x="656" 
d="M618 610v-1l3 -134v-22q0 -76 -7 -132q-37 -309 -284 -309q-84 0 -149 32.5t-98 103.5q-20 44 -34.5 103t-14.5 159q0 128 6 182q3 27 17 48.5t40 31t51 9.5q57 -1 80 -29t24 -85l4 -183q2 -94 8.5 -124t19.5 -44q17 -17 39 -17q14 0 28 10t22 26q6 13 11.5 35t10 58
t6.5 73.5t2 72v35.5q2 105 34 138t90 34h5q26 0 46 -7t29 -21.5t10 -30.5zM383 810q15 0 29.5 6t35 21.5t31.5 15.5q9 0 15 -3q7 -4 11 -14t4 -17q0 -11 -6 -26t-13 -24q-20 -26 -43.5 -41.5t-57.5 -15.5q-25 0 -64 20.5t-62 20.5q-19 0 -50.5 -15.5t-39.5 -15.5l-11 4
q-11 4 -11 25q0 15 15.5 45.5t41.5 46.5t56 16q15 0 34 -7t47.5 -24.5t37.5 -17.5z" />
    <glyph glyph-name="Umacron" unicode="&#x16a;" 
d="M450 736q-5 -3 -17.5 -5t-14.5 -2h-179l-22 -1q-37 0 -57 10q-17 9 -17 42q3 19 22 29.5t38 10.5l115 2q110 0 127 -9l3 -1q8 -2 16.5 -13t8.5 -17q0 -33 -23 -46zM254 312q-1 -41 11.5 -65t30.5 -24q21 0 37.5 23.5t23.5 97.5q2 17 6 107t10 116q10 41 29.5 61t59.5 20
q29 0 46.5 -16t30.5 -45q26 -59 26 -230q0 -54 -13 -111.5t-35 -97.5q-41 -72 -99.5 -111t-129.5 -39q-44 0 -87 15.5t-76 50t-54.5 84t-29.5 113.5q-11 82 -11 212q0 79 7 123q3 23 19 46.5t47 38t65 14.5l26 -2q18 -4 34 -19t24 -45t8 -66q0 -21 -3.5 -108.5t-2.5 -142.5z
" />
    <glyph glyph-name="umacron" unicode="&#x16b;" horiz-adv-x="656" 
d="M618 610v-1l3 -134v-22q0 -76 -7 -132q-37 -309 -284 -309q-84 0 -149 32.5t-98 103.5q-20 44 -34.5 103t-14.5 159q0 128 6 182q3 27 17 48.5t40 31t51 9.5q57 -1 80 -29t24 -85l4 -183q2 -94 8.5 -124t19.5 -44q17 -17 39 -17q14 0 28 10t22 26q6 13 11.5 35t10 58
t6.5 73.5t2 72v35.5q2 105 34 138t90 34h5q26 0 46 -7t29 -21.5t10 -30.5zM469 736q-5 -3 -17.5 -5t-14.5 -2h-179l-22 -1q-37 0 -57 10q-17 9 -17 42q3 19 22 29.5t38 10.5l115 2q110 0 127 -9l3 -1q8 -2 16.5 -13t8.5 -17q0 -33 -23 -46z" />
    <glyph glyph-name="Ubreve" unicode="&#x16c;" 
d="M321 701q-50 0 -82.5 20.5t-43.5 51t-11 56.5q0 15 12.5 25t28.5 10q24 0 36 -25.5t15 -29.5q5 -7 18 -16.5t25 -9.5q28 0 44 22q2 2 6 7.5t18.5 27.5t37.5 23q34 0 34 -48q0 -20 -13.5 -46.5t-48 -47t-76.5 -20.5zM254 312q-1 -41 11.5 -65t30.5 -24q21 0 37.5 23.5
t23.5 97.5q2 17 6 107t10 116q10 41 29.5 61t59.5 20q29 0 46.5 -16t30.5 -45q26 -59 26 -230q0 -54 -13 -111.5t-35 -97.5q-41 -72 -99.5 -111t-129.5 -39q-44 0 -87 15.5t-76 50t-54.5 84t-29.5 113.5q-11 82 -11 212q0 79 7 123q3 23 19 46.5t47 38t65 14.5l26 -2
q18 -4 34 -19t24 -45t8 -66q0 -21 -3.5 -108.5t-2.5 -142.5z" />
    <glyph glyph-name="ubreve" unicode="&#x16d;" horiz-adv-x="656" 
d="M618 610v-1l3 -134v-22q0 -76 -7 -132q-37 -309 -284 -309q-84 0 -149 32.5t-98 103.5q-20 44 -34.5 103t-14.5 159q0 128 6 182q3 27 17 48.5t40 31t51 9.5q57 -1 80 -29t24 -85l4 -183q2 -94 8.5 -124t19.5 -44q17 -17 39 -17q14 0 28 10t22 26q6 13 11.5 35t10 58
t6.5 73.5t2 72v35.5q2 105 34 138t90 34h5q26 0 46 -7t29 -21.5t10 -30.5zM334 690q-50 0 -82.5 20.5t-43.5 51t-11 56.5q0 15 12.5 25t28.5 10q24 0 36 -25.5t15 -29.5q5 -7 18 -16.5t25 -9.5q28 0 44 22q2 2 6 7.5t18.5 27.5t37.5 23q34 0 34 -48q0 -20 -13.5 -46.5
t-48 -47t-76.5 -20.5z" />
    <glyph glyph-name="Uring" unicode="&#x16e;" 
d="M307 908q46 -1 76 -28t30 -65q0 -33 -14.5 -60.5t-38.5 -38.5t-46 -11q-23 0 -48.5 9t-43 33t-17.5 54v5q0 43 28.5 71t73.5 31zM307 773h3q12 0 21 10.5t9 24.5q0 16 -9.5 24.5t-21.5 8.5q-15 0 -23.5 -10.5t-8.5 -22.5q0 -13 8 -24t22 -11zM254 312q-1 55 2.5 142.5
t3.5 108.5q0 36 -8 66t-24 45t-34 19l-26 2q-48 0 -86 -26t-45 -73q-7 -44 -7 -123q0 -130 11 -212q6 -50 22.5 -96t45.5 -84t74.5 -60.5t104.5 -22.5q71 0 129.5 39t99.5 111q22 40 35 97.5t13 111.5q0 171 -26 230q-13 29 -30.5 45t-46.5 16q-30 0 -53.5 -15t-35.5 -66
q-6 -26 -10 -116t-6 -107q-6 -64 -21 -92.5t-40 -28.5q-18 0 -30.5 24t-11.5 65z" />
    <glyph glyph-name="uring" unicode="&#x16f;" horiz-adv-x="656" 
d="M618 609v1l-1 12q-1 16 -10 30.5t-29 21.5t-46 7h-5q-58 -1 -90 -34t-34 -138v-4t-0.5 -60t-8 -117.5t-21.5 -92.5q-8 -16 -22 -26t-28 -10q-22 0 -39 17q-13 14 -19.5 44t-8.5 124l-4 183q-1 57 -24 85t-80 29q-25 0 -51 -9.5t-40 -31t-17 -48.5q-6 -54 -6 -182
q0 -80 11 -142t38 -120q33 -71 98 -103.5t149 -32.5q247 0 284 309q7 56 7 132v22zM330 904q46 -1 76 -28t30 -65q0 -33 -14.5 -60.5t-38.5 -38.5t-46 -11q-23 0 -48.5 9t-43 33t-17.5 54v5q0 43 28.5 71t73.5 31zM330 769h3q12 0 21 10.5t9 24.5q0 16 -9.5 24.5t-21.5 8.5
q-15 0 -23.5 -10.5t-8.5 -22.5q0 -13 8 -24t22 -11z" />
    <glyph glyph-name="Uhungarumlaut" unicode="&#x170;" 
d="M258 883h10q25 0 37 -7q12 -6 12 -21q-1 -14 -18.5 -41t-48.5 -57.5t-44 -33.5l-13 -1q-15 1 -24 9t-9 19q0 9 4 19q27 74 56 102q12 12 38 12zM426 883h10q25 0 37 -7q12 -6 12 -21q-1 -14 -18.5 -41t-48.5 -57.5t-44 -33.5l-13 -1q-15 1 -24 9t-9 19q0 9 4 19
q27 74 56 102q12 12 38 12zM254 312q-1 -41 11.5 -65t30.5 -24q21 0 37.5 23.5t23.5 97.5q2 17 6 107t10 116q10 41 29.5 61t59.5 20q29 0 46.5 -16t30.5 -45q26 -59 26 -230q0 -54 -13 -111.5t-35 -97.5q-41 -72 -99.5 -111t-129.5 -39q-44 0 -87 15.5t-76 50t-54.5 84
t-29.5 113.5q-11 82 -11 212q0 79 7 123q3 23 19 46.5t47 38t65 14.5l26 -2q18 -4 34 -19t24 -45t8 -66q0 -21 -3.5 -108.5t-2.5 -142.5z" />
    <glyph glyph-name="uhungarumlaut" unicode="&#x171;" horiz-adv-x="656" 
d="M618 610v-1l3 -134v-22q0 -76 -7 -132q-37 -309 -284 -309q-84 0 -149 32.5t-98 103.5q-20 44 -34.5 103t-14.5 159q0 128 6 182q3 27 17 48.5t40 31t51 9.5q57 -1 80 -29t24 -85l4 -183q2 -94 8.5 -124t19.5 -44q17 -17 39 -17q14 0 28 10t22 26q6 13 11.5 35t10 58
t6.5 73.5t2 72v35.5q2 105 34 138t90 34h5q26 0 46 -7t29 -21.5t10 -30.5zM457 864h10q25 0 37 -7q12 -6 12 -21q-1 -14 -18.5 -41t-48.5 -57.5t-44 -33.5l-13 -1q-15 1 -24 9t-9 19q0 9 4 19q27 74 56 102q12 12 38 12zM289 864h10q25 0 37 -7q12 -6 12 -21
q-1 -14 -18.5 -41t-48.5 -57.5t-44 -33.5l-13 -1q-15 1 -24 9t-9 19q0 9 4 19q27 74 56 102q12 12 38 12z" />
    <glyph glyph-name="Uogonek" unicode="&#x172;" 
d="M254 312q-1 -41 11.5 -65t30.5 -24q21 0 37.5 23.5t23.5 97.5q2 17 6 107t10 116q10 41 29.5 61t59.5 20q29 0 46.5 -16t30.5 -45q26 -59 26 -230q0 -54 -13 -111.5t-35 -97.5q-39 -68 -90 -104h1l-28 -29q-31 -33 -42 -53q-5 -15 -5 -20q0 -9 5 -13q5 -3 11 -3
q5 0 11.5 2t17 8t13.5 7q18 8 32 8q12 0 22 -6q11 -6 22 -16t11 -20q-1 -16 -14 -33t-26 -27q-23 -17 -57.5 -27.5t-64.5 -10.5h-4q-45 1 -74 26.5t-29 68.5q0 15 3 28q7 30 29 63l6 2q-40 3 -79 20t-69.5 51t-50 82t-27.5 109q-11 82 -11 212q0 79 7 123q3 23 19 46.5
t47 38t65 14.5l26 -2q18 -4 34 -19t24 -45t8 -66q0 -21 -3.5 -108.5t-2.5 -142.5z" />
    <glyph glyph-name="uogonek" unicode="&#x173;" horiz-adv-x="656" 
d="M618 610v-1l3 -134v-22q0 -76 -7 -132q-25 -202 -138 -272l-38 -39q-31 -33 -42 -53q-5 -15 -5 -20q0 -9 5 -13q5 -3 11 -3q5 0 11.5 2t17 8t13.5 7q18 8 32 8q12 0 22 -6q11 -6 22 -16t11 -20q-1 -16 -14 -33t-26 -27q-23 -17 -57.5 -27.5t-64.5 -10.5h-4
q-45 1 -74 26.5t-29 68.5q0 15 3 28q8 40 41 80l2 3q-56 2 -101.5 19t-77.5 45.5t-51 71.5q-20 44 -34.5 103t-14.5 159q0 128 6 182q3 27 17 48.5t40 31t51 9.5q57 -1 80 -29t24 -85l4 -183q2 -94 8.5 -124t19.5 -44q17 -17 39 -17q14 0 28 10t22 26q6 13 11.5 35t10 58
t6.5 73.5t2 72v35.5q2 105 34 138t90 34h5q26 0 46 -7t29 -21.5t10 -30.5z" />
    <glyph glyph-name="Wcircumflex" unicode="&#x174;" horiz-adv-x="822" 
d="M433 464q27 0 54 -23t70 -115l5 -10q2 5 6.5 21.5t30.5 157t65 170.5q9 7 24.5 12t29.5 5q34 0 58 -23.5t24 -71.5v-5q-4 -101 -25.5 -203.5t-70.5 -233.5q-21 -56 -45.5 -86.5t-43.5 -39t-35 -8.5q-33 0 -65 25.5t-55.5 79.5t-32.5 104q-4 -5 -21.5 -43.5t-35.5 -70
t-39.5 -55.5t-43.5 -35t-40 -12h-6q-32 0 -61 17t-55 68q-41 101 -69.5 256t-28.5 282q0 29 5 39q30 24 75 24q21 0 43 -6t35 -16q29 -21 42 -57.5t18.5 -82t7.5 -56.5q1 -4 2.5 -15.5t7.5 -95t18 -84.5q2 0 8.5 4.5t29 59t41 79.5t37.5 34.5t36 9.5zM402 874l27 3
q27 0 42 -11q67 -52 90 -79.5t25 -46.5q0 -20 -10 -31t-27 -11q-5 0 -12 1t-15 6.5t-21 16.5t-19 16l-47 37l-4 1l-5 -2q-10 -6 -39 -32t-44 -37q-7 -6 -28 -6q-14 0 -26 9t-14 20l-1 9q0 20 13 33q80 91 115 104z" />
    <glyph glyph-name="wcircumflex" unicode="&#x175;" horiz-adv-x="804" 
d="M400 128q-14 -32 -45.5 -60t-66.5 -42.5t-67 -12.5q-60 4 -104 40.5t-67 110.5t-23 192q0 101 20 190.5t53 115.5q16 12 42.5 20.5t48.5 8.5q29 0 46 -15.5t22 -39t5 -43.5q0 -36 -14 -124q-1 -3 -7.5 -39.5t-10 -65t-3.5 -52.5q0 -18 4.5 -35t14.5 -17l5 1q9 2 18.5 13
t25 51.5t23.5 58.5t18.5 33t24.5 25t34 10l16 -1q32 -4 54 -36q10 -17 28.5 -72t29.5 -74t24 -19q9 0 16.5 7t10 24t2 37.5t-0.5 22.5q0 31 -11.5 102.5t-11.5 101.5q0 54 28 81t104 27q20 0 31 -6.5t16 -22.5q15 -49 29 -127t17 -155v-14q0 -68 -14.5 -125.5t-43 -99.5
t-70.5 -64.5t-95 -22.5q-23 0 -53.5 11t-59 39t-43.5 62zM389 874l27 3q27 0 42 -11q67 -52 90 -79.5t25 -46.5q0 -20 -10 -31t-27 -11q-5 0 -12 1t-15 6.5t-21 16.5t-19 16l-47 37l-4 1l-5 -2q-10 -6 -39 -32t-44 -37q-7 -6 -28 -6q-14 0 -26 9t-14 20l-1 9q0 20 13 33
q80 91 115 104z" />
    <glyph glyph-name="Ycircumflex" unicode="&#x176;" horiz-adv-x="628" 
d="M27 596l-2 25q0 54 48 67q23 6 49 6q28 0 52.5 -10t39.5 -29q14 -19 29 -46.5t40.5 -81.5t38.5 -73l58 98q2 3 28.5 51.5t56.5 68.5t75 20q81 0 81 -61q0 -44 -20 -91q-7 -16 -21 -44.5t-66 -121.5q-16 -28 -55 -97.5t-66 -114.5q-1 -2 -28 -47t-49 -70.5t-48 -37
t-56 -11.5q-17 0 -34.5 9.5t-27.5 31t-10 44.5v10q1 18 11.5 45t35.5 75.5t30 64.5l-89 122q-54 75 -74.5 118t-26.5 80zM306 882l27 3q27 0 42 -11q67 -52 90 -79.5t25 -46.5q0 -20 -10 -31t-27 -11q-5 0 -12 1t-15 6.5t-21 16.5t-19 16l-47 37l-4 1l-5 -2q-10 -6 -39 -32
t-44 -37q-7 -6 -28 -6q-14 0 -26 9t-14 20l-1 9q0 20 13 33q80 91 115 104z" />
    <glyph glyph-name="ycircumflex" unicode="&#x177;" horiz-adv-x="572" 
d="M336 276q-22 -13 -62 -13q-50 0 -95 18t-72.5 47t-41.5 56q-42 83 -42 218q0 22 3 35q7 31 35 46.5t66 15.5q33 0 61 -9q21 -19 29 -90t11 -86t6.5 -28t9.5 -23.5t15 -18t24 -7.5q28 0 43 24t28 91.5t21 96.5q17 37 50 39h17q35 0 59 -22t36 -63t12 -96q0 -25 -4 -73
l-1 -10q-13 -139 -43 -216.5t-68 -121.5t-95 -66t-127 -22q-47 0 -80 25.5t-33 71.5v7q0 28 24 47.5t59 23.5q59 6 98.5 23t52.5 59zM271 892l27 3q27 0 42 -11q67 -52 90 -79.5t25 -46.5q0 -20 -10 -31t-27 -11q-5 0 -12 1t-15 6.5t-21 16.5t-19 16l-47 37l-4 1l-5 -2
q-10 -6 -39 -32t-44 -37q-7 -6 -28 -6q-14 0 -26 9t-14 20l-1 9q0 20 13 33q80 91 115 104z" />
    <glyph glyph-name="Ydieresis" unicode="&#x178;" horiz-adv-x="628" 
d="M219 837q12 4 28 4q28 0 46.5 -15t18.5 -46q0 -24 -15.5 -40.5t-49.5 -16.5q-30 0 -45.5 16t-15.5 36q0 47 33 62zM392 837q16 4 29 4q28 0 46 -15t18 -46q0 -24 -15.5 -40.5t-49.5 -16.5q-30 0 -45.5 16t-15.5 36q0 46 33 62zM27 596l-2 25q0 54 48 67q23 6 49 6
q28 0 52.5 -10t39.5 -29q14 -19 29 -46.5t40.5 -81.5t38.5 -73l58 98q2 3 28.5 51.5t56.5 68.5t75 20q81 0 81 -61q0 -44 -20 -91q-7 -16 -21 -44.5t-66 -121.5q-16 -28 -55 -97.5t-66 -114.5q-1 -2 -28 -47t-49 -70.5t-48 -37t-56 -11.5q-17 0 -34.5 9.5t-27.5 31t-10 44.5
v10q1 18 11.5 45t35.5 75.5t30 64.5l-89 122q-54 75 -74.5 118t-26.5 80z" />
    <glyph glyph-name="Zacute" unicode="&#x179;" horiz-adv-x="552" 
d="M343 899h10q25 0 37 -7q12 -6 12 -21q-1 -15 -20 -44.5t-52.5 -65.5t-46.5 -39l-13 -1q-15 1 -24 9t-9 19q0 9 4 19q10 28 28 64.5t36 54.5q12 12 38 12zM235 193l23 -1q33 0 97 8.5t84 10.5q28 4 42 4q20 0 29 -8q8 -7 13 -23t5 -32q0 -32 -17.5 -63.5t-47 -51.5
t-72.5 -26q-58 -8 -116 -8q-118 0 -178 28q-72 35 -72 120q0 34 15.5 70t64.5 88q28 29 107.5 103t106.5 103q-14 -2 -56.5 -8.5t-69 -8.5t-47.5 -2h-14q-51 1 -78.5 37.5t-27.5 79.5q0 29 13 44q2 6 32.5 15t95 17t111.5 8h38q94 0 140.5 -14t63.5 -37q21 -29 21 -67
q0 -23 -10.5 -55t-34.5 -68.5t-53 -65.5q-150 -155 -208 -197z" />
    <glyph glyph-name="zacute" unicode="&#x17a;" horiz-adv-x="589" 
d="M355 889h10q25 0 37 -7q12 -6 12 -21q-1 -15 -20 -44.5t-52.5 -65.5t-46.5 -39l-13 -1q-15 1 -24 9t-9 19q0 9 4 19q10 28 28 64.5t36 54.5q12 12 38 12zM271 477l-31 3q-98 14 -139 26.5t-61 34.5t-19 51q0 12 3 25q17 71 130 71q70 0 148 -13t132 -34
q30 -11 54.5 -30.5t34.5 -43t10 -43.5q0 -37 -29 -79l-108 -130q-30 -31 -68 -79t-44 -55q55 22 136 40q35 8 66 8q70 0 88 -53q3 -12 3 -24q0 -90 -186 -133l-4 -1q-75 -15 -139 -15q-79 0 -113 26q-32 25 -56 63t-24 69v4q0 3 1.5 10.5t10.5 30.5t39 66t61.5 82t65 78
t38.5 45z" />
    <glyph glyph-name="Zdotaccent" unicode="&#x17b;" horiz-adv-x="552" 
d="M258 851q13 5 32 5q30 0 50 -16.5t20 -49.5q0 -27 -17 -45t-54 -18q-32 0 -49 17t-17 39q0 51 35 68zM235 193l23 -1q33 0 97 8.5t84 10.5q28 4 42 4q20 0 29 -8q8 -7 13 -23t5 -32q0 -32 -17.5 -63.5t-47 -51.5t-72.5 -26q-58 -8 -116 -8q-118 0 -178 28q-72 35 -72 120
q0 34 15.5 70t64.5 88q28 29 107.5 103t106.5 103q-14 -2 -56.5 -8.5t-69 -8.5t-47.5 -2h-14q-51 1 -78.5 37.5t-27.5 79.5q0 29 13 44q2 6 32.5 15t95 17t111.5 8h38q94 0 140.5 -14t63.5 -37q21 -29 21 -67q0 -23 -10.5 -55t-34.5 -68.5t-53 -65.5q-150 -155 -208 -197z
" />
    <glyph glyph-name="zdotaccent" unicode="&#x17c;" horiz-adv-x="589" 
d="M270 841q13 5 32 5q30 0 50 -16.5t20 -49.5q0 -27 -17 -45t-54 -18q-32 0 -49 17t-17 39q0 51 35 68zM271 477l-31 3q-98 14 -139 26.5t-61 34.5t-19 51q0 12 3 25q17 71 130 71q70 0 148 -13t132 -34q30 -11 54.5 -30.5t34.5 -43t10 -43.5q0 -37 -29 -79l-108 -130
q-30 -31 -68 -79t-44 -55q55 22 136 40q35 8 66 8q70 0 88 -53q3 -12 3 -24q0 -90 -186 -133l-4 -1q-75 -15 -139 -15q-79 0 -113 26q-32 25 -56 63t-24 69v4q0 3 1.5 10.5t10.5 30.5t39 66t61.5 82t65 78t38.5 45z" />
    <glyph glyph-name="Zcaron" unicode="&#x17d;" horiz-adv-x="552" 
d="M279 730q-35 13 -115 104q-13 13 -13 33l1 9q2 11 14 20t26 9q21 0 28 -6q15 -11 44 -37t39 -32l6 -3l5 2l38 31q7 6 23.5 19.5t27 20t23.5 6.5q17 0 27 -11t10 -31q-1 -13 -17.5 -37.5t-97.5 -88.5q-15 -11 -42 -11zM235 193l23 -1q33 0 97 8.5t84 10.5q28 4 42 4
q20 0 29 -8q8 -7 13 -23t5 -32q0 -32 -17.5 -63.5t-47 -51.5t-72.5 -26q-58 -8 -116 -8q-118 0 -178 28q-72 35 -72 120q0 34 15.5 70t64.5 88q28 29 107.5 103t106.5 103q-14 -2 -56.5 -8.5t-69 -8.5t-47.5 -2h-14q-51 1 -78.5 37.5t-27.5 79.5q0 29 13 44q2 6 32.5 15
t95 17t111.5 8h38q94 0 140.5 -14t63.5 -37q21 -29 21 -67q0 -23 -10.5 -55t-34.5 -68.5t-53 -65.5q-150 -155 -208 -197z" />
    <glyph glyph-name="zcaron" unicode="&#x17e;" horiz-adv-x="589" 
d="M284 711q-35 13 -115 104q-13 13 -13 33l1 9q2 11 14 20t26 9q21 0 28 -6q15 -11 44 -37t39 -32l6 -3l5 2l38 31q7 6 23.5 19.5t27 20t23.5 6.5q17 0 27 -11t10 -31q-1 -13 -17.5 -37.5t-97.5 -88.5q-15 -11 -42 -11zM271 477l-31 3q-98 14 -139 26.5t-61 34.5t-19 51
q0 12 3 25q17 71 130 71q70 0 148 -13t132 -34q30 -11 54.5 -30.5t34.5 -43t10 -43.5q0 -37 -29 -79l-108 -130q-30 -31 -68 -79t-44 -55q55 22 136 40q35 8 66 8q70 0 88 -53q3 -12 3 -24q0 -90 -186 -133l-4 -1q-75 -15 -139 -15q-79 0 -113 26q-32 25 -56 63t-24 69v4
q0 3 1.5 10.5t10.5 30.5t39 66t61.5 82t65 78t38.5 45z" />
    <glyph glyph-name="Scommaaccent" unicode="&#x218;" horiz-adv-x="507" 
d="M239 -266h-10q-27 0 -35 12q-6 8 -6 17q0 6 3 9q3 4 14 18.5t12 31.5l-2 14l-22 23q-3 4 -5 15t-2 18v14q0 12 9 28q9 17 28 24t39 7q25 0 41.5 -7.5t28.5 -26.5q9 -15 9 -44q0 -23 -14.5 -60t-39 -64t-48.5 -29zM88 217q16 0 70.5 -14.5t75.5 -14.5h4q43 0 43 27
q0 14 -11.5 24t-45 28.5t-56.5 33.5t-46 34q-33 28 -50 70t-17 85q0 30 11.5 64.5t42 69.5t76 53t89.5 18q80 0 135.5 -37.5t55.5 -97.5q0 -28 -18 -45.5t-49 -18.5h-5l-96 7h-5q-15 -1 -26.5 -7t-11.5 -17q0 -5 5.5 -13t10.5 -12q14 -13 53.5 -38.5t60.5 -40t42.5 -33.5
t35 -36.5t23 -39t9.5 -48.5q0 -68 -28 -115.5t-82.5 -75.5t-136.5 -31h-15q-42 0 -86 8.5t-71 23.5t-38 29q-10 12 -16 30.5t-6 34.5q0 25 9 47t27 35q17 13 37 13z" />
    <glyph glyph-name="scommaaccent" unicode="&#x219;" horiz-adv-x="522" 
d="M232 -259h-10q-27 0 -35 12q-6 8 -6 17q0 6 3 9q3 4 14 18.5t12 31.5l-2 14l-22 23q-3 4 -5 15t-2 18v14q0 12 9 28q9 17 28 24t39 7q25 0 41.5 -7.5t28.5 -26.5q9 -15 9 -44q0 -23 -14.5 -60t-39 -64t-48.5 -29zM239 476q2 -4 10.5 -11.5t25.5 -19t34.5 -22.5t20.5 -13
l17 -11q57 -36 87 -62t48 -58t18 -74q0 -207 -294 -207q-43 0 -93.5 13t-73.5 35.5t-23 47.5q0 30 12.5 49t38.5 30t96.5 17.5t99.5 13.5q15 3 15 14q0 2 -2 5.5t-5 5.5l-62 34q-97 57 -136 110t-39 119q0 96 81.5 152.5t226.5 56.5q42 0 79.5 -10.5t55 -35.5t17.5 -53
t-21.5 -49.5t-62 -32.5t-100.5 -18t-67 -10q-2 -1 -4 -4t-2 -5z" />
    <glyph glyph-name="uni021A" unicode="&#x21a;" horiz-adv-x="596" 
d="M266 -252h-10q-27 0 -35 12q-6 8 -6 17q0 6 3 9q3 4 14 18.5t12 31.5l-2 14l-22 23q-3 4 -5 15t-2 18v14q0 12 9 28q9 17 28 24t39 7q25 0 41.5 -7.5t28.5 -26.5q9 -15 9 -44q0 -23 -14.5 -60t-39 -64t-48.5 -29zM23 594q0 22 7.5 45t26.5 37t44 14h127l203 -2
q79 0 113.5 -29t34.5 -87q0 -22 -11 -38.5t-32 -27t-46 -16t-57 -10t-43 -6.5v-14q0 -62 6 -210q4 -98 4 -148l-1 -49q-17 -25 -46.5 -40.5t-65.5 -15.5q-27 0 -53.5 10.5t-38.5 29.5q-6 47 -6 142q0 62 3 123l8 166q-2 0 -30 2t-41.5 3t-17.5 2q-36 4 -56 19
q-12 6 -22 32.5t-10 67.5z" />
    <glyph glyph-name="uni021B" unicode="&#x21b;" horiz-adv-x="619" 
d="M278 -249h-10q-27 0 -35 12q-6 8 -6 17q0 6 3 9q3 4 14 18.5t12 31.5l-2 14l-22 23q-3 4 -5 15t-2 18v14q0 12 9 28q9 17 28 24t39 7q25 0 41.5 -7.5t28.5 -26.5q9 -15 9 -44q0 -23 -14.5 -60t-39 -64t-48.5 -29zM210 64q-6 22 -6 74v29l1 112v204l-58 4
q-89 6 -113.5 31.5t-24.5 61.5t13.5 57.5t42 33.5t111.5 13h298q67 0 100 -20t34 -63q0 -33 -12.5 -55t-42.5 -36q-31 -15 -106 -22l-37 -3v-111l1 -51v-119q0 -102 -11 -147q-14 -55 -96 -55q-36 0 -61.5 15.5t-32.5 46.5z" />
    <glyph glyph-name="circumflex" unicode="&#x2c6;" horiz-adv-x="321" 
d="M133 682l27 3q27 0 42 -11q67 -52 90 -79.5t25 -46.5q0 -20 -10 -31t-27 -11q-5 0 -12 1t-15 6.5t-21 16.5t-19 16l-47 37l-4 1l-5 -2q-10 -6 -39 -32t-44 -37q-7 -6 -28 -6q-14 0 -26 9t-14 20l-1 9q0 20 13 33q80 91 115 104z" />
    <glyph glyph-name="caron" unicode="&#x2c7;" horiz-adv-x="323" 
d="M133 531q-35 13 -115 104q-13 13 -13 33l1 9q2 11 14 20t26 9q21 0 28 -6q15 -11 44 -37t39 -32l6 -3l5 2l38 31q7 6 23.5 19.5t27 20t23.5 6.5q17 0 27 -11t10 -31q-1 -13 -17.5 -37.5t-97.5 -88.5q-15 -11 -42 -11z" />
    <glyph glyph-name="breve" unicode="&#x2d8;" horiz-adv-x="273" 
d="M137 533q-50 0 -82.5 20.5t-43.5 51t-11 56.5q0 15 12.5 25t28.5 10q24 0 36 -25.5t15 -29.5q5 -7 18 -16.5t25 -9.5q28 0 44 22q2 2 6 7.5t18.5 27.5t37.5 23q34 0 34 -48q0 -20 -13.5 -46.5t-48 -47t-76.5 -20.5z" />
    <glyph glyph-name="dotaccent" unicode="&#x2d9;" horiz-adv-x="142" 
d="M38 486q13 5 32 5q30 0 50 -16.5t20 -49.5q0 -27 -17 -45t-54 -18q-32 0 -49 17t-17 39q0 51 35 68z" />
    <glyph glyph-name="ring" unicode="&#x2da;" horiz-adv-x="223" 
d="M109 498q46 -1 76 -28t30 -65q0 -33 -14.5 -60.5t-38.5 -38.5t-46 -11q-23 0 -48.5 9t-43 33t-17.5 54v5q0 43 28.5 71t73.5 31zM109 363h3q12 0 21 10.5t9 24.5q0 16 -9.5 24.5t-21.5 8.5q-15 0 -23.5 -10.5t-8.5 -22.5q0 -13 8 -24t22 -11z" />
    <glyph glyph-name="ogonek" unicode="&#x2db;" horiz-adv-x="271" 
d="M189 42q15 -6 23 -11t8 -10q0 -4 -5 -8t-7 -6l-38 -39q-31 -33 -42 -53q-5 -15 -5 -20q0 -9 5 -13q5 -3 11 -3q5 0 11.5 2t17 8t13.5 7q18 8 32 8q12 0 22 -6q11 -6 22 -16t11 -20q-1 -16 -14 -33t-26 -27q-23 -17 -57.5 -27.5t-64.5 -10.5h-4q-45 1 -74 26.5t-29 68.5
q0 15 3 28q8 38 41 80t71 69q17 10 18.5 10.5t2.5 0.5q10 4 27 2.5t27 -7.5z" />
    <glyph glyph-name="tilde" unicode="&#x2dc;" horiz-adv-x="363" 
d="M235 807q15 0 29.5 6t35 21.5t31.5 15.5q14 0 22 -11t8 -23q0 -11 -6 -26t-13 -24q-20 -26 -43.5 -41.5t-57.5 -15.5q-25 0 -64 20.5t-62 20.5q-19 0 -50.5 -15.5t-39.5 -15.5q-11 0 -16.5 8.5t-5.5 20.5q0 15 15.5 45.5t41.5 46.5t56 16q15 0 34 -7t47.5 -24.5
t37.5 -17.5z" />
    <glyph glyph-name="hungarumlaut" unicode="&#x2dd;" horiz-adv-x="332" 
d="M101 683h10q25 0 37 -7q12 -6 12 -21q-1 -14 -18.5 -41t-48.5 -57.5t-44 -33.5l-13 -1q-15 1 -24 9t-9 19q0 9 4 19q27 74 56 102q12 12 38 12zM269 683h10q25 0 37 -7q12 -6 12 -21q-1 -14 -18.5 -41t-48.5 -57.5t-44 -33.5l-13 -1q-15 1 -24 9t-9 19q0 9 4 19
q27 74 56 102q12 12 38 12z" />
    <glyph glyph-name="Wgrave" unicode="&#x1e80;" horiz-adv-x="822" 
d="M433 464q27 0 54 -23t70 -115l5 -10q2 5 6.5 21.5t30.5 157t65 170.5q9 7 24.5 12t29.5 5q34 0 58 -23.5t24 -71.5v-5q-4 -101 -25.5 -203.5t-70.5 -233.5q-21 -56 -45.5 -86.5t-43.5 -39t-35 -8.5q-33 0 -65 25.5t-55.5 79.5t-32.5 104q-4 -5 -21.5 -43.5t-35.5 -70
t-39.5 -55.5t-43.5 -35t-40 -12h-6q-32 0 -61 17t-55 68q-41 101 -69.5 256t-28.5 282q0 29 5 39q30 24 75 24q21 0 43 -6t35 -16q29 -21 42 -57.5t18.5 -82t7.5 -56.5q1 -4 2.5 -15.5t7.5 -95t18 -84.5q2 0 8.5 4.5t29 59t41 79.5t37.5 34.5t36 9.5zM357 875h10
q26 0 38 -12q14 -14 31.5 -46.5t32.5 -72.5q4 -10 4 -19q0 -11 -9 -19t-24 -9l-13 1q-10 2 -36 28t-53.5 63.5t-29.5 57.5q0 15 12 21q12 7 37 7z" />
    <glyph glyph-name="wgrave" unicode="&#x1e81;" horiz-adv-x="804" 
d="M400 128q-14 -32 -45.5 -60t-66.5 -42.5t-67 -12.5q-60 4 -104 40.5t-67 110.5t-23 192q0 101 20 190.5t53 115.5q16 12 42.5 20.5t48.5 8.5q29 0 46 -15.5t22 -39t5 -43.5q0 -36 -14 -124q-1 -3 -7.5 -39.5t-10 -65t-3.5 -52.5q0 -18 4.5 -35t14.5 -17l5 1q9 2 18.5 13
t25 51.5t23.5 58.5t18.5 33t24.5 25t34 10l16 -1q32 -4 54 -36q10 -17 28.5 -72t29.5 -74t24 -19q9 0 16.5 7t10 24t2 37.5t-0.5 22.5q0 31 -11.5 102.5t-11.5 101.5q0 54 28 81t104 27q20 0 31 -6.5t16 -22.5q15 -49 29 -127t17 -155v-14q0 -68 -14.5 -125.5t-43 -99.5
t-70.5 -64.5t-95 -22.5q-23 0 -53.5 11t-59 39t-43.5 62zM347 866h10q26 0 38 -12q14 -14 31.5 -46.5t32.5 -72.5q4 -10 4 -19q0 -11 -9 -19t-24 -9l-13 1q-10 2 -36 28t-53.5 63.5t-29.5 57.5q0 15 12 21q12 7 37 7z" />
    <glyph glyph-name="Wacute" unicode="&#x1e82;" horiz-adv-x="822" 
d="M433 464q27 0 54 -23t70 -115l5 -10q2 5 6.5 21.5t30.5 157t65 170.5q9 7 24.5 12t29.5 5q34 0 58 -23.5t24 -71.5v-5q-4 -101 -25.5 -203.5t-70.5 -233.5q-21 -56 -45.5 -86.5t-43.5 -39t-35 -8.5q-33 0 -65 25.5t-55.5 79.5t-32.5 104q-4 -5 -21.5 -43.5t-35.5 -70
t-39.5 -55.5t-43.5 -35t-40 -12h-6q-32 0 -61 17t-55 68q-41 101 -69.5 256t-28.5 282q0 29 5 39q30 24 75 24q21 0 43 -6t35 -16q29 -21 42 -57.5t18.5 -82t7.5 -56.5q1 -4 2.5 -15.5t7.5 -95t18 -84.5q2 0 8.5 4.5t29 59t41 79.5t37.5 34.5t36 9.5zM500 873h10q25 0 37 -7
q12 -6 12 -21q-1 -15 -20 -44.5t-52.5 -65.5t-46.5 -39l-13 -1q-15 1 -24 9t-9 19q0 9 4 19q10 28 28 64.5t36 54.5q12 12 38 12z" />
    <glyph glyph-name="wacute" unicode="&#x1e83;" horiz-adv-x="804" 
d="M400 128q-14 -32 -45.5 -60t-66.5 -42.5t-67 -12.5q-60 4 -104 40.5t-67 110.5t-23 192q0 101 20 190.5t53 115.5q16 12 42.5 20.5t48.5 8.5q29 0 46 -15.5t22 -39t5 -43.5q0 -36 -14 -124q-1 -3 -7.5 -39.5t-10 -65t-3.5 -52.5q0 -18 4.5 -35t14.5 -17l5 1q9 2 18.5 13
t25 51.5t23.5 58.5t18.5 33t24.5 25t34 10l16 -1q32 -4 54 -36q10 -17 28.5 -72t29.5 -74t24 -19q9 0 16.5 7t10 24t2 37.5t-0.5 22.5q0 31 -11.5 102.5t-11.5 101.5q0 54 28 81t104 27q20 0 31 -6.5t16 -22.5q15 -49 29 -127t17 -155v-14q0 -68 -14.5 -125.5t-43 -99.5
t-70.5 -64.5t-95 -22.5q-23 0 -53.5 11t-59 39t-43.5 62zM494 877h10q25 0 37 -7q12 -6 12 -21q-1 -15 -20 -44.5t-52.5 -65.5t-46.5 -39l-13 -1q-15 1 -24 9t-9 19q0 9 4 19q10 28 28 64.5t36 54.5q12 12 38 12z" />
    <glyph glyph-name="Wdieresis" unicode="&#x1e84;" horiz-adv-x="822" 
d="M433 464q27 0 54 -23t70 -115l5 -10q2 5 6.5 21.5t30.5 157t65 170.5q9 7 24.5 12t29.5 5q34 0 58 -23.5t24 -71.5v-5q-4 -101 -25.5 -203.5t-70.5 -233.5q-21 -56 -45.5 -86.5t-43.5 -39t-35 -8.5q-33 0 -65 25.5t-55.5 79.5t-32.5 104q-4 -5 -21.5 -43.5t-35.5 -70
t-39.5 -55.5t-43.5 -35t-40 -12h-6q-32 0 -61 17t-55 68q-41 101 -69.5 256t-28.5 282q0 29 5 39q30 24 75 24q21 0 43 -6t35 -16q29 -21 42 -57.5t18.5 -82t7.5 -56.5q1 -4 2.5 -15.5t7.5 -95t18 -84.5q2 0 8.5 4.5t29 59t41 79.5t37.5 34.5t36 9.5zM310 814q12 4 28 4
q28 0 46.5 -15t18.5 -46q0 -24 -15.5 -40.5t-49.5 -16.5q-30 0 -45.5 16t-15.5 36q0 47 33 62zM483 814q16 4 29 4q28 0 46 -15t18 -46q0 -24 -15.5 -40.5t-49.5 -16.5q-30 0 -45.5 16t-15.5 36q0 46 33 62z" />
    <glyph glyph-name="wdieresis" unicode="&#x1e85;" horiz-adv-x="804" 
d="M400 128q-14 -32 -45.5 -60t-66.5 -42.5t-67 -12.5q-60 4 -104 40.5t-67 110.5t-23 192q0 101 20 190.5t53 115.5q16 12 42.5 20.5t48.5 8.5q29 0 46 -15.5t22 -39t5 -43.5q0 -36 -14 -124q-1 -3 -7.5 -39.5t-10 -65t-3.5 -52.5q0 -18 4.5 -35t14.5 -17l5 1q9 2 18.5 13
t25 51.5t23.5 58.5t18.5 33t24.5 25t34 10l16 -1q32 -4 54 -36q10 -17 28.5 -72t29.5 -74t24 -19q9 0 16.5 7t10 24t2 37.5t-0.5 22.5q0 31 -11.5 102.5t-11.5 101.5q0 54 28 81t104 27q20 0 31 -6.5t16 -22.5q15 -49 29 -127t17 -155v-14q0 -68 -14.5 -125.5t-43 -99.5
t-70.5 -64.5t-95 -22.5q-23 0 -53.5 11t-59 39t-43.5 62zM304 816q12 4 28 4q28 0 46.5 -15t18.5 -46q0 -24 -15.5 -40.5t-49.5 -16.5q-30 0 -45.5 16t-15.5 36q0 47 33 62zM477 816q16 4 29 4q28 0 46 -15t18 -46q0 -24 -15.5 -40.5t-49.5 -16.5q-30 0 -45.5 16t-15.5 36
q0 46 33 62z" />
    <glyph glyph-name="Ygrave" unicode="&#x1ef2;" horiz-adv-x="628" 
d="M27 596l-2 25q0 54 48 67q23 6 49 6q28 0 52.5 -10t39.5 -29q14 -19 29 -46.5t40.5 -81.5t38.5 -73l58 98q2 3 28.5 51.5t56.5 68.5t75 20q81 0 81 -61q0 -44 -20 -91q-7 -16 -21 -44.5t-66 -121.5q-16 -28 -55 -97.5t-66 -114.5q-1 -2 -28 -47t-49 -70.5t-48 -37
t-56 -11.5q-17 0 -34.5 9.5t-27.5 31t-10 44.5v10q1 18 11.5 45t35.5 75.5t30 64.5l-89 122q-54 75 -74.5 118t-26.5 80zM258 878h10q26 0 38 -12q14 -14 31.5 -46.5t32.5 -72.5q4 -10 4 -19q0 -11 -9 -19t-24 -9l-13 1q-10 2 -36 28t-53.5 63.5t-29.5 57.5q0 15 12 21
q12 7 37 7z" />
    <glyph glyph-name="ygrave" unicode="&#x1ef3;" horiz-adv-x="572" 
d="M336 276q-22 -13 -62 -13q-50 0 -95 18t-72.5 47t-41.5 56q-42 83 -42 218q0 22 3 35q7 31 35 46.5t66 15.5q33 0 61 -9q21 -19 29 -90t11 -86t6.5 -28t9.5 -23.5t15 -18t24 -7.5q28 0 43 24t28 91.5t21 96.5q17 37 50 39h17q35 0 59 -22t36 -63t12 -96q0 -25 -4 -73
l-1 -10q-13 -139 -43 -216.5t-68 -121.5t-95 -66t-127 -22q-47 0 -80 25.5t-33 71.5v7q0 28 24 47.5t59 23.5q59 6 98.5 23t52.5 59zM226 884h10q26 0 38 -12q14 -14 31.5 -46.5t32.5 -72.5q4 -10 4 -19q0 -11 -9 -19t-24 -9l-13 1q-10 2 -36 28t-53.5 63.5t-29.5 57.5
q0 15 12 21q12 7 37 7z" />
    <glyph glyph-name="endash" unicode="&#x2013;" horiz-adv-x="681" 
d="M594 274q-4 -3 -11.5 -5.5t-21 -4.5t-16.5 -3l-347 -1l-32 -1q-58 0 -86 17q-14 8 -25.5 26t-11.5 46v4q2 15 15.5 29.5t39 23.5t47.5 9q29 0 86.5 1.5t117.5 1.5q76 0 149.5 -3.5t87.5 -11.5l4 -2q12 -3 25 -20.5t13 -29.5q0 -27 -9 -47t-25 -29z" />
    <glyph glyph-name="emdash" unicode="&#x2014;" horiz-adv-x="794" 
d="M709 274q-4 -3 -11.5 -5.5t-21 -4.5t-16.5 -3l-447 -1l-32 -1q-58 0 -86 17q-14 8 -25.5 26t-11.5 46v4q2 15 15.5 29.5t39 23.5t47.5 9q29 0 86.5 1.5t117.5 1.5q113 0 219 -4t118 -11l4 -2q12 -3 25 -20.5t13 -29.5q0 -27 -9 -47t-25 -29z" />
    <glyph glyph-name="quoteleft" unicode="&#x2018;" horiz-adv-x="249" 
d="M143 690q11 0 23 -4.5t17 -13.5q8 -15 4 -25q-5 -10 -10 -23t-6 -36l2 -14l18 -23q3 -4 5 -15t2 -18v-14q0 -12 -9 -28q-9 -17 -28 -24t-39 -7q-25 0 -41.5 7.5t-28.5 26.5q-9 15 -9 44q0 28 16.5 70.5t38.5 69.5t45 27z" />
    <glyph glyph-name="quoteright" unicode="&#x2019;" horiz-adv-x="198" 
d="M80 444q-11 0 -23 4.5t-17 13.5q-8 15 -4 25q5 10 10 23t6 36l-2 14l-18 23q-3 4 -5 15t-2 18v14q0 12 9 28q9 17 28 24t39 7q25 0 41.5 -7.5t28.5 -26.5q9 -15 9 -44q0 -28 -16.5 -70.5t-38.5 -69.5t-45 -27z" />
    <glyph glyph-name="quotesinglbase" unicode="&#x201a;" horiz-adv-x="216" 
d="M81 -53q-11 0 -23 4.5t-17 13.5q-8 15 -4 25q5 10 10 23t6 36l-2 14l-18 23q-3 4 -5 15t-2 18v14q0 12 9 28q9 17 28 24t39 7q25 0 41.5 -7.5t28.5 -26.5q9 -15 9 -44q0 -28 -16.5 -70.5t-38.5 -69.5t-45 -27z" />
    <glyph glyph-name="quotedblleft" unicode="&#x201c;" horiz-adv-x="429" 
d="M143 690q11 0 23 -4.5t17 -13.5q8 -15 4 -25q-5 -10 -10 -23t-6 -36l2 -14l18 -23q3 -4 5 -15t2 -18v-14q0 -12 -9 -28q-9 -17 -28 -24t-39 -7q-25 0 -41.5 7.5t-28.5 26.5q-9 15 -9 44q0 28 16.5 70.5t38.5 69.5t45 27zM332 690q11 0 23 -4.5t17 -13.5q8 -15 4 -25
q-5 -10 -10 -23t-6 -36l2 -14l18 -23q3 -4 5 -15t2 -18v-14q0 -12 -9 -28q-9 -17 -28 -24t-39 -7q-25 0 -41.5 7.5t-28.5 26.5q-9 15 -9 44q0 28 16.5 70.5t38.5 69.5t45 27z" />
    <glyph glyph-name="quotedblright" unicode="&#x201d;" horiz-adv-x="434" 
d="M283 445q-11 0 -23 4.5t-17 13.5q-8 15 -4 25q5 10 10 23t6 36l-2 14l-18 23q-3 4 -5 15t-2 18v14q0 12 9 28q9 17 28 24t39 7q25 0 41.5 -7.5t28.5 -26.5q9 -15 9 -44q0 -28 -16.5 -70.5t-38.5 -69.5t-45 -27zM95 445q-11 0 -23 4.5t-17 13.5q-8 15 -4 25q5 10 10 23
t6 36l-2 14l-18 23q-3 4 -5 15t-2 18v14q0 12 9 28q9 17 28 24t39 7q25 0 41.5 -7.5t28.5 -26.5q9 -15 9 -44q0 -28 -16.5 -70.5t-38.5 -69.5t-45 -27z" />
    <glyph glyph-name="quotedblbase" unicode="&#x201e;" horiz-adv-x="437" 
d="M94 -53q-11 0 -23 4.5t-17 13.5q-8 15 -4 25q5 10 10 23t6 36l-2 14l-18 23q-3 4 -5 15t-2 18v14q0 12 9 28q9 17 28 24t39 7q25 0 41.5 -7.5t28.5 -26.5q9 -15 9 -44q0 -28 -16.5 -70.5t-38.5 -69.5t-45 -27zM282 -53q-11 0 -23 4.5t-17 13.5q-8 15 -4 25q5 10 10 23
t6 36l-2 14l-18 23q-3 4 -5 15t-2 18v14q0 12 9 28q9 17 28 24t39 7q25 0 41.5 -7.5t28.5 -26.5q9 -15 9 -44q0 -28 -16.5 -70.5t-38.5 -69.5t-45 -27z" />
    <glyph glyph-name="dagger" unicode="&#x2020;" horiz-adv-x="597" 
d="M99 527h110v108q0 30 22 50.5t51 20.5q21 0 49 -6q28 -9 41.5 -21.5t16.5 -29.5v-122l72 1h12q107 0 107 -45l-2 -11q-7 -24 -19 -49t-29 -34q-18 -10 -46 -16t-81 -6h-14v-195l-1 -26q-2 -81 -5 -108t-12 -36q-12 -12 -52 -12l-26 2q-14 2 -32.5 13t-24.5 21
q-14 19 -22 43t-8 68v235q-89 7 -140 19q-46 10 -52 91v5q0 41 56 41z" />
    <glyph glyph-name="daggerdbl" unicode="&#x2021;" horiz-adv-x="602" 
d="M103 537h110v98q0 30 22 50.5t51 20.5q21 0 49 -6q28 -9 41.5 -21.5t16.5 -29.5v-112l72 1h12q107 0 107 -39l-2 -9q-7 -21 -19 -42.5t-29 -29.5q-40 -19 -127 -19h-14v-69l50 1h12q107 0 107 -39l-2 -9q-7 -21 -19 -42.5t-29 -29.5q-13 -6 -34 -12.5t-71 -6.5h-14v-20
l-1 -26q-2 -83 -5 -111.5t-12 -37.5q-12 -12 -52 -12l-26 2q-14 2 -32.5 13t-24.5 21q-14 18 -22 44t-8 72v60q-88 8 -123 16q-46 9 -52 79v4q0 35 56 35l29 -1h90l1 73q-95 7 -141 17q-46 9 -52 79v4q0 35 56 35z" />
    <glyph glyph-name="bullet" unicode="&#x2022;" horiz-adv-x="363" 
d="M105 461q10 4 30 7t34 3q68 0 103 -30.5t35 -100.5q0 -67 -36 -96.5t-105 -29.5q-36 0 -67 12t-47.5 40t-16.5 59q0 51 14 84t56 52z" />
    <glyph glyph-name="ellipsis" unicode="&#x2026;" horiz-adv-x="1000" 
d="M138 180q21 10 49 10q27 0 51.5 -13.5t35 -33t10.5 -36.5q0 -48 -34 -74t-82 -26q-21 0 -44.5 12.5t-34.5 31t-11 34.5q0 31 17 57t43 38zM462 180q21 10 49 10q27 0 51.5 -13.5t35 -33t10.5 -36.5q0 -48 -34 -74t-82 -26q-21 0 -44.5 12.5t-34.5 31t-11 34.5q0 31 17 57
t43 38zM786 180q21 10 49 10q27 0 51.5 -13.5t35 -33t10.5 -36.5q0 -48 -34 -74t-82 -26q-21 0 -44.5 12.5t-34.5 31t-11 34.5q0 31 17 57t43 38z" />
    <glyph glyph-name="perthousand" unicode="&#x2030;" horiz-adv-x="977" 
d="M223 686q2 -2 6 -2q16 -5 34 -22t29.5 -47t11.5 -60q0 -28 -12 -61t-43 -57t-73 -24q-41 0 -69 24t-38.5 54.5t-10.5 55.5q0 31 15.5 66t45 56t61.5 21t43 -4zM148 552l-1 -6q0 -11 11 -23t20 -12q15 0 26 12.5t11 34.5q0 18 -8.5 28.5t-23.5 10.5q-14 0 -24.5 -13
t-10.5 -32zM530 299q29 -1 56.5 -16t45.5 -51.5t18 -77.5v-8q-1 -31 -16 -62t-50 -50.5t-74 -19.5q-38 0 -68 23t-41.5 55t-11.5 59q0 29 14.5 62t48.5 59.5t78 26.5zM525 201h-1q-17 0 -28.5 -14t-11.5 -38q0 -19 9.5 -31.5t25.5 -12.5t26 12.5t10 36.5v3q-2 44 -30 44z
M586 682q14 -4 22.5 -15.5t8.5 -26.5v-5q0 -6 -2 -8q-107 -163 -221 -321.5t-204 -269.5q-15 -19 -30 -27q-8 -5 -29 -11l-24 -1q-13 0 -25 6t-19 18q-5 9 -5 20q0 9 8 30t15 30l383 521q33 43 56 58q13 8 29 8q8 0 21.5 -3t15.5 -3zM814 296q29 -1 57.5 -15.5t48 -50.5
t19.5 -76v-8q-1 -31 -16 -62t-50 -50.5t-74 -19.5q-38 0 -68 23t-41.5 55t-11.5 59q0 42 23 79t54 51.5t59 14.5zM814 201h-1q-22 -1 -32 -18t-10 -34q0 -19 10.5 -31t26.5 -12t27 12.5t11 35.5v3q-1 19 -8.5 31.5t-23.5 12.5z" />
    <glyph glyph-name="guilsinglleft" unicode="&#x2039;" horiz-adv-x="450" 
d="M321 602q27 5 37 5q67 0 66 -55q-1 -22 -12 -46.5t-33 -51.5t-64 -66t-52 -52l-12 -17q0 -2 1 -4t11 -12q6 -6 73 -65t82 -93q4 -11 4 -24q0 -36 -27 -68q-11 -12 -34 -12l-20 2q-18 4 -57.5 28t-128.5 99.5t-96 80.5q-32 24 -32 54q0 10 5.5 22t10.5 17q5 4 18.5 17
t121 122t138.5 119z" />
    <glyph glyph-name="guilsinglright" unicode="&#x203a;" horiz-adv-x="447" 
d="M123 602q12 -4 44.5 -30.5t123 -118t110.5 -109.5q5 -5 10.5 -17t5.5 -22q0 -30 -32 -54q-7 -5 -96 -80.5t-128.5 -99.5t-57.5 -28l-20 -2q-23 0 -34 12q-27 32 -27 68q0 13 4 24q15 34 82 93t73 65q1 1 6.5 6t5.5 10l-12 17q-10 13 -52 52t-64 66t-33 51.5t-12 46.5
q-1 55 66 55q10 0 37 -5z" />
    <glyph glyph-name="fraction" unicode="&#x2044;" horiz-adv-x="542" 
d="M454 719l14 2q16 0 35 -7.5t27.5 -19.5t7.5 -24l-1 -8q0 -40 -40 -107l-316 -526q-30 -48 -54 -65q-22 -15 -49 -15q-17 0 -34 7t-25 17q-5 4 -10 12t-5 13q0 9 6.5 29.5t24.5 49.5q86 138 198.5 330t172.5 281q7 11 22 20.5t26 10.5z" />
    <glyph glyph-name="Euro" unicode="&#x20ac;" horiz-adv-x="607" 
d="M53 471h4l95 2q11 41 34 81.5t58.5 72t83.5 51t105 19.5q67 0 107 -21.5t41 -62.5q1 -29 -15.5 -49t-40.5 -20q-14 0 -41.5 10t-41.5 10q-39 0 -63 -18q-30 -22 -52 -69l73 1h10q2 0 23 -2t38 -9.5t17 -25.5v-6q-5 -32 -23.5 -49t-45.5 -18l-121 -3l-1 -35l93 1h26
q36 0 50.5 -11t14.5 -31q0 -31 -20.5 -49t-48.5 -19q-24 -2 -104 -2q13 -37 38 -55.5t55 -18.5q25 0 42 8q43 20 57 25t33 5q27 0 42.5 -16t15.5 -46q0 -25 -13.5 -45.5t-37 -36t-65.5 -27.5t-78 -12q-56 0 -100 16t-71 41.5t-48 62.5t-32 98h-83q-59 0 -59 55v8q2 18 16 31
t39 13h5l75 2v37h-68q-13 0 -29 6.5t-24 19.5t-8 26q0 14 6 28t16.5 20.5t20.5 6.5z" />
    <glyph glyph-name="afii61352" unicode="&#x2116;" horiz-adv-x="1072" 
d="M227 353v-54q0 -158 -17 -223q-7 -25 -29.5 -50t-45.5 -25l-6 1q-90 12 -90 315v42q0 89 15 213q5 38 24 64t39.5 34.5t34.5 8.5q78 0 137 -82q18 -25 81 -133.5t79 -132.5v12l-1 75q0 75 9 132.5t32 92t62 34.5q15 0 32 -10.5t23 -27.5q20 -36 20 -219v-20
q0 -101 -14.5 -192.5t-42.5 -155.5q-12 -20 -35.5 -32.5t-47.5 -12.5q-27 1 -59 26.5t-64.5 76t-78.5 138t-57 105.5zM853 652q50 0 86.5 -20.5t58.5 -58t22 -86.5q0 -40 -17.5 -80t-56.5 -63t-90 -23q-77 0 -125 44.5t-48 118.5v8q4 70 51 115t119 45zM999 56
q-3 -2 -8 -3.5t-14.5 -3t-11.5 -1.5l-179 -4q-19 0 -44 3.5t-36 9.5q-8 3 -13.5 14.5t-5.5 28.5q3 18 22.5 28.5t39.5 10.5l115 2q110 0 129 -10l3 -1q8 -2 14.5 -12t6.5 -18q0 -33 -18 -44zM999 187q-3 -2 -8 -3.5t-14.5 -3t-11.5 -1.5l-177 -3q-20 0 -44.5 3t-37.5 9
q-8 3 -13.5 14.5t-5.5 28.5q3 18 22.5 28.5t39.5 10.5l115 2q110 0 129 -10l3 -1q8 -2 14.5 -12t6.5 -18q0 -33 -18 -44zM855 433q21 0 36 15t15 41q0 29 -13.5 46t-37.5 17q-26 0 -41.5 -18t-15.5 -44q0 -24 12.5 -40.5t35.5 -16.5h9z" />
    <glyph glyph-name="trademark" unicode="&#x2122;" horiz-adv-x="821" 
d="M35 601q-3 15 -3 30l1 11q5 37 38 39l57 3q16 1 46 1t67.5 -1.5t39.5 -1.5q80 0 80 -64q0 -21 -16.5 -34t-69.5 -22l-13 -1v-40l1 -162q0 -31 -14 -39q-19 -12 -50 -12q-19 0 -38.5 6.5t-29.5 16.5q-3 32 -3 67q0 101 3 161q-2 0 -31.5 2.5t-45 11.5t-19.5 28zM651 349
l-13 103q-3 0 -6 -4t-14 -28t-19 -35t-16 -15.5t-16 -4.5q-16 0 -30 10.5t-29.5 41.5t-16.5 32q-6 -13 -8.5 -55.5t-7.5 -55t-10 -16.5q-14 -14 -40 -14q-22 0 -39 13t-17 36q0 66 7 141.5t22 130.5q6 22 23 36t37 14q23 0 36 -10q6 -4 13.5 -13.5t14.5 -24.5t21.5 -52.5
t23.5 -40.5q5 0 10.5 6t19.5 39t23.5 48.5t20.5 25t24 12.5l13 3h5q54 -2 69 -84q15 -90 15 -191q0 -39 -2 -56q-6 -16 -29.5 -25t-41.5 -9q-35 0 -43 42z" />
    <glyph glyph-name="partialdiff" unicode="&#x2202;" horiz-adv-x="548" 
d="M391 644q19 -19 40 -45t48 -87q19 -40 32 -102t13 -140q0 -48 -15.5 -96.5t-45.5 -88t-75 -63t-100 -23.5q-53 0 -99 18.5t-79.5 52t-52 80.5t-18.5 101q0 29 10 61.5t33.5 62.5t61.5 51.5t87 24.5h6q1 0 29.5 0.5t31.5 -0.5q-4 32 -17.5 59.5t-35 40t-45.5 12.5
q-20 0 -40 -6t-42.5 -27t-36.5 -21q-9 0 -21 3t-24.5 11t-21.5 19.5t-9 22.5q1 30 15.5 54t37.5 44t64 36.5t91 16.5q47 0 96.5 -20t81.5 -52zM333 226v10q-7 80 -66 80q-28 0 -43 -18.5t-15 -45.5q0 -24 12 -47.5t30 -33.5t34 -10q42 0 48 65z" />
    <glyph glyph-name="product" unicode="&#x220f;" horiz-adv-x="617" 
d="M583 597l-2 -130v-62l-2 -98q-5 -102 -5 -237v-37q-15 -14 -40 -21.5t-51 -7.5q-25 0 -47.5 9t-33.5 25.5t-12 33.5q-3 41 -3 84v79l1 82l1 53l-1 106l-2 94l-143 -1v-145q0 -77 -2 -117q-5 -102 -5 -237v-37q-15 -14 -40 -21.5t-51 -7.5q-25 0 -47.5 9t-33.5 25.5
t-12 33.5q-3 41 -3 84v79l1 82l1 53l-1 106l-2 157q0 30 14.5 50t29.5 26.5t23 6.5h162l223 -1q83 -1 83 -110v-8z" />
    <glyph glyph-name="summation" unicode="&#x2211;" horiz-adv-x="504" 
d="M470 179q9 -4 16 -18t7 -42q0 -20 -4.5 -42t-9.5 -31q-11 -12 -41 -22.5t-79 -15.5t-98 -5q-90 0 -139 15t-71 45.5t-22 74.5q0 23 12 44q17 29 46.5 56.5t76.5 61.5t61 45l5 7q0 3 -5 8q-2 2 -7 5.5t-76.5 52.5t-103.5 99q-13 23 -13 50q0 37 22 67t63 47.5t101 17.5
q88 -2 171.5 -13t100.5 -29q6 -28 6 -51q0 -45 -20 -60q-18 -3 -37 -3q-30 0 -94 3.5t-88 3.5q8 -7 35 -28.5t84.5 -65.5t61.5 -47q29 -23 29 -53q0 -15 -8 -30.5t-21 -26.5l-40 -29q-134 -95 -159 -109q10 -2 30 -2q28 0 92 10.5t93 10.5z" />
    <glyph glyph-name="minus" unicode="&#x2212;" horiz-adv-x="651" 
d="M558 279q-4 -3 -11.5 -5.5t-21 -4.5t-16.5 -3l-273 -1l-32 -1q-67 0 -97 18q-26 15 -26 66v4q4 32 28 45t74 13q29 0 70 1.5t101 1.5q179 0 205 -15l4 -2q12 -3 20.5 -19t8.5 -27q0 -51 -34 -71z" />
    <glyph glyph-name="radical" unicode="&#x221a;" horiz-adv-x="811" 
d="M444 253q1 -3 5 -13.5t8 -10.5q3 0 9 9.5t16 36.5t51.5 157.5t74.5 226.5q8 29 24.5 64t42.5 60t51 26l17 1q31 0 46.5 -13.5t15.5 -47.5l-1 -17q-6 -34 -38 -130.5t-73 -208.5l-19 -50q-5 -14 -29 -79t-45.5 -116t-42.5 -87.5t-45 -60.5t-51 -25h-17q-22 0 -42 10.5
t-39 38.5t-41 83.5t-24 59.5l-6 14q-16 39 -42 122.5t-47 162.5q-78 -37 -95 -40h-3q-10 0 -26 15.5t-32 46t-16 51.5t58 60t107 62q26 13 56 13q29 0 52.5 -12.5t31.5 -34.5q10 -24 25.5 -71.5t44.5 -160.5t38 -142z" />
    <glyph glyph-name="infinity" unicode="&#x221e;" horiz-adv-x="1008" 
d="M238 122q-53 0 -95 23.5t-69 66.5t-27 95q0 87 65.5 141t168.5 54q66 0 130.5 -25.5t116.5 -79.5q91 58 147.5 77t101.5 19q87 0 138 -48t51 -121q0 -32 -10 -65t-34 -60t-62.5 -44.5t-89.5 -17.5q-37 0 -87 10.5t-99 35t-74 52.5q-82 -57 -121.5 -78.5t-76 -28
t-74.5 -6.5zM273 374q-37 0 -60 -16.5t-23 -39.5q0 -14 7 -27.5t24 -21.5t34 -8q19 0 41 6.5t40 14.5t29 14t19.5 10.5t9.5 5.5l4 2l4 2q-51 37 -77.5 47.5t-51.5 10.5zM761 276q27 0 46 15.5t18 42.5q-1 19 -18 31t-35 12q-44 0 -141 -61q85 -40 130 -40z" />
    <glyph glyph-name="integral" unicode="&#x222b;" horiz-adv-x="688" 
d="M378 724q10 -6 18.5 -18.5t8.5 -32.5q0 -9 -3.5 -21.5t-13 -22.5t-21.5 -12h-2q-19 0 -32 -19.5t-20 -53t-10.5 -80t-4.5 -215.5v-25l-1 -28q-4 -135 -8.5 -166.5t-14 -51.5t-29 -34.5t-61.5 -20.5l-31 -2q-32 0 -59 8.5t-37 22.5q-6 9 -6 28t6.5 38.5t17.5 21.5
q29 7 41 16q19 13 22 41q3 24 6.5 240t6.5 240q5 46 28.5 88t54 59t59.5 17h7q49 0 78 -17z" />
    <glyph glyph-name="congruent" unicode="&#x2245;" horiz-adv-x="696" 
d="M582 258q-4 -3 -11.5 -5.5t-21 -4.5t-16.5 -3l-279 -1l-32 -1q-67 0 -97 18q-13 7 -19.5 19t-6.5 41v4q4 32 27.5 44t74.5 12h16t59 1.5t89 1.5q129 0 183 -7q29 -4 48.5 -17.5t19.5 -36.5q0 -45 -34 -65zM582 60q-4 -3 -11.5 -5.5t-21 -4.5t-16.5 -3l-279 -1l-32 -1
q-67 0 -97 18q-13 7 -19.5 19t-6.5 41v4q4 32 27.5 44t74.5 12h16t59 1.5t89 1.5q73 0 138.5 -3.5t79.5 -11.5l4 -2q11 -3 20 -17.5t9 -26.5q0 -45 -34 -65zM448 572q19 0 39 6.5t53 31.5t49 25q18 0 32 -11.5t14 -26.5q0 -16 -9.5 -39t-19.5 -37q-21 -26 -50.5 -48
t-57.5 -31t-48 -9q-38 0 -90 28t-71.5 32.5t-32.5 4.5t-29.5 -5t-49 -24t-45.5 -19q-17 0 -25 12.5t-8 31.5q0 17 12.5 46t34.5 54.5t54 38.5t66 13q23 0 51.5 -11t73 -37t57.5 -26z" />
    <glyph glyph-name="notequal" unicode="&#x2260;" horiz-adv-x="754" 
d="M644 143q-4 -3 -11.5 -5.5t-21 -4.5t-16.5 -3l-258 -1q-40 -63 -75 -87q-18 -14 -43 -14q-21 0 -39 14q-16 13 -16 33q0 23 17 54q-43 4 -63 17q-12 7 -19 21t-7 43v4q4 32 28 45t74 13q29 0 77 2l40 63h-64l-32 -1q-67 0 -97 18q-12 7 -19 21t-7 43v4q4 32 28 45t74 13
q29 0 70 1.5t101 1.5h46q62 89 80 101l4 3q20 12 40 12q23 0 40 -14t17 -36q0 -8 -3 -17q-2 -12 -23 -54q69 -5 79 -10l4 -2q12 -3 20.5 -19t8.5 -27q0 -49 -34 -69q-4 -3 -11.5 -5.5t-21 -4.5t-16.5 -3l-120 -1l-40 -63q74 -1 136.5 -4.5t73.5 -9.5l4 -2q12 -3 20.5 -19
t8.5 -27q0 -49 -34 -69z" />
    <glyph glyph-name="lessequal" unicode="&#x2264;" horiz-adv-x="556" 
d="M404 711q15 5 36 5q69 0 67 -52q-1 -28 -26 -60.5t-82 -75t-68.5 -52.5t-17.5 -17l-14 -16q0 -1 1 -3t11 -12q17 -15 74 -53t82.5 -59t33.5 -38q4 -9 4 -23q0 -19 -9 -38.5t-23.5 -28t-28.5 -8.5l-20 2q-18 4 -57 24t-95.5 58t-107 74.5t-57.5 40.5q-12 8 -22.5 23.5
t-10.5 30.5q0 8 4.5 18t12.5 16q2 2 80 67.5t129 106t73.5 54t30.5 16.5zM487 19q-4 -3 -11.5 -5.5t-21 -4.5t-16.5 -3l-253 -2q-67 0 -97 18q-26 15 -26 66v4q3 23 19.5 36.5t82.5 15.5q56 2 147 2q151 0 177 -15l4 -2q11 -3 20 -15.5t9 -23.5q0 -51 -34 -71z" />
    </font>
</defs>
</svg>
